<svg width="945" height="652" viewBox="0 0 945 652" fill="none" xmlns="http://www.w3.org/2000/svg">
<g clip-path="url(#clip0)">
<path d="M204.846 163.611H142.99V239.413H204.846V163.611Z" fill="#6081F7"/>
<path d="M192.403 178.863H155.433V224.161H192.403V178.863Z" fill="#CFE3FC"/>
<path d="M185.756 186.98H162.048V216.044H185.756V186.98Z" fill="#CFE3FC"/>
<path d="M354.559 163.611H292.703V239.413H354.559V163.611Z" fill="#6081F7"/>
<path d="M342.116 178.863H305.146V224.161H342.116V178.863Z" fill="#CFE3FC"/>
<path d="M335.501 186.98H311.793V216.044H335.501V186.98Z" fill="#CFE3FC"/>
<path d="M279.703 163.611H217.846V239.413H279.703V163.611Z" fill="#CFE3FC"/>
<path d="M267.259 178.863H230.29V224.161H267.259V178.863Z" fill="#6081F7"/>
<path d="M260.612 186.98H236.904V216.044H260.612V186.98Z" fill="#F0F1FE"/>
<path d="M966.018 246.941H754.154V257.775H966.018V246.941Z" fill="#6081F7"/>
<path d="M966.018 246.941H754.154V251.524H966.018V246.941Z" fill="#A5CBEF"/>
<path d="M791.745 256.826H779.859V264.419H791.745V256.826Z" fill="#A5CBEF"/>
<path d="M938.642 256.826H926.756V264.419H938.642V256.826Z" fill="#6081F7"/>
<path d="M946.141 174.478H923.579V246.909H946.141V174.478Z" fill="#6081F7"/>
<path d="M946.141 184.46H923.579V188.061H946.141V184.46Z" fill="#A5CBEF"/>
<path d="M946.141 226.878H923.579V230.478H946.141V226.878Z" fill="#A5CBEF"/>
<path d="M946.141 232.442H923.579V236.042H946.141V232.442Z" fill="#A5CBEF"/>
<path d="M946.141 190.581H923.579V194.181H946.141V190.581Z" fill="#A5CBEF"/>
<path d="M905.143 171.27H890.375V246.941H905.143V171.27Z" fill="#F0F1FE"/>
<path d="M905.143 181.711H890.375V185.475H905.143V181.711Z" fill="#6081F7"/>
<path d="M905.143 225.994H890.375V229.758H905.143V225.994Z" fill="#6081F7"/>
<path d="M905.143 231.787H890.375V235.551H905.143V231.787Z" fill="#6081F7"/>
<path d="M905.143 188.093H890.375V191.857H905.143V188.093Z" fill="#6081F7"/>
<path d="M924.169 171.27H914.542V246.941H924.169V171.27Z" fill="#CFE3FC"/>
<path d="M924.169 181.711H914.542V185.475H924.169V181.711Z" fill="#6081F7"/>
<path d="M924.169 225.994H914.542V229.758H924.169V225.994Z" fill="#6081F7"/>
<path d="M924.169 231.787H914.542V235.551H924.169V231.787Z" fill="#6081F7"/>
<path d="M924.169 188.093H914.542V191.857H924.169V188.093Z" fill="#6081F7"/>
<path d="M914.312 185.475H904.554V246.941H914.312V185.475Z" fill="#A5CBEF"/>
<path d="M914.312 193.919H904.554V196.963H914.312V193.919Z" fill="#F0F1FE"/>
<path d="M914.312 229.921H904.554V232.965H914.312V229.921Z" fill="#F0F1FE"/>
<path d="M914.312 234.635H904.554V237.679H914.312V234.635Z" fill="#F0F1FE"/>
<path d="M914.312 199.123H904.554V202.167H914.312V199.123Z" fill="#F0F1FE"/>
<path d="M789.421 242.195H786.081V247.105H789.421V242.195Z" fill="#6081F7"/>
<path d="M854.715 242.195H851.375V247.105H854.715V242.195Z" fill="#6081F7"/>
<path d="M859.889 207.207H780.285V243.406H859.889V207.207Z" fill="#6081F7"/>
<path d="M814.733 211.658H784.672V239.217H814.733V211.658Z" fill="#CFE3FC"/>
<path d="M804.876 220.659H794.463V230.216H804.876V220.659Z" fill="#F0F1FE"/>
<path d="M799.703 213.066H799.08V215.946H799.703V213.066Z" fill="#6081F7"/>
<path d="M805.882 214.753L805.343 214.442L803.902 216.936L804.441 217.247L805.882 214.753Z" fill="#6081F7"/>
<path d="M810.397 219.268L810.086 218.729L807.589 220.166L807.899 220.705L810.397 219.268Z" fill="#6081F7"/>
<path d="M812.069 225.458L812.071 224.836L809.189 224.83L809.188 225.452L812.069 225.458Z" fill="#6081F7"/>
<path d="M810.343 231.68L810.655 231.142L808.163 229.696L807.851 230.233L810.343 231.68Z" fill="#6081F7"/>
<path d="M805.834 236.126L806.374 235.817L804.942 233.317L804.403 233.626L805.834 236.126Z" fill="#6081F7"/>
<path d="M799.62 237.802L800.242 237.804L800.254 234.924L799.632 234.921L799.62 237.802Z" fill="#6081F7"/>
<path d="M793.403 236.138L793.94 236.452L795.393 233.964L794.855 233.651L793.403 236.138Z" fill="#6081F7"/>
<path d="M788.899 231.572L789.208 232.112L791.71 230.684L791.402 230.144L788.899 231.572Z" fill="#6081F7"/>
<path d="M787.304 225.324L787.3 225.946L790.182 225.965L790.186 225.343L787.304 225.324Z" fill="#6081F7"/>
<path d="M789.033 219.181L788.718 219.717L791.204 221.174L791.518 220.638L789.033 219.181Z" fill="#6081F7"/>
<path d="M793.61 214.696L793.069 215.003L794.492 217.508L795.033 217.2L793.61 214.696Z" fill="#6081F7"/>
<path d="M807.267 224.619H799.67V225.961H807.267V224.619Z" fill="#6081F7"/>
<path d="M799.605 218.304V225.897H800.26V218.304H799.605Z" fill="#6081F7"/>
<path d="M855.305 212.248H819.383V213.655H855.305V212.248Z" fill="#A5CBEF"/>
<path d="M855.305 215.815H819.383V217.222H855.305V215.815Z" fill="#A5CBEF"/>
<path d="M855.305 219.35H819.383V220.757H855.305V219.35Z" fill="#A5CBEF"/>
<path d="M855.305 222.917H819.383V224.325H855.305V222.917Z" fill="#A5CBEF"/>
<path d="M855.305 226.452H819.383V227.86H855.305V226.452Z" fill="#A5CBEF"/>
<path d="M855.305 230.02H819.383V231.427H855.305V230.02Z" fill="#A5CBEF"/>
<path d="M855.305 233.555H819.383V234.962H855.305V233.555Z" fill="#A5CBEF"/>
<path d="M855.305 237.089H819.383V238.497H855.305V237.089Z" fill="#A5CBEF"/>
<path d="M717.249 161.615H374.305V346.342H717.249V161.615Z" fill="#CFE3FC"/>
<path d="M725.567 335.868H365.955V351.448H725.567V335.868Z" fill="#A5CBEF"/>
<path d="M432.133 303.073L430.562 300.978L475.227 267.135L509.413 287.526L573.955 222.361L602.607 257.415L661.876 214.211L663.383 216.306L602.149 260.95L573.758 226.223L509.839 290.799L475.39 270.278L432.133 303.073Z" fill="#6081F7"/>
<path d="M431.315 185.115H428.728V318.161H431.315V185.115Z" fill="#6081F7"/>
<path d="M699.01 301.96H406.723V304.546H699.01V301.96Z" fill="#6081F7"/>
<path d="M670.227 213.983C670.227 217.288 667.574 219.939 664.267 219.939C660.96 219.939 658.307 217.288 658.307 213.983C658.307 210.677 660.96 208.026 664.267 208.026C667.541 208.026 670.227 210.71 670.227 213.983Z" fill="#6081F7"/>
<path d="M579.62 224.652C579.62 227.958 576.967 230.609 573.66 230.609C570.353 230.609 567.7 227.958 567.7 224.652C567.7 221.346 570.353 218.695 573.66 218.695C576.967 218.695 579.62 221.379 579.62 224.652Z" fill="#6081F7"/>
<path d="M481.121 269.394C481.121 272.7 478.468 275.351 475.161 275.351C471.854 275.351 469.201 272.7 469.201 269.394C469.201 266.088 471.854 263.437 475.161 263.437C478.436 263.437 481.121 266.088 481.121 269.394Z" fill="#6081F7"/>
<path d="M515.504 288.017C515.504 291.323 512.851 293.974 509.544 293.974C506.237 293.974 503.584 291.323 503.584 288.017C503.584 284.712 506.237 282.061 509.544 282.061C512.819 282.061 515.504 284.744 515.504 288.017Z" fill="#6081F7"/>
<path d="M607.814 258.168C607.814 261.473 605.161 264.125 601.854 264.125C598.547 264.125 595.894 261.473 595.894 258.168C595.894 254.862 598.547 252.211 601.854 252.211C605.161 252.211 607.814 254.862 607.814 258.168Z" fill="#6081F7"/>
<path d="M804.352 257.677L852.849 245.534L843.058 223.801L843.287 204.229L827.733 171.008L813.619 198.239L808.544 229.3L804.352 257.677Z" fill="#FFCEBD"/>
<path d="M751.632 273.092H750.355L715.35 226.485L711.519 216.241C710.537 213.59 707.982 211.822 705.166 211.822H699.338L696.816 213.295L670.259 211.822C670.259 214.637 672.486 216.961 675.302 217.059L688.793 217.55L689.186 227.434C689.317 231.035 691.577 234.209 694.884 235.551L703.955 239.25L707.524 242.49L741.448 298.229C742.431 299.865 744.461 300.585 746.262 299.963L758.967 295.545L753.499 273.191L751.632 273.092Z" fill="#FFCEBD"/>
<path d="M751.219 607.995H773.027V590.975H751.219V607.995Z" fill="#FFCEBD"/>
<path d="M781.496 361.267L751.206 495.262V595.775H773.015C773.015 595.775 791.091 526.028 781.889 497.095L818.007 413.503L781.496 361.267Z" fill="#6081F7"/>
<path d="M778.713 595.775V621.206H707.36V612.337L727.793 608.245L743.02 590.768H746.196L751.206 598.95L773.015 599.637L776.191 595.775H778.713Z" fill="white"/>
<path d="M740.888 593.391L739.012 595.357L743.348 599.492L745.224 597.526L740.888 593.391Z" fill="#191C3C"/>
<path d="M738.06 597.581L735.977 599.325L738.836 602.737L740.919 600.993L738.06 597.581Z" fill="#191C3C"/>
<path d="M735.358 605.627L737.224 603.63L734.375 600.914L732.476 602.877L735.358 605.627Z" fill="#191C3C"/>
<path d="M823.662 612.797H839.838V595.778H823.662V612.797Z" fill="#FFCEBD"/>
<path opacity="0.3" d="M779.073 371.969L789.421 372.624L818.008 413.503L802.846 448.557L794.496 409.019L776.421 383.686L779.073 371.969Z" fill="#191C3C"/>
<path d="M849.378 376.027L848.002 491.53C860.282 516.732 839.816 595.775 839.816 595.775H822.101L819.71 502.528L799.932 409.019L773.015 371.216L849.378 376.027Z" fill="#6081F7"/>
<path d="M798.688 620.814H826.98L843.254 613.253L842.108 599.638L839.849 603.041L835.756 603.27L830.745 595.775H817.123L798.688 620.814Z" fill="white"/>
<path d="M843.254 613.253V618.49L828.257 626.901H798.688V620.813H826.98L843.254 613.253Z" fill="#191C3C"/>
<path d="M823.64 600.554H814.438V603.27H823.64V600.554Z" fill="#191C3C"/>
<path d="M821.675 605.299H812.474V608.016H821.675V605.299Z" fill="#191C3C"/>
<path d="M818.597 610.078H809.395V612.795H818.597V610.078Z" fill="#191C3C"/>
<path d="M707.343 626.897H778.696V620.842H707.343V626.897Z" fill="#191C3C"/>
<path d="M808.544 229.3L776.65 247.759C776.06 248.087 775.504 248.512 775.013 248.938L751.239 270.408L756.02 301.011L816.174 265.27L808.544 229.3Z" fill="white"/>
<path d="M865.358 262.39L852.849 379.366H766.892L789.715 242.785L808.544 229.3L819.088 247.661L843.058 223.801L865.358 262.39Z" fill="white"/>
<path d="M832.645 188.388C833.955 190.613 833.856 193.854 834.02 196.177C834.315 200.4 834.217 204.949 835.428 209.04C836.05 211.069 837.033 213 838.015 214.899C838.179 215.226 838.343 215.553 838.67 215.75C838.899 215.881 839.194 215.946 839.489 215.946C841.486 215.946 843.123 214.244 843.778 212.379C844.433 210.513 844.368 208.451 844.532 206.487C844.761 203.214 846.627 199.974 847.086 196.668C847.249 195.523 847.217 194.312 847.348 193.166C847.61 190.384 848.658 187.7 849.247 184.984C850.459 179.551 848.232 174.968 845.612 170.288C844.302 167.932 843.058 165.411 841.519 163.218C839.554 160.404 836.705 160.469 834.02 158.735C831.957 157.393 830.549 154.84 828.126 154.414C825.113 153.858 822.068 156.934 819.252 155.756C816.305 154.545 813.62 152.941 810.411 154.741C809.33 155.363 808.348 156.28 807.103 156.443C806.252 156.542 805.4 156.28 804.549 156.214C802.879 156.051 801.209 156.542 799.605 157.065C798.098 157.556 796.363 158.211 795.872 159.716C795.577 160.6 795.773 161.647 795.348 162.498C794.824 163.579 793.514 164.004 792.335 164.168C791.156 164.299 789.879 164.299 788.831 164.888C787.161 165.837 786.67 170.779 787.456 172.35C788.34 174.15 790.599 174.838 792.597 174.707C794.594 174.608 796.526 173.921 798.524 173.79C800.521 173.659 802.781 174.281 803.73 176.016C804.025 176.54 804.189 177.161 804.32 177.751C805.138 181.023 805.924 184.264 806.743 187.537C807.496 190.581 808.348 193.821 810.607 195.981C812.965 198.207 816.567 198.927 819.678 197.945C822.756 196.963 825.277 194.443 826.489 191.432C826.98 190.221 827.307 188.879 828.159 187.864C829.01 186.849 830.647 186.326 831.663 187.209C832.055 187.504 832.383 187.929 832.645 188.388Z" fill="#E96966"/>
<path d="M793.055 175.001V190.679L795.086 192.708C795.086 192.708 790.665 198.828 790.992 205.309H795.086V213.066C795.086 219.71 800.456 225.078 807.103 225.078H808.642C817.909 225.078 825.441 217.55 825.441 208.287V201.578C825.441 201.578 831.925 198.501 831.925 192.708C831.925 192.708 832.94 183.838 827.504 184.198C827.504 184.198 820.333 183.871 820.005 189.664L812.179 190.351V185.966C812.179 182.889 809.788 180.303 806.71 180.107L806.383 170.91C806.35 170.91 797.149 169.208 793.055 175.001Z" fill="#FFCEBD"/>
<path d="M795.773 216.765C796.985 216.11 797.476 217.91 797.574 218.728C797.673 219.547 797.935 220.528 798.753 220.725C799.081 220.823 799.441 220.725 799.768 220.627C800.292 220.496 800.816 220.365 801.307 220.136C801.7 219.939 802.06 219.677 802.453 219.416C803.796 218.434 804.909 217.452 804.844 215.75C804.778 213.982 804.32 212.411 802.584 211.626C801.176 211.004 799.572 211.07 798.066 211.2C796.919 211.299 795.249 211.888 794.398 210.71C793.972 210.088 794.169 209.269 794.398 208.549C794.529 208.157 794.66 207.731 794.922 207.404C795.675 206.455 799.146 206.749 800.358 206.684C801.7 206.618 803.207 206.389 804.582 206.553C805.892 206.716 807.234 207.273 808.053 208.32C808.773 209.204 809.166 210.48 810.247 210.906C810.705 211.07 811.196 211.07 811.655 210.971C812.703 210.808 813.816 210.349 814.373 209.433C815.191 208.124 814.667 206.389 814.242 204.884C813.292 201.545 813.718 198.043 812.801 194.77C812.31 192.97 811.36 188.617 812.866 187.079H820.824C820.005 190.777 819.055 197.323 820.496 200.825C823.018 206.913 828.093 215.619 822.166 221.347C820.562 222.885 818.499 223.801 816.468 224.685C815.159 225.242 813.849 225.831 812.441 225.994C810.836 226.191 809.166 225.863 807.562 225.929C805.499 226.027 803.469 226.747 801.438 226.354C800.096 226.092 798.917 225.372 797.771 224.652C797.542 224.489 797.28 224.358 797.116 224.129C796.887 223.801 796.854 223.343 796.69 222.983C796.559 222.721 796.396 222.459 796.232 222.23C795.511 221.15 795.151 219.808 795.217 218.532C795.217 217.517 795.348 216.994 795.773 216.765Z" fill="#E96966"/>
<g opacity="0.14">
<g opacity="0.14">
<path opacity="0.14" d="M779.433 529.333C780.383 527.992 781.3 526.617 781.3 525.21C781.3 524.391 778.647 519.94 778.942 519.613C779.4 519.056 780.121 518.696 780.874 518.664C780.645 517.649 779.564 517.158 778.746 516.536C777.927 515.914 777.305 514.605 778.058 513.95C779.106 513.165 780.383 513.46 781.496 513.263C781.267 510.481 780.514 507.666 779.99 504.95C779.531 502.528 778.811 499.909 777.305 497.913C775.929 496.113 773.506 495.851 772.589 493.723C772.524 493.527 772.426 493.331 772.458 493.134C772.557 492.643 773.179 492.512 773.67 492.48C775.7 492.382 777.796 492.48 779.793 492.12C780.94 491.923 783.756 490.254 784.28 491.236C784.705 492.087 782.249 496.113 781.856 497.095C784.803 506.39 784.738 516.634 784.28 526.29C784.018 532.116 783.461 537.909 782.773 543.702C782.151 548.84 782.053 555.092 780.317 559.87C780.383 557.448 780.154 555.255 779.139 553.03C778.123 550.837 776.617 548.873 775.111 546.975C774.849 546.647 774.587 546.287 774.423 545.895C774.292 545.535 774.259 545.142 774.259 544.749C774.227 543.8 774.292 542.851 774.423 541.902C776.748 543.178 779.04 544.16 781.431 545.207C781.07 542 780.71 537.941 778.549 535.356C777.992 534.701 777.272 534.014 777.305 533.13C777.305 532.77 777.468 532.41 777.632 532.083C778.058 531.199 778.746 530.283 779.433 529.333ZM802.322 449.8C803.108 448 798.688 449.604 798.426 449.8C796.985 450.815 795.97 452.451 795.348 454.088C794.398 456.706 794.234 459.521 793.579 462.205C792.63 466.067 790.599 469.667 787.783 472.449C789.028 472.449 789.781 474.02 789.486 475.264C789.191 476.475 788.209 477.424 787.423 478.373C786.015 480.108 785.393 483.283 783.887 484.723C783.133 485.41 782.02 485.41 781.169 485.737C781.496 486.228 785.164 489.567 785.033 489.861C785 489.894 802.322 449.8 802.322 449.8Z" fill="#191C3C"/>
</g>
</g>
<g opacity="0.27">
<path opacity="0.27" d="M855.141 357.928L854.683 362.249C854.355 361.889 854.191 361.398 854.388 360.776C854.715 359.827 854.945 358.877 855.141 357.928Z" fill="#BFBFBF"/>
<path opacity="0.27" d="M855.534 307.557C858.154 306.902 853.045 304.775 851.146 302.615C850.884 301.895 856.778 301.764 857.368 301.404C857.007 298.818 857.368 296.462 857.008 293.876C855.632 293.156 850.622 292.6 851.932 292.174C858.416 290.014 853.078 261.866 851.212 257.677C850.327 255.713 857.793 267.921 858.71 269.885C861.002 274.958 861.69 280.13 862.934 285.334L862.149 292.534C861.821 292.6 861.526 292.632 861.199 292.698C861.526 292.96 861.788 293.221 862.05 293.483L860.249 310.339C859.725 310.405 860.118 311.91 859.627 311.976C860.118 312.696 859.627 311.976 859.987 312.728L855.763 352.299C852.882 368.991 852.456 341.563 852.882 336.817C853.7 327.195 858.743 315.903 851.965 314.332C850.393 313.972 854.093 307.753 855.534 307.557Z" fill="#BFBFBF"/>
</g>
<path d="M887.887 300.978L889.589 320.485L872.202 402.244L874.265 412.816L872.202 426.791L867.191 431.21L860.282 433.239L852.849 435.988H849.705L843.058 433.239L847.348 427.806L849.05 419.133L846.3 423.715L841.126 425.089L847.675 409.019L858.383 397.956L865.358 327.129L862.673 300.978H887.887Z" fill="#FFCEBD"/>
<path opacity="0.3" d="M888.378 306.444H863.229L862.672 300.978H887.887L888.378 306.444Z" fill="#191C3C"/>
<path d="M843.058 223.801L881.992 246.025C886.282 248.48 889.033 252.964 889.262 257.906L891.292 301.011H860.282L858.383 271.423L843.058 223.801Z" fill="white"/>
<path d="M78.5137 386.435C111.62 406.924 101.305 454.808 100.879 487.898C100.388 524.391 99.8966 560.885 99.4054 597.379C99.3727 599.572 102.778 599.572 102.811 597.379C103.4 553.75 103.99 510.154 104.579 466.525C105.005 435.726 110.277 402.047 80.2493 383.457C78.35 382.311 76.6473 385.257 78.5137 386.435Z" fill="#E96966"/>
<path d="M96.884 403.095C95.3777 399.921 93.806 396.746 91.5465 394.029C88.1082 389.905 83.2946 387.189 78.612 384.57L77.9243 384.93C75.2065 391.967 73.7984 399.691 75.2065 407.088C76.6145 414.485 81.1334 421.522 87.9445 424.795C92.9218 427.185 98.816 427.512 103.466 430.49C104.808 421.031 100.977 411.703 96.884 403.095Z" fill="#E96966"/>
<path d="M131.529 345C98.6524 358.026 105.725 407.874 104.416 435.956C102.156 483.578 100.945 531.199 101.272 578.887C101.272 581.08 104.71 581.08 104.678 578.887C104.416 539.251 105.071 499.615 106.741 459.979C107.494 442.076 108.378 424.173 109.229 406.303C110.212 385.519 109.262 357.503 132.446 348.305C134.476 347.487 133.592 344.181 131.529 345Z" fill="#E96966"/>
<path d="M109.033 402.309C108.967 402.146 108.934 401.982 108.869 401.818C108.378 402.604 107.887 403.422 107.526 404.339L109.033 402.309Z" fill="#E96966"/>
<path d="M133.428 347.88C133.232 347.422 133.002 346.931 132.544 346.702C132.053 346.44 131.431 346.571 130.907 346.734C120.199 349.909 111.783 358.975 108.116 369.514C104.514 379.89 105.267 391.443 108.869 401.786C112.962 395.338 121.247 392.13 127.075 386.763C137.39 377.304 138.962 360.743 133.428 347.88Z" fill="#E96966"/>
<path d="M112.864 636H94.3627C83.8186 636 75.3047 627.458 75.3047 616.951V578.887H131.955V616.951C131.922 627.49 123.375 636 112.864 636Z" fill="#132652"/>
<path d="M105.07 511.103C104.546 497.913 103.957 482.268 113.748 471.926C121.41 463.842 141.025 458.278 152.028 458.016C154.222 457.95 154.222 454.546 152.028 454.612C143.645 454.841 134.869 458.147 126.977 460.83C121.148 462.794 115.647 464.987 111.325 469.537C100.781 480.567 101.075 496.964 101.632 511.136C101.73 513.296 105.169 513.296 105.07 511.103Z" fill="#E96966"/>
<path d="M155.761 453.204C155.564 452.975 155.237 452.975 154.909 452.975C150.783 453.008 146.657 453.041 142.531 453.073C138.962 453.106 135.327 453.139 131.889 454.055C124.914 455.855 119.249 461.027 114.829 466.722L113.552 466.918C120.002 468.98 126.322 471.664 133.068 472.384C139.814 473.071 147.247 471.369 151.471 466.1C154.156 462.729 155.204 458.376 155.924 454.121C155.924 453.793 155.957 453.433 155.761 453.204Z" fill="#E96966"/>
<g opacity="0.3">
<path opacity="0.3" d="M93.2493 578.854H75.272V617.573C75.272 623.923 78.5138 629.487 83.4584 632.76C83.4911 632.694 83.5239 632.662 83.5239 632.596L96.6221 583.24C97.1788 581.014 95.5088 578.854 93.2493 578.854Z" fill="#231F20"/>
<path opacity="0.3" d="M100.617 504.165C100.519 512.02 100.421 519.875 100.29 527.73C101.96 525.832 103.499 523.802 104.972 521.74C105.07 515.849 105.169 509.99 105.332 504.099C103.761 504.001 102.189 504.034 100.617 504.165Z" fill="#231F20"/>
</g>
<path d="M64.5315 479.683C64.2041 474.773 63.8438 469.733 61.6499 465.347C46.1612 484.069 40.3653 510.351 46.5542 533.818L51.1058 538.04C58.6373 530.938 62.6978 520.824 64.3023 510.58C65.8741 500.434 65.2192 489.993 64.5315 479.683Z" fill="#6081F7"/>
<path d="M106.118 506.259C105.791 505.899 105.267 505.736 104.776 505.637C94.6246 503.379 83.5239 505.932 75.4357 512.445C67.3148 518.926 62.403 529.203 62.403 539.611L65.4811 543.309C71.9647 545.077 78.743 541.771 84.1133 537.745C93.937 530.381 101.665 520.202 106.086 508.747C106.446 507.929 106.708 506.914 106.118 506.259Z" fill="#6081F7"/>
<path d="M5.42567 505.703C-1.48365 500.106 -9.50632 494.641 -18.3804 495.164C-19.33 495.23 -20.4106 495.426 -20.8363 496.277C-21.8187 498.11 -18.7078 499.485 -18.0857 501.481C-17.7255 502.627 -18.3149 503.838 -18.5441 505.049C-18.9698 507.209 -18.2821 509.467 -17.4635 511.496C-9.34259 531.854 13.6121 545.11 35.2897 542.001L37.9748 537.778C28.2166 526.094 17.2796 515.326 5.42567 505.703Z" fill="#6081F7"/>
<path d="M30.8689 539.055C46.3576 553.75 48.3223 575.516 45.6699 595.645C45.0805 600.03 51.9898 599.965 52.5465 595.645C55.4609 573.748 52.4483 550.085 35.748 534.211C32.5062 531.134 27.6271 536.011 30.8689 539.055Z" fill="#6081F7"/>
<path d="M45.9647 532.083C49.2393 551.426 45.0806 570.933 47.1436 590.375C47.602 594.728 54.5114 594.793 54.0202 590.375C51.8917 570.311 55.9849 550.248 52.6121 530.25C51.859 525.897 45.2443 527.763 45.9647 532.083Z" fill="#6081F7"/>
<path d="M66.1361 530.708C60.4711 539.218 54.7078 548.513 52.0554 558.496C49.1738 569.33 49.9925 581.505 49.5013 592.666C49.3048 597.084 56.1814 597.084 56.3779 592.666C56.8363 582.16 56.0832 570.541 58.7028 560.329C61.0605 551.034 66.791 542.098 72.063 534.178C74.5517 530.512 68.592 527.043 66.1361 530.708Z" fill="#6081F7"/>
<path d="M73.8967 636H35.4861C33.9144 636 32.539 634.953 32.1133 633.415L19.0151 584.058C18.4257 581.865 20.0957 579.672 22.3879 579.672H86.995C89.2872 579.672 90.9572 581.833 90.3678 584.058L77.2695 633.415C76.8766 634.953 75.4685 636 73.8967 636Z" fill="#132652"/>
<path d="M59.8816 472.81C54.7733 492.088 54.7078 512.184 50.0579 531.56C49.8942 532.181 50.8766 532.443 51.0075 531.821C55.6574 512.445 55.7229 492.349 60.8312 473.071C60.995 472.45 60.0453 472.188 59.8816 472.81Z" fill="#3E52BF"/>
<path d="M66.2015 537.353C74.3224 524.654 86.0781 515.358 100.322 510.384C100.912 510.187 100.65 509.205 100.06 509.434C85.5869 514.507 73.602 523.934 65.3501 536.862C64.9899 537.386 65.8741 537.876 66.2015 537.353Z" fill="#3E52BF"/>
<path d="M-16.0554 501.317C-12.9446 509.107 -7.50885 514.54 -0.697763 519.286C9.12591 526.159 21.733 529.53 30.738 537.254C31.2947 537.745 32.1461 536.927 31.5566 536.436C25.3022 531.068 17.3123 528.876 10.2393 524.817C0.0553856 519.024 -10.4232 512.314 -14.9421 500.99C-15.2041 500.335 -16.3502 500.63 -16.0554 501.317Z" fill="#3E52BF"/>
<path d="M576.86 578.757L565.227 590.642L585.17 610.142L596.802 598.257L576.86 578.757Z" fill="#FFCEBD"/>
<path d="M498.676 585.939L482.773 581.061L474.588 607.72L490.49 612.598L498.676 585.939Z" fill="#FFCEBD"/>
<path d="M391.202 517.845L375.942 626.737L381.312 626.901L409.768 514.409H391.529L391.202 517.845Z" fill="#132652"/>
<path d="M504.076 517.845L519.335 626.737L513.965 626.901L485.476 514.409H503.748L504.076 517.845Z" fill="#132652"/>
<path d="M516.552 517.845H378.529V517.387C378.529 508.779 385.504 501.808 394.116 501.808H500.932C509.544 501.808 516.519 508.779 516.519 517.387V517.845H516.552Z" fill="#FEC55E"/>
<path d="M384.259 475.984L487.605 523.541L576.247 603.303L592.849 586.84L516.552 501.775L439.731 447.182L384.259 475.984Z" fill="#6081F7"/>
<path d="M378.071 452.713V472.154C378.071 489.01 391.725 502.659 408.589 502.659H504.927C487.637 523.54 477.715 590.898 477.715 590.898L499.426 596.822L537.738 498.829C544.647 480.73 531.254 461.354 511.902 461.354H442.94L443.431 452.713H378.071Z" fill="#5C74FE"/>
<path d="M419.33 359.368L437.307 362.772C448.343 364.867 457.741 372.002 462.685 382.05L477.388 411.932L462.652 445.022L461.146 459.914C461.146 459.914 389.761 491.531 372.242 477.195L371.423 401.099L398.373 361.725L419.33 359.368Z" fill="white"/>
<path d="M394.345 337.341C394.345 337.341 400.043 362.936 398.831 377.828H419.723C419.723 377.828 417.562 352.429 421.884 348.24L394.345 337.341Z" fill="#FFCEBD"/>
<path d="M431.053 316.197C430.791 311.517 428.859 307.131 426.927 302.844L426.141 303.236C421.524 298.785 414.385 297.41 408.229 299.112C402.04 300.814 396.834 305.298 393.526 310.797C388.844 318.619 387.96 328.602 391.234 337.112C394.542 345.621 401.975 352.396 410.783 354.818C414.287 355.8 418.38 355.964 421.229 353.706C422.375 352.789 423.227 351.546 424.045 350.335C426.174 347.192 428.269 343.919 428.99 340.221C429.547 337.275 429.186 334.264 429.35 331.286C429.645 326.245 431.348 321.27 431.053 316.197Z" fill="#FFCEBD"/>
<path d="M422.113 296.723C419.559 294.792 417.202 292.566 414.385 291.094C412.192 289.915 409.768 289.228 407.345 288.672C401.222 287.264 397.063 287.657 392.38 292.206C388.844 295.643 386.519 300.422 386.355 305.364C386.322 306.477 386.355 307.622 386.028 308.702C385.635 309.979 384.718 310.993 383.932 312.041C379.61 317.899 378.889 325.918 381.345 332.693C382.426 335.704 384.194 339.108 387.043 340.712C389.335 342.021 395.229 343.003 396.375 345.752C394.673 341.563 393.985 336.981 394.411 332.497C394.509 331.319 394.705 330.14 395.36 329.158C396.015 328.176 397.227 327.489 398.34 327.784C399.159 327.98 399.748 328.635 400.436 329.158C401.615 330.075 403.121 330.566 404.627 330.598C405.217 330.598 405.839 330.533 406.33 330.206C406.985 329.747 407.28 328.929 407.443 328.144C408.197 324.314 406.919 319.961 405.675 316.361C404.627 313.317 404.431 309.357 408.491 309.619C412.126 309.848 415.859 312.073 419.723 312.303C427.615 312.728 435.736 310.371 441.859 305.331C434.688 304.087 427.877 301.109 422.113 296.723Z" fill="#132652"/>
<path d="M413.272 377.827L419.33 357.928L422.932 358.615L426.73 390.559L413.272 377.827Z" fill="#5361F0"/>
<path d="M398.111 359.368L378.987 362.968C369.622 364.736 361.796 371.085 358.096 379.857L336.746 430.621C333.733 437.821 339.005 445.775 346.798 445.775L423.161 441.945L426.698 431.145L418.282 433.992L370.474 429.934C366.577 429.606 364.514 425.122 366.806 421.947L398.798 377.795C398.864 377.828 404.594 362.052 398.111 359.368Z" fill="#FFCEBD"/>
<path d="M398.111 359.368L378.987 362.968C369.622 364.736 361.796 371.085 358.096 379.857L343.36 411.179C354.887 409.968 366.839 421.98 375.058 415.5L398.831 377.795C398.864 377.828 404.594 362.052 398.111 359.368Z" fill="white"/>
<path d="M397.947 358.124L413.272 377.827L402.466 391.999L392.642 359.368L397.947 358.124Z" fill="#5361F0"/>
<path d="M471.559 602.779L466.254 616.264V626.901H531.516V623.955C531.516 621.304 529.715 619.013 527.128 618.424L516.617 615.937L494.644 602.812H490.748L488.979 606.707H477.617L476.569 602.812H471.559V602.779Z" fill="#132652"/>
<path d="M466.222 621.206V626.868H531.484V623.923C531.484 622.941 531.222 622.024 530.796 621.206H466.222Z" fill="white"/>
<path d="M579.718 608.081L587.348 620.388L595.862 626.737L636.368 574.468L634.01 572.7C631.882 571.129 628.967 571.195 626.937 572.897L618.652 579.836L593.504 589.622L591.179 592.764L593.242 596.528L586.464 605.627L582.698 604.154L579.718 608.081Z" fill="#132652"/>
<path d="M591.31 623.366L595.861 626.77L636.368 574.501L634.01 572.733C633.224 572.144 632.34 571.784 631.39 571.653L591.31 623.366Z" fill="white"/>
<path d="M334.093 452.157L301.577 636H307.209L353.348 450.815L334.093 452.157Z" fill="#132652"/>
<path d="M844.794 452.157L877.31 636H871.645L825.539 450.815L844.794 452.157Z" fill="#132652"/>
<path d="M912.511 462.532H266.637V471.271H912.511V462.532Z" fill="#F7F7F7"/>
<path d="M266.637 462.532L302.461 443.516H925.446L912.675 462.532H266.637Z" fill="white"/>
<path d="M912.511 471.238L925.446 453.008V443.516L912.675 462.532L912.511 471.238Z" fill="#F7F7F7"/>
<path d="M416.514 445.644H369.786V451.764H416.514V445.644Z" fill="#132652"/>
<path d="M496.348 451.764H400.174L422.834 393.112C423.39 391.705 424.733 390.789 426.239 390.789H514.587C517.141 390.789 518.909 393.374 517.993 395.763L496.348 451.764Z" fill="#132652"/>
<path d="M466.025 421.293C466.025 424.598 463.34 427.282 460.033 427.282C456.725 427.282 454.04 424.598 454.04 421.293C454.04 417.987 456.725 415.303 460.033 415.303C463.34 415.27 466.025 417.954 466.025 421.293Z" fill="#717386"/>
<path d="M533.448 440.505H529.224C525.393 440.505 522.282 437.396 522.282 433.566C522.282 429.737 525.393 426.627 529.224 426.627H531.942V429.573H529.224C527.03 429.573 525.229 431.373 525.229 433.566C525.229 435.759 527.03 437.559 529.224 437.559H533.448V440.505Z" fill="#E96966"/>
<path d="M556.239 424.336H530.665V432.126C530.665 437.657 532.728 442.992 536.494 447.051V450.946H550.443V447.051C554.176 442.992 556.272 437.657 556.272 432.126V424.336H556.239Z" fill="#E96966"/>
<g opacity="0.29">
<g opacity="0.29">
<path opacity="0.29" d="M551 424.336V432.126C551 437.657 548.937 442.992 545.171 447.051V450.946H548.184V447.051C551.917 442.992 554.013 437.657 554.013 432.126V424.336H551Z" fill="white"/>
</g>
</g>
<path d="M749.766 456.576H755.693L749.766 431.308L727.924 456.576H749.766Z" fill="#272834"/>
<path d="M743.118 456.576H709.128L723.635 409.576H757.625L743.118 456.576Z" fill="#3A3C4E"/>
<path d="M739.484 456.576H705.494L720 409.576H753.99L739.484 456.576Z" fill="#132652"/>
<path d="M736.93 450.423H711.846L722.554 415.729H747.637L736.93 450.423Z" fill="url(#paint0_linear)"/>
<g opacity="0.2">
<g opacity="0.2">
<path opacity="0.2" d="M713.68 449.506L724.093 415.729H722.554L711.846 450.423H736.93L737.224 449.506H713.68Z" fill="white"/>
</g>
</g>
<path d="M819.808 451.175C819.252 451.502 818.564 451.306 818.237 450.75L782.446 387.057C782.151 386.501 782.348 385.814 782.871 385.519H782.904C783.461 385.225 784.149 385.421 784.443 385.945L820.234 449.637C820.529 450.193 820.332 450.881 819.808 451.175Z" fill="#191C3C"/>
<path d="M905.373 458.245L814.799 458.277C813.194 458.277 811.884 456.968 811.884 455.365V453.564C811.884 451.961 813.194 450.651 814.799 450.651L905.373 450.619C906.977 450.619 908.287 451.928 908.287 453.532V455.332C908.287 456.968 906.977 458.245 905.373 458.245Z" fill="#474963"/>
<path d="M908.287 454.186C908.287 453.335 907.927 452.55 907.436 451.96C907.436 453.924 905.831 455.495 903.899 455.495L814.602 455.528C813.521 455.528 812.572 455.004 811.917 454.219C811.917 454.219 811.917 454.219 811.917 454.252V454.775C811.917 456.739 813.521 458.31 815.453 458.31L904.751 458.277C906.715 458.277 908.287 456.674 908.287 454.742V454.186Z" fill="#191C3C"/>
<path d="M883.302 452.681H876.294V455.364H883.302V452.681Z" fill="#75778A"/>
<path d="M891.62 452.681H884.612V455.364H891.62V452.681Z" fill="#75778A"/>
<path d="M832.677 452.713H825.67V455.397H832.677V452.713Z" fill="#75778A"/>
<path d="M154.527 604.411L174.349 613.42L183.66 592.952L163.838 583.943L154.527 604.411Z" fill="#FFCEBD"/>
<path d="M251.378 471.893L230.814 522.428L181.99 600.62L158.184 589.884L207.204 497.717L211.854 385.389L251.378 471.893Z" fill="#132652"/>
<path d="M181.793 599.932L183.431 600.652L191.224 619.505L195.514 626.116L209.038 629.814L209.005 635.346L193.091 635.673L144.005 614.988L142.99 608.377L149.735 593.059L154.025 592.306L157.365 593.779L161.688 604.94L177.111 611.519L181.793 599.932Z" fill="#191C3C"/>
<path d="M142.99 608.344L149.735 593.059L154.025 592.306L157.365 593.779L161.688 604.94L177.111 611.519L181.793 599.932L183.431 600.652L191.224 619.505L195.514 626.116L209.038 629.815V631.222H197.315L142.99 608.344Z" fill="#E96966"/>
<path d="M232.807 622.469H253.142V601.49H232.807V622.469Z" fill="#FFCEBD"/>
<path d="M255.962 608.933H257.665L271.418 622.09L293.227 630.371V636H229.438L226.065 630.763V615.151L229.438 612.893H232.844L240.735 620.781L256.355 620.584L255.962 608.933Z" fill="#191C3C"/>
<path d="M232.844 612.893L240.735 620.781L256.355 620.584L255.962 608.933H257.665L271.418 622.09L292.866 630.24H226.065V615.151L229.438 612.893H232.844Z" fill="#E96966"/>
<path d="M358.423 307.623C355.607 302.517 352.267 297.738 349.942 292.403C344.735 280.457 345.128 266.94 345.587 253.946L343.851 249.037C338.416 247.269 332.521 248.153 326.856 249.069C324.662 249.429 322.436 249.789 320.536 250.935C318.277 252.309 316.771 254.633 315.33 256.859C313.463 259.805 311.564 262.75 310.287 266.023C307.045 274.304 310.123 282.323 309.174 290.702C308.159 299.539 304.982 308.637 302.952 317.311C302.002 321.337 301.053 325.395 300.824 329.519C300.3 338.258 303.083 347.128 308.322 354.099C310.647 357.208 313.824 359.696 316.574 362.478C318.932 364.9 322.992 363.82 324.073 360.612C326.529 353.117 331.113 345.589 336.549 344.215C335.73 338.88 339.431 334.887 341.952 330.599C345.227 325.068 345.456 319.602 345.652 313.416C351.285 313.481 359.405 320.584 363.499 324.119C363.564 318.293 361.239 312.696 358.423 307.623Z" fill="url(#paint1_linear)"/>
<path opacity="0.1" d="M209.889 432.65C210.118 433.305 210.348 433.927 210.577 434.582L227.539 502.234V527.665L230.814 522.428L251.41 471.893L211.887 385.389L209.889 432.65Z" fill="#231F20"/>
<path d="M205.468 366.569L198.657 383.785C198.657 403.848 208.71 415.533 215.03 434.549L231.992 502.201V610.406H255.897L264.934 500.728L263.428 391.083L205.468 366.569Z" fill="#132652"/>
<path d="M311.957 292.6L341.428 334.101C341.919 334.723 342.443 335.345 343 335.868L365.136 354.459L375.516 350.76C377.678 350.008 380.035 350.139 382.098 351.12L395.851 360.874L391.66 361.856L386.028 363.852L386.879 365.62L392.053 365.325C394.116 365.194 395.95 366.536 396.473 368.533L396.703 369.384L385.831 370.791C381.476 372.919 376.499 369.875 372.34 369.285L364.481 368.729C363.924 368.533 363.073 368.238 362.516 368.074L335.73 350.76C332.914 349.157 330.36 347.127 328.199 344.705L305.572 322.482L311.957 292.6Z" fill="#FFCEBD"/>
<path d="M299.383 277.25L290.607 316.394L319.456 342.807C328.166 340.974 329.345 313.809 329.345 313.809L299.383 277.25Z" fill="#E96966"/>
<path d="M333.209 273.027C333.209 273.027 317.36 280.752 315.166 287.396L308.159 262.357L330.262 247.269L333.209 273.027Z" fill="#FFCEBD"/>
<path d="M295.813 256.63L295.683 256.695C271.909 270.638 251.443 289.523 235.627 312.074L197.446 366.569C192.468 404.601 235.234 421.686 267.096 410.754L279.932 367.846C281.766 361.725 285.761 356.521 291.164 353.15L298.269 348.731C303.738 345.328 308.257 340.484 310.942 334.625C316.64 322.089 318.539 308.048 316.279 294.302L315.133 287.363L308.126 251.262L295.813 256.63Z" fill="#E96966"/>
<path opacity="0.1" d="M286.809 292.207C279.212 292.567 275.61 298.262 275.61 305.855L273.219 366.994C273.219 367.616 273.285 368.271 273.416 368.893L275.872 381.33L279.899 367.845C281.733 361.725 285.728 356.521 291.131 353.15L292.539 352.266L301.511 308.572C302.887 299.702 295.781 291.814 286.809 292.207Z" fill="#231F20"/>
<path d="M275.74 299.44V363.002C275.74 363.656 275.806 364.344 275.937 364.998L297.254 424.075C297.778 426.661 297.483 429.345 296.403 431.767L290.279 445.742L288.904 449.637C288.216 451.568 289.756 453.565 291.786 453.401L308.29 452.092C310.091 451.961 311.597 450.619 311.924 448.819L314.937 432.88L292.965 362.38L305.375 301.764C306.783 292.469 299.35 284.188 289.952 284.614C281.995 284.908 275.74 291.454 275.74 299.44Z" fill="#FFCEBD"/>
<path d="M289.985 283.043C282.028 283.403 275.642 286.708 275.642 294.694L271.811 340.156C271.811 340.156 297.451 352.201 302.166 342.905L308.159 298.295C309.567 288.999 299.383 282.617 289.985 283.043Z" fill="#E96966"/>
<path d="M312.776 427.446L322.698 450.815L315.985 450.848L309.108 437.854L312.776 427.446Z" fill="#FFCEBD"/>
<path d="M328.002 240.559C334.388 235.421 350.63 232.443 356.622 240.101C360.06 244.454 358.914 250.706 356.327 256.663C355.181 259.346 354.428 263.438 355.247 267.005C355.41 267.692 350.335 267.3 349.975 267.856C348.796 269.689 348.829 269.46 347.879 270.769C345.849 273.551 343.458 276.366 340.151 277.446C335.829 278.853 330.982 276.726 327.937 273.355C324.924 269.984 323.385 265.532 322.174 261.147C321.683 259.346 321.224 257.514 321.093 255.648C320.7 249.887 323.516 244.16 328.002 240.559Z" fill="#FFCEBD"/>
<path d="M335.927 249.92C331.834 252.669 330.95 258.332 327.544 261.866C324.073 265.467 318.637 266.219 313.627 266.219C309.01 266.219 304.164 265.663 300.463 262.914C297.058 260.361 295.06 256.171 294.602 251.949C294.111 247.727 294.995 243.407 296.37 239.381C298.564 233.13 302.035 227.336 306.554 222.492C308.813 220.07 311.433 217.812 314.577 216.667C318.441 215.259 322.73 215.717 326.824 216.208C333.962 217.027 341.232 217.878 347.715 220.987C350.597 222.362 354.657 224.718 356.72 227.14C358.03 228.678 359.307 230.217 360.617 231.755C361.206 232.442 361.796 233.13 362.287 233.882C363.4 235.486 364.154 237.385 364.219 239.348C364.285 241.312 363.597 243.309 362.189 244.651C361.108 245.665 359.667 246.254 358.227 246.647C354.985 247.531 350.957 247.956 347.584 248.153C343.622 248.382 339.463 247.563 335.927 249.92Z" fill="url(#paint2_linear)"/>
<path opacity="0.21" d="M422.506 228.907L381.05 227.566L382.393 184.853L421.164 183.479L422.506 228.907Z" fill="#231F20"/>
<path d="M421.164 183.479H381.05V227.566H421.164V183.479Z" fill="white"/>
<path d="M402.007 186.424C396.277 186.424 391.66 191.072 391.66 196.767C391.66 202.462 396.31 207.11 402.007 207.11C407.738 207.11 412.355 202.462 412.355 196.767H402.007V186.424Z" fill="#6081F7"/>
<path d="M416.154 209.4H387.829V212.117H416.154V209.4Z" fill="#6081F7"/>
<path d="M416.154 214.833H387.829V217.55H416.154V214.833Z" fill="#6081F7"/>
<path d="M405.904 220.299H387.829V223.016H405.904V220.299Z" fill="#6081F7"/>
<path opacity="0.21" d="M421.851 282.289L380.363 280.915L381.705 238.202L420.476 236.86L421.851 282.289Z" fill="#231F20"/>
<path d="M420.476 236.86H380.363V280.947H420.476V236.86Z" fill="white"/>
<path d="M419.33 273.681H382.819V276.398H419.33V273.681Z" fill="#6081F7"/>
<path d="M389.139 262.75H384.292V271.914H389.139V262.75Z" fill="#6081F7"/>
<path d="M396.277 255.091H391.431V271.914H396.277V255.091Z" fill="#6081F7"/>
<path d="M403.416 244.519H398.569V271.914H403.416V244.519Z" fill="#6081F7"/>
<path d="M410.554 251.327H405.708V271.914H410.554V251.327Z" fill="#6081F7"/>
<path d="M417.66 244.519H412.814V271.914H417.66V244.519Z" fill="#6081F7"/>
<path d="M590.589 461.288C586.889 461.288 586.529 459.881 589.803 458.114L609.091 447.869C612.365 446.134 618.096 444.694 621.796 444.694H672.322C676.023 444.694 676.383 446.102 673.108 447.836L653.657 458.114C650.383 459.848 644.652 461.256 640.952 461.256H590.589V461.288Z" fill="#132652"/>
<path d="M599.07 459.586C596.123 459.586 595.861 458.473 598.448 457.066L614.526 448.425C617.113 447.051 621.665 445.905 624.612 445.905H664.66C667.607 445.905 667.869 447.018 665.282 448.393L649.073 457.033C646.486 458.408 641.934 459.521 638.987 459.521H599.07V459.586Z" fill="url(#paint3_linear)"/>
<path d="M602.607 453.433C602.443 453.433 602.312 453.335 602.247 453.204C602.149 453.008 602.214 452.746 602.411 452.648L607.453 449.964C607.65 449.866 607.912 449.931 608.01 450.128C608.108 450.324 608.043 450.586 607.846 450.684L602.803 453.368C602.738 453.433 602.672 453.433 602.607 453.433Z" fill="#3A3C4E"/>
<path d="M904.325 486.36C904.325 486.36 904.914 486.425 905.962 486.72C906.453 486.884 907.108 487.113 907.829 487.374C908.516 487.702 909.302 488.095 910.186 488.52C910.972 489.044 911.889 489.6 912.839 490.255C913.755 490.942 914.607 491.76 915.622 492.579C917.39 494.346 919.421 496.408 921.025 498.928C922.892 501.35 924.201 504.198 925.806 507.143C927.05 510.187 928.524 513.395 929.539 516.799C930.456 520.202 931.733 523.705 932.322 527.338C933.01 530.971 933.927 534.636 934.254 538.335C934.647 542.033 935.302 545.732 935.466 549.397C935.662 553.063 935.859 556.663 936.055 560.133C936.252 563.635 936.088 566.973 936.121 570.181C936.088 573.388 936.088 576.399 936.055 579.182C935.466 590.31 935.04 597.739 935.04 597.739L925.479 597.052C925.479 597.052 926.461 589.753 927.967 578.821C928.196 576.072 928.458 573.126 928.753 569.984C928.982 566.842 929.408 563.537 929.473 560.1C929.572 556.663 929.67 553.129 929.735 549.528C929.866 545.928 929.506 542.295 929.408 538.629C929.375 534.964 928.786 531.331 928.393 527.763C928.131 524.163 927.148 520.693 926.526 517.322C925.806 513.951 924.627 510.776 923.645 507.732C922.335 504.787 921.254 501.906 919.617 499.484C918.274 496.964 916.473 494.87 914.869 493.037C913.952 492.186 913.199 491.335 912.347 490.615C911.463 489.96 910.645 489.338 909.892 488.815C909.073 488.356 908.32 487.931 907.665 487.571C906.944 487.276 906.355 487.047 905.864 486.851C904.914 486.458 904.325 486.36 904.325 486.36Z" fill="#5361F0"/>
<path d="M926.363 586.938C926.363 586.938 925.413 582.487 923.678 575.778C921.942 569.068 919.421 560.166 916.343 551.361C914.804 546.975 913.101 542.59 911.365 538.564C910.416 536.567 909.564 534.604 908.615 532.803C907.6 531.036 906.781 529.269 905.799 527.763C904.751 526.257 903.998 524.785 902.982 523.672C902 522.526 901.214 521.479 900.396 520.693C898.627 519.253 897.645 518.402 897.645 518.402C897.645 518.402 898.758 519.155 900.723 520.464C901.64 521.184 902.557 522.166 903.736 523.246C904.914 524.326 905.864 525.734 907.141 527.174C908.385 528.614 909.4 530.316 910.678 532.051C911.889 533.818 912.97 535.716 914.214 537.647C916.506 541.575 918.831 545.863 920.96 550.15C929.506 567.399 935.793 585.269 935.793 585.269L926.363 586.938Z" fill="#5361F0"/>
<path d="M929.67 589.819C929.67 589.819 930.096 586.546 931.078 581.865C932.093 577.152 933.698 570.933 936.055 564.813C937.267 561.769 938.675 558.758 940.279 556.041C941.196 554.699 941.851 553.358 942.866 552.212C943.816 551.034 944.635 549.921 945.715 549.037C946.698 548.121 947.582 547.27 948.662 546.713C949.677 546.124 950.398 545.502 951.315 545.306C952.919 544.782 953.836 544.455 953.836 544.455C953.836 544.455 953.018 544.881 951.577 545.633C950.824 545.928 950.234 546.648 949.448 547.303C948.63 547.924 947.975 548.874 947.287 549.855C946.501 550.772 946.01 551.983 945.388 553.161C944.7 554.307 944.405 555.714 943.882 557.023C942.997 559.773 942.408 562.751 941.982 565.762C941.164 571.784 941.098 577.872 941.262 582.422C941.393 587.004 941.753 589.917 941.753 589.917L929.67 589.819Z" fill="#5361F0"/>
<path d="M903.212 583.305L910.71 629.029C911.365 633.054 914.869 636.033 918.962 636.033H944.209C948.302 636.033 951.806 633.054 952.461 629.029L959.96 583.305H903.212Z" fill="#4C5159"/>
<path d="M903.212 583.305H959.96L953.967 619.799L904.816 592.993L903.212 583.305Z" fill="#393D43"/>
<path d="M966.018 584.189H897.186C896.63 584.189 896.171 583.731 896.171 583.174V572.112C896.171 571.555 896.63 571.097 897.186 571.097H966.018C966.574 571.097 967.033 571.555 967.033 572.112V583.174C967 583.731 966.574 584.189 966.018 584.189Z" fill="#4C5159"/>
<path d="M608.076 132.583C640.285 132.583 666.396 106.485 666.396 74.2917C666.396 42.0981 640.285 16 608.076 16C575.866 16 549.756 42.0981 549.756 74.2917C549.756 106.485 575.866 132.583 608.076 132.583Z" fill="#6081F7"/>
<path d="M626.869 122.225C653.354 111.846 666.407 81.9734 656.023 55.5016C645.64 29.0297 615.753 15.9834 589.268 26.3617C562.783 36.74 549.731 66.613 560.114 93.0849C570.497 119.557 600.385 132.603 626.869 122.225Z" fill="#CFE3FC"/>
<path d="M608.993 76.2881H607.846C606.897 76.2881 606.144 75.5353 606.144 74.5862V27.5535C606.144 26.6043 606.897 25.8516 607.846 25.8516H608.993C609.942 25.8516 610.695 26.6043 610.695 27.5535V74.5862C610.695 75.5026 609.909 76.2881 608.993 76.2881Z" fill="#6081F7"/>
<path d="M606.864 75.7647L606.209 74.8155C605.685 74.03 605.882 72.9826 606.635 72.459L629.589 56.6505C630.375 56.1268 631.423 56.3232 631.947 57.076L632.602 58.0251C633.126 58.8107 632.93 59.858 632.176 60.3817L609.222 76.1902C608.436 76.7466 607.388 76.5502 606.864 75.7647Z" fill="#6081F7"/>
<path opacity="0.3" d="M965.494 86.4346H907.567V109.607H965.494V86.4346Z" fill="#A5CBEF"/>
<path opacity="0.3" d="M933.763 113.567H875.836V136.74H933.763V113.567Z" fill="#A5CBEF"/>
<path opacity="0.3" d="M901.574 86.4346H843.647V109.607H901.574V86.4346Z" fill="#A5CBEF"/>
<g opacity="0.3">
<path d="M695.801 493.429H638.071V516.536H695.801V493.429Z" fill="#A5CBEF"/>
<path d="M664.169 520.464H606.438V543.571H664.169V520.464Z" fill="#A5CBEF"/>
<path d="M632.111 493.429H574.38V516.536H632.111V493.429Z" fill="#A5CBEF"/>
</g>
<path d="M811.295 142.73L820.823 128.885C826.98 126.529 832.612 122.339 836.738 116.12C844.302 104.763 844.007 89.5439 835.985 78.5139C822.494 59.9562 795.184 60.0216 781.758 78.7103C773.768 89.8384 773.604 105.156 781.332 116.448C786.441 123.91 793.71 128.46 801.471 130.227L810.116 142.762C810.443 143.123 811.033 143.123 811.295 142.73Z" fill="url(#paint4_linear)"/>
<path opacity="0.1" d="M809.101 121.619C822.176 121.619 832.776 111.024 832.776 97.9551C832.776 84.8861 822.176 74.2915 809.101 74.2915C796.025 74.2915 785.425 84.8861 785.425 97.9551C785.425 111.024 796.025 121.619 809.101 121.619Z" fill="white"/>
<path d="M819.252 101.032H822.33C822.952 101.032 823.443 100.541 823.443 99.9195V95.992C823.443 95.3701 822.952 94.8792 822.297 94.8792H819.874C819.481 94.8792 819.121 94.6173 818.99 94.2573C818.891 94.0282 818.826 93.7991 818.728 93.6027C818.564 93.2427 818.629 92.8172 818.891 92.5226L820.594 90.8207C821.02 90.3952 821.02 89.6751 820.594 89.2169L817.811 86.4349C817.385 86.0094 816.665 86.0094 816.206 86.4349L814.504 88.1368C814.242 88.3987 813.816 88.4969 813.488 88.3332C813.259 88.235 812.965 88.1368 812.735 88.0386C812.375 87.9077 812.146 87.5477 812.146 87.1877V84.7329C812.146 84.1111 811.655 83.6201 811.033 83.6201H807.103C806.481 83.6201 805.99 84.1111 805.99 84.7329V87.1549C805.99 87.5477 805.728 87.9077 805.368 88.0386C805.138 88.1368 804.909 88.235 804.68 88.3332C804.32 88.4969 803.894 88.4314 803.599 88.1696L801.897 86.4676C801.471 86.0421 800.75 86.0421 800.292 86.4676L797.509 89.2496C797.083 89.6751 797.083 90.3952 797.509 90.8534L799.244 92.5553C799.506 92.8172 799.604 93.2427 799.441 93.57C799.342 93.7991 799.244 94.0936 799.146 94.3228C799.015 94.6828 798.655 94.9119 798.294 94.9119H795.871C795.249 94.9119 794.758 95.4356 794.758 96.0574V99.985C794.758 100.607 795.282 101.098 795.904 101.098H798.327C798.72 101.098 799.08 101.36 799.211 101.72C799.31 101.949 799.375 102.178 799.473 102.374C799.637 102.734 799.572 103.16 799.31 103.454L797.607 105.156C797.181 105.582 797.181 106.302 797.607 106.76L800.39 109.542C800.816 109.968 801.536 109.968 801.995 109.542L803.698 107.807C803.959 107.546 804.385 107.447 804.713 107.611C804.942 107.709 805.237 107.807 805.466 107.906C805.826 108.037 806.055 108.397 806.055 108.757V111.179C806.055 111.8 806.546 112.291 807.201 112.291H811.131C811.753 112.291 812.244 111.8 812.244 111.146V108.724C812.244 108.331 812.506 107.971 812.866 107.84C813.095 107.742 813.325 107.676 813.521 107.578C813.881 107.415 814.307 107.48 814.602 107.742L816.305 109.444C816.73 109.869 817.451 109.869 817.909 109.444L820.692 106.662C821.118 106.236 821.118 105.516 820.692 105.058L818.957 103.356C818.695 103.094 818.597 102.669 818.761 102.342C818.99 101.785 819.219 101.065 819.252 101.032ZM803.632 96.9411C804.287 93.4718 807.889 91.508 811.131 92.7517C813.587 93.7009 815.093 96.352 814.602 98.9376C813.947 102.407 810.345 104.371 807.103 103.127C804.614 102.211 803.141 99.5268 803.632 96.9411Z" fill="white"/>
</g>
<defs>
<linearGradient id="paint0_linear" x1="711.848" y1="433.075" x2="747.641" y2="433.075" gradientUnits="userSpaceOnUse">
<stop stop-color="#6081F7"/>
<stop offset="0.9962" stop-color="#1D4EBE"/>
</linearGradient>
<linearGradient id="paint1_linear" x1="300.801" y1="305.867" x2="363.524" y2="305.867" gradientUnits="userSpaceOnUse">
<stop stop-color="#ED8A42"/>
<stop offset="1" stop-color="#E96966"/>
</linearGradient>
<linearGradient id="paint2_linear" x1="294.51" y1="240.955" x2="364.25" y2="240.955" gradientUnits="userSpaceOnUse">
<stop stop-color="#ED8A42"/>
<stop offset="1" stop-color="#E96966"/>
</linearGradient>
<linearGradient id="paint3_linear" x1="596.716" y1="452.741" x2="667.087" y2="452.741" gradientUnits="userSpaceOnUse">
<stop stop-color="#ED8A42"/>
<stop offset="1" stop-color="#E96966"/>
</linearGradient>
<linearGradient id="paint4_linear" x1="775.692" y1="103.809" x2="842.239" y2="103.809" gradientUnits="userSpaceOnUse">
<stop stop-color="#ED8A42"/>
<stop offset="1" stop-color="#E96966"/>
</linearGradient>
<clipPath id="clip0">
<rect width="945" height="652" fill="white"/>
</clipPath>
</defs>
</svg>
