<svg width="270" height="324" viewBox="0 0 270 324" fill="none" xmlns="http://www.w3.org/2000/svg">
<rect width="270" height="324" fill="url(#paint0_linear)"/>
<g clip-path="url(#clip0)">
<path d="M202.396 253.129H141.718L145.964 226.952H198.463L202.396 253.129Z" fill="#FAFAFA"/>
<path d="M145.964 226.952L142.776 246.589L200.787 242.357L198.463 226.952H145.964Z" fill="#C5C5C5"/>
<path d="M242.486 144.381C242.486 142.95 241.324 141.803 239.909 141.803H104.206C102.775 141.803 101.628 142.965 101.628 144.381V223.436C101.628 224.866 102.79 226.013 104.206 226.013H239.894C241.324 226.013 242.471 224.866 242.471 223.436V144.381H242.486Z" fill="#373737"/>
<path d="M242.486 221.395V232.122C242.486 235.921 239.402 239.005 235.603 239.005H108.526C104.727 239.005 101.643 235.921 101.643 232.122V221.395H242.486Z" fill="white"/>
<path d="M236.438 147.733H107.662V215.524H236.438V147.733Z" fill="url(#paint1_linear)"/>
<path d="M206.955 259H136.742C135.118 259 133.807 257.689 133.807 256.065C133.807 254.441 135.118 253.129 136.742 253.129H206.955C208.579 253.129 209.89 254.441 209.89 256.065C209.89 257.689 208.579 259 206.955 259Z" fill="#ECECEC"/>
<path opacity="0.3" d="M220.899 215.524H123.215L119.491 141.803H224.624L220.899 215.524Z" fill="#231F20"/>
<path d="M220.989 215.524H123.126V109.934C123.126 107.446 125.152 105.419 127.64 105.419H216.46C218.948 105.419 220.974 107.446 220.974 109.934V215.524H220.989Z" fill="white"/>
<path d="M220.989 118.725V109.293C220.989 107.148 219.246 105.405 217.1 105.405H127.014C124.869 105.405 123.126 107.148 123.126 109.293V118.725H220.989Z" fill="#D1D3D4"/>
<path d="M214.017 128.305H130.604V170.082H214.017V128.305Z" fill="url(#paint2_linear)"/>
<path d="M156.75 176.012H130.679V212.5H156.75V176.012Z" fill="#D1D3D4"/>
<path d="M214.016 176.012H187.946V212.5H214.016V176.012Z" fill="#D1D3D4"/>
<path d="M185.83 176.012H159.759V212.5H185.83V176.012Z" fill="#E6E7E8"/>
<path d="M136.102 112.422C136.102 113.346 135.342 114.106 134.418 114.106C133.494 114.106 132.735 113.346 132.735 112.422C132.735 111.499 133.494 110.739 134.418 110.739C135.342 110.739 136.102 111.499 136.102 112.422Z" fill="white"/>
<path d="M141.718 112.422C141.718 113.346 140.958 114.106 140.034 114.106C139.111 114.106 138.351 113.346 138.351 112.422C138.351 111.499 139.111 110.739 140.034 110.739C140.958 110.739 141.718 111.499 141.718 112.422Z" fill="white"/>
<path d="M147.319 112.422C147.319 113.346 146.56 114.106 145.636 114.106C144.712 114.106 143.953 113.346 143.953 112.422C143.953 111.499 144.712 110.739 145.636 110.739C146.575 110.739 147.319 111.499 147.319 112.422Z" fill="white"/>
<path opacity="0.3" d="M166.031 250.21H159.685V184.043C159.685 183.015 158.85 182.18 157.822 182.18H101.628V221.395V223.436V232.107C101.628 235.906 104.712 238.991 108.511 238.991H143.997L142.761 246.574L141.703 253.115H136.742C135.118 253.115 133.807 254.426 133.807 256.05C133.807 257.674 135.118 258.985 136.742 258.985H152.996C157.882 258.985 162.56 257.048 166.031 253.607V250.21Z" fill="#231F20"/>
<path d="M156.705 250.567H47.922V184.043C47.922 183.015 48.7563 182.18 49.7842 182.18H154.858C155.886 182.18 156.72 183.015 156.72 184.043V250.567H156.705Z" fill="#373737"/>
<path d="M151.133 188.333H53.4937V245.04H151.133V188.333Z" fill="url(#paint3_linear)"/>
<path d="M163.051 253.622H41.5756C45.0318 257.063 49.7246 259 54.611 259H150.031C154.902 259 159.595 257.063 163.051 253.622Z" fill="#D8D8D8"/>
<path d="M163.051 250.209H41.5756V253.621H163.051V250.209Z" fill="#ECECEC"/>
<path d="M109.837 252.847H94.8051C94.2985 252.847 93.8814 252.43 93.8814 251.923C93.8814 251.417 94.2985 251 94.8051 251H109.837C110.343 251 110.761 251.417 110.761 251.923C110.761 252.43 110.343 252.847 109.837 252.847Z" fill="#D8D8D8"/>
<path d="M58.1567 190.717H56.1008V192.773H58.1567V190.717Z" fill="white"/>
<path d="M58.1567 195.589H56.1008V197.645H58.1567V195.589Z" fill="white"/>
<path d="M58.1567 200.461H56.1008V202.518H58.1567V200.461Z" fill="white"/>
<path d="M58.1567 205.318H56.1008V207.374H58.1567V205.318Z" fill="white"/>
<path d="M58.1567 210.19H56.1008V212.247H58.1567V210.19Z" fill="white"/>
<path d="M58.1567 215.062H56.1008V217.119H58.1567V215.062Z" fill="white"/>
<path d="M58.1567 219.935H56.1008V221.991H58.1567V219.935Z" fill="white"/>
<path d="M58.1567 224.792H56.1008V226.848H58.1567V224.792Z" fill="white"/>
<path d="M58.1567 229.664H56.1008V231.72H58.1567V229.664Z" fill="white"/>
<path d="M58.1567 234.536H56.1008V236.592H58.1567V234.536Z" fill="white"/>
<path d="M58.1567 239.393H56.1008V241.449H58.1567V239.393Z" fill="white"/>
<path d="M79.4157 191.224H62.5068V192.252H79.4157V191.224Z" fill="white"/>
<path d="M79.4157 211.725H62.5068V212.753H79.4157V211.725Z" fill="white"/>
<path d="M81.07 212.756H84.5858V211.728H81.07V212.756Z" fill="#FFE836"/>
<path d="M75.3189 194.055H65.9631V195.083H75.3189V194.055Z" fill="#FFE836"/>
<path d="M77.2439 195.068H88.6407V194.04H77.2439V195.068Z" fill="white"/>
<path d="M65.9762 215.577H77.373V214.549H65.9762V215.577Z" fill="white"/>
<path d="M79.4157 233.642H62.5068V234.67H79.4157V233.642Z" fill="white"/>
<path d="M82.8337 234.654H90.8338V233.626H82.8337V234.654Z" fill="white"/>
<path d="M65.9714 237.475H72.3328V236.447H65.9714V237.475Z" fill="#FFE836"/>
<path d="M95.9373 236.458H75.3189V237.486H95.9373V236.458Z" fill="white"/>
<path d="M117.494 241.449H68.9576V242.477H117.494V241.449Z" fill="white"/>
<path d="M118.596 242.476H123.452V241.448H118.596V242.476Z" fill="#FFE836"/>
<path d="M124.615 242.476H143.953V241.448H124.615V242.476Z" fill="white"/>
<path d="M68.7899 199.752H85.6094V198.724H68.7899V199.752Z" fill="white"/>
<path d="M68.7899 221.463H85.6094V220.435H68.7899V221.463Z" fill="white"/>
<path d="M68.9556 224.764H100.941V223.736H68.9556V224.764Z" fill="white"/>
<path d="M110.343 223.734H102.09V224.762H110.343V223.734Z" fill="white"/>
<path d="M111.981 224.764H135.624V223.736H111.981V224.764Z" fill="white"/>
<path d="M68.9684 228.063H77.3707V227.035H68.9684V228.063Z" fill="#FFE836"/>
<path d="M79.4169 228.063H90.2625V227.035H79.4169V228.063Z" fill="white"/>
<path d="M97.1887 220.441H87.2371V221.469H97.1887V220.441Z" fill="white"/>
<path d="M98.8342 221.463H103.601V220.435H98.8342V221.463Z" fill="#FFE836"/>
<path d="M114.902 220.441H105.785V221.469H114.902V220.441Z" fill="white"/>
<path d="M118.601 221.463H147.324V220.435H118.601V221.463Z" fill="white"/>
<path d="M68.7997 203.013H98.6398V201.985H68.7997V203.013Z" fill="white"/>
<path d="M117.464 201.996H100.943V203.024H117.464V201.996Z" fill="white"/>
<path d="M90.8274 198.733H87.7883V199.761H90.8274V198.733Z" fill="#FFE836"/>
<path d="M92.9871 199.752H112.205V198.724H92.9871V199.752Z" fill="white"/>
<path d="M68.788 205.833H79.425V204.805H68.788V205.833Z" fill="white"/>
<path d="M94.671 204.812H81.8589V205.84H94.671V204.812Z" fill="white"/>
<path d="M96.4517 205.833H127.707V204.805H96.4517V205.833Z" fill="white"/>
<path d="M131.617 198.733H114.455V199.761H131.617V198.733Z" fill="white"/>
<path d="M133.262 199.752H146.894V198.724H133.262V199.752Z" fill="white"/>
<path d="M231.431 164.271H246.403C246.731 164.271 246.999 164.54 246.999 164.867V258.404C246.999 258.732 246.731 259 246.403 259H231.431C231.103 259 230.835 258.732 230.835 258.404V164.867C230.835 164.54 231.103 164.271 231.431 164.271Z" fill="url(#paint4_linear)"/>
<path opacity="0.2" d="M232.549 164.271H237.733V258.985H232.549C231.61 258.985 230.835 258.017 230.835 256.84V166.432C230.835 165.24 231.595 164.271 232.549 164.271Z" fill="white"/>
<path d="M230.83 253.67H232.856V252.627H230.83V253.67Z" fill="#414042"/>
<path d="M230.83 249.472H232.856V248.429H230.83V249.472Z" fill="#414042"/>
<path d="M230.83 245.258H232.856V244.215H230.83V245.258Z" fill="#414042"/>
<path d="M230.83 241.06H232.856V240.017H230.83V241.06Z" fill="#414042"/>
<path d="M230.827 236.846H234.88V235.803H230.827V236.846Z" fill="#414042"/>
<path d="M230.83 232.632H232.856V231.589H230.83V232.632Z" fill="#414042"/>
<path d="M230.83 228.434H232.856V227.391H230.83V228.434Z" fill="#414042"/>
<path d="M230.83 224.221H232.856V223.178H230.83V224.221Z" fill="#414042"/>
<path d="M230.83 220.022H232.856V218.979H230.83V220.022Z" fill="#414042"/>
<path d="M230.827 215.808H234.88V214.765H230.827V215.808Z" fill="#414042"/>
<path d="M230.83 211.595H232.856V210.552H230.83V211.595Z" fill="#414042"/>
<path d="M230.83 207.396H232.856V206.353H230.83V207.396Z" fill="#414042"/>
<path d="M230.83 203.183H232.856V202.14H230.83V203.183Z" fill="#414042"/>
<path d="M230.83 198.984H232.856V197.941H230.83V198.984Z" fill="#414042"/>
<path d="M230.827 194.77H234.88V193.727H230.827V194.77Z" fill="#414042"/>
<path d="M230.83 190.558H232.856V189.515H230.83V190.558Z" fill="#414042"/>
<path d="M230.83 186.358H232.856V185.315H230.83V186.358Z" fill="#414042"/>
<path d="M230.83 182.145H232.856V181.102H230.83V182.145Z" fill="#414042"/>
<path d="M230.83 177.946H232.856V176.903H230.83V177.946Z" fill="#414042"/>
<path d="M230.827 173.732H234.88V172.689H230.827V173.732Z" fill="#414042"/>
<path d="M230.83 169.519H232.856V168.476H230.83V169.519Z" fill="#414042"/>
<path d="M91.9149 131.136H27.8101C24.6071 131.136 22 133.743 22 136.946V162.111C22 165.314 24.6071 167.922 27.8101 167.922H75.0209L85.7175 177.621C86.5517 178.381 87.8776 177.785 87.8776 176.668V167.922H91.9C95.103 167.922 97.7101 165.314 97.7101 162.111V136.946C97.7101 133.743 95.1179 131.136 91.9149 131.136Z" fill="url(#paint5_linear)"/>
<path d="M28.8678 140.269C29.3297 140.656 29.5531 141.252 29.5531 142.071C29.5531 142.876 29.3148 143.472 28.8529 143.844C28.3762 144.217 27.6611 144.411 26.6928 144.411H25.8287V146.228H24.3538V139.688H26.663C27.676 139.688 28.406 139.881 28.8678 140.269ZM27.7952 142.846C27.974 142.652 28.0633 142.369 28.0633 141.982C28.0633 141.609 27.9442 141.341 27.7207 141.177C27.4972 141.014 27.1397 140.939 26.663 140.939H25.8287V143.144H26.8119C27.2887 143.144 27.6164 143.04 27.7952 142.846Z" fill="white"/>
<path d="M34.7524 139.688H36.2124V146.228H34.7524V143.651H32.1602V146.228H30.7003V139.688H32.1602V142.414H34.7673V139.688H34.7524Z" fill="white"/>
<path d="M42.3354 140.269C42.7972 140.656 43.0206 141.252 43.0206 142.071C43.0206 142.876 42.7823 143.472 42.3205 143.844C41.8437 144.217 41.1286 144.411 40.1603 144.411H39.2813V146.228H37.8214V139.688H40.1305C41.1435 139.688 41.8735 139.881 42.3354 140.269ZM41.2627 142.846C41.4415 142.652 41.5309 142.369 41.5309 141.982C41.5309 141.609 41.4117 141.341 41.1882 141.177C40.9648 141.014 40.6072 140.939 40.1305 140.939H39.2813V143.144H40.2646C40.7562 143.144 41.0839 143.04 41.2627 142.846Z" fill="white"/>
<path d="M44.2125 146.109C43.989 145.96 43.8847 145.751 43.8847 145.498C43.8847 145.245 43.9741 145.051 44.138 144.887C44.3019 144.723 44.5104 144.649 44.7488 144.649C44.9871 144.649 45.1957 144.723 45.3596 144.887C45.5235 145.036 45.6129 145.23 45.6129 145.439C45.6129 145.647 45.5235 145.9 45.3447 146.198L44.7786 147.167H43.8549L44.2125 146.109Z" fill="white"/>
<path d="M49.9481 144.932C50.6632 144.932 51.2591 144.649 51.706 144.083L52.6446 145.051C51.8997 145.886 51.0207 146.303 50.0226 146.303C49.0095 146.303 48.1901 145.99 47.5346 145.349C46.8791 144.709 46.5514 143.904 46.5514 142.936C46.5514 141.967 46.8791 141.163 47.5495 140.507C48.2199 139.851 49.0244 139.539 49.9928 139.539C51.0654 139.539 51.9593 139.941 52.6892 140.76L51.7805 141.788C51.3187 141.222 50.7376 140.924 50.0524 140.924C49.5011 140.924 49.0393 141.103 48.652 141.461C48.2646 141.818 48.071 142.295 48.071 142.906C48.071 143.517 48.2497 144.008 48.6222 144.366C48.9797 144.753 49.4266 144.932 49.9481 144.932Z" fill="white"/>
<path d="M55.3261 140.984C55.192 141.103 55.1176 141.252 55.1176 141.446C55.1176 141.639 55.2069 141.788 55.3708 141.893C55.5347 142.012 55.9369 142.131 56.5626 142.295C57.1883 142.444 57.6651 142.682 58.0077 142.98C58.3504 143.293 58.5291 143.74 58.5291 144.321C58.5291 144.902 58.3057 145.379 57.8736 145.752C57.4267 146.124 56.8606 146.303 56.1306 146.303C55.0878 146.303 54.1641 145.915 53.3298 145.156L54.1939 144.083C54.8941 144.694 55.5496 145.007 56.1455 145.007C56.4137 145.007 56.6222 144.947 56.7712 144.828C56.9202 144.709 56.9947 144.56 56.9947 144.366C56.9947 144.172 56.9202 144.008 56.7563 143.904C56.5924 143.785 56.2796 143.666 55.788 143.546C55.0282 143.368 54.477 143.129 54.1194 142.846C53.7619 142.563 53.598 142.101 53.598 141.475C53.598 140.85 53.8215 140.373 54.2684 140.045C54.7153 139.702 55.2665 139.539 55.9369 139.539C56.369 139.539 56.8159 139.613 57.2479 139.762C57.68 139.911 58.0673 140.12 58.3951 140.403L57.6502 141.475C57.0841 141.043 56.503 140.835 55.8922 140.835C55.6539 140.82 55.4602 140.879 55.3261 140.984Z" fill="white"/>
<path d="M61.2852 140.984C61.1512 141.103 61.0767 141.252 61.0767 141.446C61.0767 141.639 61.166 141.788 61.3299 141.893C61.4938 142.012 61.896 142.131 62.5217 142.295C63.1474 142.444 63.6242 142.682 63.9668 142.98C64.3095 143.293 64.4882 143.74 64.4882 144.321C64.4882 144.902 64.2648 145.379 63.8327 145.752C63.3858 146.124 62.8197 146.303 62.0897 146.303C61.0469 146.303 60.1232 145.915 59.2889 145.156L60.153 144.083C60.8532 144.694 61.5087 145.007 62.1046 145.007C62.3728 145.007 62.5813 144.947 62.7303 144.828C62.8793 144.709 62.9538 144.56 62.9538 144.366C62.9538 144.172 62.8793 144.008 62.7154 143.904C62.5515 143.785 62.2387 143.666 61.7471 143.546C60.9873 143.368 60.4361 143.129 60.0785 142.846C59.721 142.563 59.5571 142.101 59.5571 141.475C59.5571 140.85 59.7806 140.373 60.2275 140.045C60.6744 139.702 61.2256 139.539 61.896 139.539C62.3281 139.539 62.775 139.613 63.207 139.762C63.6391 139.911 64.0264 140.12 64.3542 140.403L63.6093 141.475C63.0432 141.043 62.4622 140.835 61.8513 140.835C61.6279 140.82 61.4342 140.879 61.2852 140.984Z" fill="white"/>
<path d="M65.7843 146.109C65.5608 145.96 65.4566 145.751 65.4566 145.498C65.4566 145.245 65.5459 145.051 65.7098 144.887C65.8737 144.723 66.0823 144.649 66.3206 144.649C66.559 144.649 66.7676 144.723 66.9314 144.887C67.0953 145.036 67.1847 145.23 67.1847 145.439C67.1847 145.647 67.0953 145.9 66.9165 146.198L66.3504 147.167H65.4268L65.7843 146.109Z" fill="white"/>
<path d="M68.749 140.939V139.688H72.1606V143.949C72.1606 144.723 71.952 145.319 71.5498 145.692C71.1475 146.079 70.6261 146.273 70.0004 146.273C69.2108 146.273 68.5255 145.975 67.9445 145.364L68.7043 144.321C69.0916 144.738 69.5088 144.962 69.9408 144.962C70.1494 144.962 70.3282 144.887 70.4771 144.723C70.6261 144.56 70.7006 144.321 70.7006 144.008V140.939H68.749Z" fill="white"/>
<path d="M78.2835 146.228L77.6727 144.813H74.9315L74.3207 146.228H72.7714L75.6019 139.688H77.0172L79.8478 146.228H78.2835ZM76.3021 141.639L75.4827 143.531H77.1215L76.3021 141.639Z" fill="white"/>
<path d="M82.6038 143.844L84.2724 139.688H85.8515L83.2146 146.228H81.9781L79.3561 139.688H80.9353L82.6038 143.844Z" fill="white"/>
<path d="M90.887 146.228L90.2762 144.813H87.535L86.9242 146.228H85.3748L88.2054 139.688H89.6207L92.4512 146.228H90.887ZM88.9056 141.639L88.0862 143.531H89.7249L88.9056 141.639Z" fill="white"/>
<path d="M93.2408 146.109C93.0173 145.96 92.913 145.751 92.913 145.498C92.913 145.245 93.0024 145.051 93.1663 144.887C93.3302 144.723 93.5387 144.649 93.7771 144.649C94.0155 144.649 94.224 144.723 94.3879 144.887C94.5518 145.036 94.6412 145.23 94.6412 145.439C94.6412 145.647 94.5518 145.9 94.373 146.198L93.8069 147.167H92.8832L93.2408 146.109Z" fill="white"/>
<path d="M50.693 150.921H52.153V157.462H50.693V154.885H48.0859V157.462H46.6259V150.921H48.0859V153.648H50.693V150.921Z" fill="white"/>
<path d="M56.5329 152.173V157.447H55.0729V152.173H53.2256V150.907H58.3951V152.173H56.5329Z" fill="white"/>
<path d="M65.3076 153.335L63.5348 156.911H62.6707L60.9128 153.335V157.447H59.4528V150.907H61.4342L63.1177 154.497L64.816 150.907H66.7825V157.447H65.3225V153.335H65.3076Z" fill="white"/>
<path d="M68.3765 157.462V150.921H69.8365V156.166H72.6224V157.462H68.3765Z" fill="white"/>
<path d="M107.558 128.514L102.895 125.414C102.239 124.982 101.39 124.982 100.749 125.414L96.0863 128.514C95.4904 128.752 94.8498 128.32 94.8498 127.679V107.252H108.779V127.679C108.794 128.32 108.153 128.752 107.558 128.514Z" fill="url(#paint6_linear)"/>
<path opacity="0.3" d="M108.794 107.252H101.822H94.8498V114.747L101.464 111.156C101.733 111.007 102.06 111.007 102.328 111.141L108.779 114.434V107.252H108.794Z" fill="#231F20"/>
<path d="M116.332 116.728L102.343 109.606C102.075 109.472 101.747 109.472 101.479 109.621L87.6691 117.116C86.9838 117.488 86.1793 116.907 86.2985 116.147L88.7566 100.637C88.8013 100.339 88.697 100.026 88.4736 99.8177L77.0917 89.0009C76.5256 88.4646 76.8236 87.5259 77.5833 87.4067L93.0919 84.9484C93.3898 84.9037 93.658 84.71 93.792 84.4269L100.556 70.2578C100.883 69.5575 101.881 69.5426 102.224 70.2429L109.36 84.2332C109.494 84.5014 109.762 84.6951 110.075 84.7398L125.643 86.7959C126.403 86.9001 126.731 87.8388 126.18 88.3752L115.081 99.4899C114.857 99.7134 114.768 100.011 114.828 100.324L117.688 115.775C117.822 116.49 117.032 117.086 116.332 116.728Z" fill="url(#paint7_linear)"/>
<path d="M228.452 185.502H222.285V254.351H228.452V185.502Z" fill="url(#paint8_linear)"/>
<path d="M228.452 255.841H222.285V257.287C222.285 258.24 223.059 259 223.998 259H226.739C227.693 259 228.452 258.225 228.452 257.287V255.841Z" fill="#FF5722"/>
<path d="M228.452 254.352H222.285V255.827H228.452V254.352Z" fill="#212121"/>
<path d="M225.115 178.366L222.285 185.517H228.452L225.622 178.366C225.532 178.127 225.205 178.127 225.115 178.366Z" fill="#F1F2F2"/>
<path d="M225.294 177.919L224.534 179.841H226.203L225.443 177.919C225.413 177.859 225.324 177.859 225.294 177.919Z" fill="#212121"/>
<path d="M194.813 93.4704L189.897 88.4047C189.554 88.0471 189.554 87.466 189.912 87.1233C190.27 86.7807 190.851 86.7807 191.193 87.1382L194.798 90.863L199.059 86.4678L203.32 90.863L207.581 86.4678L211.841 90.863L216.102 86.4678L220.363 90.863L224.624 86.4678L228.884 90.863L233.16 86.4678L238.076 91.5335C238.419 91.8911 238.419 92.4721 238.061 92.8148C237.704 93.1724 237.123 93.1575 236.78 92.7999L233.16 89.0751L228.884 93.4704L224.624 89.0751L220.363 93.4704L216.102 89.0751L211.841 93.4704L207.581 89.0751L203.32 93.4704L199.059 89.0751L194.813 93.4704Z" fill="url(#paint9_linear)"/>
<path d="M27.3483 120.721L22.432 115.655C22.0894 115.298 22.0894 114.717 22.4469 114.374C22.8045 114.031 23.3855 114.031 23.7281 114.389L27.3334 118.114L31.5941 113.718L35.8549 118.114L40.1156 113.718L44.3763 118.114L48.6371 113.718L52.8978 118.114L57.1586 113.718L61.4193 118.114L65.695 113.718L70.6112 118.784C70.9538 119.142 70.9538 119.723 70.5963 120.065C70.2388 120.423 69.6577 120.408 69.3151 120.05L65.695 116.326L61.4193 120.721L57.1586 116.326L52.8978 120.721L48.6371 116.326L44.3763 120.721L40.1156 116.326L35.8549 120.721L31.5941 116.326L27.3483 120.721Z" fill="url(#paint10_linear)"/>
<path d="M147.319 69.7061C145.74 69.7061 144.459 68.4248 144.459 66.8455C144.459 65.2662 145.74 63.9849 147.319 63.9849C148.899 63.9849 150.18 65.2662 150.18 66.8455C150.18 68.4248 148.899 69.7061 147.319 69.7061ZM147.319 65.0278C146.306 65.0278 145.487 65.8473 145.487 66.8604C145.487 67.8735 146.306 68.693 147.319 68.693C148.333 68.693 149.152 67.8735 149.152 66.8604C149.152 65.8473 148.333 65.0278 147.319 65.0278Z" fill="white"/>
<path d="M81.7249 123.031C80.9353 123.031 80.2947 122.39 80.2947 121.6C80.2947 120.811 80.9353 120.17 81.7249 120.17C82.5145 120.17 83.1551 120.811 83.1551 121.6C83.1551 122.39 82.5145 123.031 81.7249 123.031ZM81.7249 120.676C81.2184 120.676 80.8013 121.094 80.8013 121.6C80.8013 122.107 81.2184 122.524 81.7249 122.524C82.2314 122.524 82.6486 122.107 82.6486 121.6C82.6486 121.094 82.2314 120.676 81.7249 120.676Z" fill="white"/>
<path d="M178.143 96.4949C177.353 96.4949 176.713 95.8543 176.713 95.0646C176.713 94.2749 177.353 93.6343 178.143 93.6343C178.932 93.6343 179.573 94.2749 179.573 95.0646C179.573 95.8543 178.932 96.4949 178.143 96.4949ZM178.143 94.1408C177.636 94.1408 177.219 94.558 177.219 95.0646C177.219 95.5712 177.636 95.9883 178.143 95.9883C178.649 95.9883 179.066 95.5712 179.066 95.0646C179.052 94.558 178.649 94.1408 178.143 94.1408Z" fill="white"/>
<path d="M163.111 96.361H156.407L159.759 90.5503L163.111 96.361ZM158.672 95.0647H160.847L159.759 93.1874L158.672 95.0647Z" fill="white"/>
<path d="M136.101 85.2613L131.275 76.9028H140.928L136.101 85.2613ZM136.101 81.4918L137.666 78.7801H134.537L136.101 81.4918Z" fill="white"/>
<path d="M69.8514 103.14L66.4995 97.3442H73.2034L69.8514 103.14ZM69.8514 100.518L70.939 98.6405H68.7639L69.8514 100.518Z" fill="white"/>
<path d="M170.888 81.6257L166.806 77.4093C166.567 77.156 166.567 76.7686 166.821 76.5153C167.074 76.2769 167.461 76.2769 167.714 76.5302L170.888 79.808L174.508 76.0684L178.128 79.808L181.763 76.0684L185.398 79.808L188.571 76.5302C188.81 76.2769 189.212 76.2769 189.465 76.5153C189.718 76.7537 189.718 77.156 189.48 77.4093L185.398 81.6108L181.763 77.8712L178.128 81.6108L174.508 77.8712L170.888 81.6257Z" fill="white"/>
</g>
<defs>
<linearGradient id="paint0_linear" x1="0.174435" y1="161.885" x2="270.105" y2="161.885" gradientUnits="userSpaceOnUse">
<stop stop-color="#ED8A42"/>
<stop offset="1" stop-color="#E96966"/>
</linearGradient>
<linearGradient id="paint1_linear" x1="107.666" y1="181.63" x2="236.445" y2="181.63" gradientUnits="userSpaceOnUse">
<stop stop-color="#7C4DFF"/>
<stop offset="0.00456947" stop-color="#7D4DFF"/>
<stop offset="0.3159" stop-color="#A747FD"/>
<stop offset="0.5965" stop-color="#C643FC"/>
<stop offset="0.8341" stop-color="#D941FB"/>
<stop offset="1" stop-color="#E040FB"/>
</linearGradient>
<linearGradient id="paint2_linear" x1="130.607" y1="149.193" x2="214.024" y2="149.193" gradientUnits="userSpaceOnUse">
<stop stop-color="#6081F7"/>
<stop offset="0.9962" stop-color="#1D4EBE"/>
</linearGradient>
<linearGradient id="paint3_linear" x1="53.5568" y1="216.667" x2="151.171" y2="216.667" gradientUnits="userSpaceOnUse">
<stop stop-color="#ED8A42"/>
<stop offset="1" stop-color="#E96966"/>
</linearGradient>
<linearGradient id="paint4_linear" x1="230.834" y1="211.638" x2="246.993" y2="211.638" gradientUnits="userSpaceOnUse">
<stop stop-color="#FFC107"/>
<stop offset="0.7391" stop-color="#FFA402"/>
<stop offset="1" stop-color="#FF9800"/>
</linearGradient>
<linearGradient id="paint5_linear" x1="21.3996" y1="169.632" x2="99.3662" y2="136.363" gradientUnits="userSpaceOnUse">
<stop stop-color="#0AA4F5"/>
<stop offset="0.1697" stop-color="#27BBDF"/>
<stop offset="0.3816" stop-color="#44D2CA"/>
<stop offset="0.5926" stop-color="#58E3BA"/>
<stop offset="0.8" stop-color="#65EDB1"/>
<stop offset="1" stop-color="#69F0AE"/>
</linearGradient>
<linearGradient id="paint6_linear" x1="101.076" y1="102.005" x2="102.318" y2="127.582" gradientUnits="userSpaceOnUse">
<stop stop-color="#BE1E2D"/>
<stop offset="0.5865" stop-color="#E74226"/>
<stop offset="1" stop-color="#FF5722"/>
</linearGradient>
<linearGradient id="paint7_linear" x1="76.7994" y1="93.4631" x2="126.495" y2="93.4631" gradientUnits="userSpaceOnUse">
<stop offset="0.0001" stop-color="#ED8746"/>
<stop offset="1" stop-color="#FFD600"/>
</linearGradient>
<linearGradient id="paint8_linear" x1="222.281" y1="219.932" x2="228.453" y2="219.932" gradientUnits="userSpaceOnUse">
<stop offset="0.4016" stop-color="#FFC107"/>
<stop offset="0.8439" stop-color="#FFA402"/>
<stop offset="1" stop-color="#FF9800"/>
</linearGradient>
<linearGradient id="paint9_linear" x1="189.649" y1="89.9616" x2="238.376" y2="89.9616" gradientUnits="userSpaceOnUse">
<stop stop-color="#E040FB"/>
<stop offset="0.0543" stop-color="#D840F7"/>
<stop offset="0.5003" stop-color="#9B3DD4"/>
<stop offset="0.828" stop-color="#753BBF"/>
<stop offset="1" stop-color="#673AB7"/>
</linearGradient>
<linearGradient id="paint10_linear" x1="22.1844" y1="117.221" x2="70.9114" y2="117.221" gradientUnits="userSpaceOnUse">
<stop stop-color="#E040FB"/>
<stop offset="0.0543" stop-color="#D840F7"/>
<stop offset="0.5003" stop-color="#9B3DD4"/>
<stop offset="0.828" stop-color="#753BBF"/>
<stop offset="1" stop-color="#673AB7"/>
</linearGradient>
<clipPath id="clip0">
<rect width="225" height="195" fill="white" transform="translate(22 64)"/>
</clipPath>
</defs>
</svg>
