<svg width="270" height="324" viewBox="0 0 270 324" fill="none" xmlns="http://www.w3.org/2000/svg">
<rect width="270" height="324" fill="url(#paint0_linear)"/>
<g clip-path="url(#clip0)">
<path d="M171.845 254.824H96.2547C94.1008 254.824 92.36 253.092 92.36 250.949V116.933C92.36 114.79 94.1008 113.059 96.2547 113.059H171.845C173.999 113.059 175.74 114.79 175.74 116.933V250.949C175.74 253.092 173.999 254.824 171.845 254.824Z" fill="#132652"/>
<path d="M167.921 130.084H100.193V232.764H167.921V130.084Z" fill="white"/>
<path d="M146.56 123.362H121.555C121.083 123.362 120.714 122.98 120.714 122.525C120.714 122.055 121.098 121.688 121.555 121.688H146.56C147.032 121.688 147.401 122.07 147.401 122.525C147.401 122.98 147.017 123.362 146.56 123.362Z" fill="#0D1C3E"/>
<path d="M132.472 208.988C145.67 208.988 156.37 198.342 156.37 185.211C156.37 172.079 145.67 161.434 132.472 161.434C119.273 161.434 108.573 172.079 108.573 185.211C108.573 198.342 119.273 208.988 132.472 208.988Z" fill="url(#paint1_linear)"/>
<path d="M128.606 196.997L118.457 186.899L124.255 181.131L128.606 185.46L140.689 173.425L146.486 179.208L128.606 196.997Z" fill="white"/>
<path d="M105.814 101.669L100.577 99.0127C100.474 98.954 100.356 98.9686 100.253 99.0127L95.0892 101.801C94.8385 101.933 94.5287 101.728 94.5729 101.449L95.4876 95.681C95.5023 95.5636 95.4728 95.4608 95.3843 95.3728L91.1209 91.3513C90.9143 91.1605 91.0176 90.8082 91.3127 90.7642L97.1103 89.8542C97.2283 89.8395 97.3168 89.7661 97.3759 89.6634L99.9132 84.3943C100.031 84.1302 100.4 84.1302 100.533 84.3797L103.203 89.59C103.262 89.6928 103.351 89.7661 103.469 89.7808L109.296 90.544C109.576 90.5881 109.694 90.9256 109.502 91.1311L105.342 95.27C105.254 95.3581 105.224 95.4608 105.239 95.5782L106.301 101.332C106.375 101.581 106.08 101.801 105.814 101.669Z" fill="url(#paint2_linear)"/>
<path d="M126.984 101.669L121.747 99.0127C121.643 98.954 121.525 98.9686 121.422 99.0127L116.259 101.801C116.008 101.933 115.698 101.728 115.742 101.449L116.657 95.681C116.672 95.5636 116.642 95.4608 116.554 95.3728L112.29 91.3513C112.084 91.1605 112.187 90.8082 112.482 90.7642L118.28 89.8542C118.398 89.8395 118.486 89.7661 118.545 89.6634L121.083 84.3943C121.201 84.1302 121.57 84.1302 121.702 84.3797L124.373 89.59C124.432 89.6928 124.52 89.7661 124.638 89.7808L130.465 90.544C130.746 90.5881 130.864 90.9256 130.672 91.1311L126.512 95.27C126.423 95.3581 126.394 95.4608 126.408 95.5782L127.471 101.332C127.53 101.581 127.235 101.801 126.984 101.669Z" fill="url(#paint3_linear)"/>
<path d="M148.139 101.669L142.901 99.0127C142.798 98.954 142.68 98.9686 142.577 99.0127L137.414 101.801C137.163 101.933 136.853 101.728 136.897 101.449L137.812 95.681C137.827 95.5636 137.797 95.4608 137.709 95.3728L133.445 91.3513C133.239 91.1605 133.342 90.8082 133.637 90.7642L139.435 89.8542C139.553 89.8395 139.641 89.7661 139.7 89.6634L142.238 84.3943C142.356 84.1302 142.724 84.1302 142.857 84.3797L145.527 89.59C145.586 89.6928 145.675 89.7661 145.793 89.7808L151.62 90.544C151.9 90.5881 152.018 90.9256 151.827 91.1311L147.666 95.27C147.578 95.3581 147.548 95.4608 147.563 95.5782L148.625 101.332C148.699 101.581 148.404 101.801 148.139 101.669Z" fill="url(#paint4_linear)"/>
<path d="M169.308 101.669L164.071 99.0127C163.968 98.954 163.85 98.9686 163.746 99.0127L158.583 101.801C158.332 101.933 158.023 101.728 158.067 101.449L158.981 95.681C158.996 95.5636 158.967 95.4608 158.878 95.3728L154.615 91.3513C154.408 91.1605 154.511 90.8082 154.807 90.7642L160.604 89.8542C160.722 89.8395 160.811 89.7661 160.87 89.6634L163.407 84.3943C163.525 84.1302 163.894 84.1302 164.027 84.3797L166.697 89.59C166.756 89.6928 166.844 89.7661 166.962 89.7808L172.79 90.544C173.07 90.5881 173.188 90.9256 172.996 91.1311L168.836 95.27C168.747 95.3581 168.718 95.4608 168.733 95.5782L169.795 101.332C169.854 101.581 169.559 101.801 169.308 101.669Z" fill="url(#paint5_linear)"/>
<path opacity="0.3" d="M175.061 113.602H155.765C152.077 113.602 149.097 116.566 149.097 120.236V149.252C149.097 152.921 152.077 155.886 155.765 155.886H158.834V162.652V171.635C158.834 172.339 159.719 172.647 160.162 172.119L175.061 157.809V113.602Z" fill="#231F20"/>
<path d="M149.097 118.225V147.241C149.097 150.911 152.077 153.875 155.765 153.875H158.834V160.641V169.624C158.834 170.328 159.719 170.636 160.162 170.108L177.068 153.875H211.868C215.557 153.875 218.537 150.911 218.537 147.241V118.225C218.537 114.556 215.557 111.591 211.868 111.591H155.765C152.077 111.591 149.097 114.556 149.097 118.225Z" fill="url(#paint6_linear)"/>
<path d="M194.416 134.443L181.198 142.031C179.679 142.912 177.761 141.811 177.761 140.064V124.888C177.761 123.142 179.664 122.041 181.198 122.921L194.416 130.51C195.951 131.375 195.951 133.577 194.416 134.443L181.198 142.031C179.679 142.912 177.761 141.811 177.761 140.064V124.888C177.761 123.142 179.664 122.041 181.198 122.921L194.416 130.51C195.951 131.375 195.951 133.577 194.416 134.443Z" fill="white"/>
<path opacity="0.3" d="M115.477 252.857V218.322C115.477 216.311 115.167 215.093 114.887 214.374C114.651 213.068 113.78 211.996 112.6 211.482L109.31 208.782V208.752L106.36 206.36L103.587 204.071V182.026C103.587 179.751 101.728 177.901 99.4412 177.901H92.3748V251.286C92.3748 253.239 93.9681 254.824 95.9301 254.824H113.648L113.559 254.75C114.43 254.545 115.477 254.369 115.477 252.857Z" fill="#231F20"/>
<path d="M48.0146 254.604H106.965C110.269 254.604 112.94 251.947 112.94 248.659V215.401C112.94 213.053 111.022 211.145 108.661 211.145H46.6722C44.2971 211.145 42.3645 213.068 42.3645 215.431V248.997C42.3645 252.094 44.8871 254.604 48.0146 254.604Z" fill="#FFA000"/>
<path d="M43.1611 212.715L72.71 188.762C75.7637 186.546 79.9091 186.546 82.9628 188.762L110.904 211.747L43.1611 212.715Z" fill="#FFA000"/>
<g opacity="0.2">
<g opacity="0.2">
<path opacity="0.2" d="M93.9828 242.73H52.3223L46.5984 209.912L52.8091 204.893L93.9828 210.132V242.73Z" fill="#231F20"/>
</g>
</g>
<g opacity="0.2">
<g opacity="0.2">
<path opacity="0.2" d="M59.905 241.541H101.58L107.289 208.738L101.093 203.704L59.905 208.943V241.541Z" fill="#231F20"/>
</g>
</g>
<path d="M62.9292 177.887L52.5878 187.882V242.715H101.551V182.026C101.551 179.751 99.6919 177.901 97.4053 177.901H62.9292V177.887Z" fill="white"/>
<g opacity="0.35">
<g opacity="0.35">
<path opacity="0.35" d="M62.3244 186.84L52.6026 197.906V187.882L62.3244 186.84Z" fill="#231F20"/>
</g>
</g>
<path d="M62.9292 177.887L52.5878 187.882H60.1705C61.69 187.882 62.9292 186.649 62.9292 185.137V177.887Z" fill="url(#paint7_linear)"/>
<path d="M44.4003 254.78C44.4003 254.78 71.6626 235.861 71.6626 234.144L43.1611 212.715C43.1611 212.715 42.3645 214.667 42.3645 218.322V252.857C42.3645 254.442 43.5299 254.56 44.4003 254.78Z" fill="url(#paint8_linear)"/>
<path d="M111.405 254.78C111.405 254.78 84.7479 235.465 84.7479 233.747L112.423 213.522C112.423 213.522 113.456 214.667 113.456 218.322V252.857C113.456 254.442 112.29 254.559 111.405 254.78Z" fill="url(#paint9_linear)"/>
<path d="M44.1201 254.824L72.8133 231.355C75.8375 229.154 79.9386 229.154 82.9481 231.355L111.627 254.824H44.1201Z" fill="#FFA000"/>
<path d="M83.7005 217.691C81.6794 218.748 79.6141 219.159 77.1357 219.159C71.0872 219.159 65.9682 214.755 65.9682 207.725C65.9682 200.181 71.2348 193.65 79.4223 193.65C85.8396 193.65 90.1472 198.126 90.1472 204.247C90.1472 209.751 87.0492 212.965 83.5824 212.965C82.1072 212.965 80.75 211.967 80.8533 209.736H80.7058C79.4223 211.893 77.7258 212.965 75.5129 212.965C73.3739 212.965 71.5298 211.248 71.5298 208.342C71.5298 203.792 75.1441 199.653 80.2632 199.653C81.8417 199.653 83.2431 199.976 84.202 200.416L82.9481 207.05C82.4023 209.839 82.8448 211.116 84.0545 211.16C85.9281 211.189 88.0376 208.709 88.0376 204.452C88.0376 199.139 84.8364 195.323 79.1273 195.323C73.1231 195.323 68.0778 200.049 68.0778 207.49C68.0778 213.611 72.0904 217.383 77.5488 217.383C79.6436 217.383 81.6056 216.942 83.1104 216.106L83.7005 217.691ZM81.6647 201.854C81.2958 201.737 80.6762 201.605 79.8206 201.605C76.5751 201.605 73.964 204.643 73.964 208.195C73.964 209.809 74.7753 210.983 76.3981 210.983C78.5372 210.983 80.4845 208.268 80.8975 205.993L81.6647 201.854Z" fill="#673AB7"/>
<path opacity="0.3" d="M101.285 163.327L114.651 165.764L111.936 151.145C113.485 147.696 114.37 143.88 114.37 139.859C114.37 127.339 106.021 116.772 94.5729 113.337C93.2895 113.866 92.3748 115.128 92.3748 116.61V166.953C95.5761 166.248 98.5855 165.015 101.285 163.327Z" fill="#231F20"/>
<path d="M114.636 163.753L111.922 149.135C113.471 145.685 114.356 141.869 114.356 137.848C114.356 122.54 101.89 110.138 86.5034 110.138C71.1168 110.138 58.6511 122.54 58.6511 137.848C58.6511 153.156 71.1168 165.558 86.5034 165.558C91.9323 165.558 96.9923 163.988 101.27 161.316L114.636 163.753Z" fill="url(#paint10_linear)"/>
<path d="M99.7657 135.382C99.7657 131.17 96.3432 127.765 92.1093 127.765C89.9702 127.765 88.0376 128.645 86.6509 130.054C85.2642 128.645 83.3317 127.765 81.1926 127.765C76.9587 127.765 73.5361 131.17 73.5361 135.382C73.5361 137.437 74.3475 139.286 75.6752 140.651L86.6214 151.483L97.8332 140.416C97.9512 140.269 98.2757 139.873 98.2757 139.873C99.2051 138.626 99.7657 137.07 99.7657 135.382Z" fill="white"/>
<path opacity="0.3" d="M173.793 240.044V254.413C174.943 253.826 175.74 252.652 175.74 251.272V240.044H173.793Z" fill="#231F20"/>
<path opacity="0.3" d="M146.634 206.258C146.634 222.96 159.409 236.742 175.74 238.488V174.012C159.394 175.759 146.634 189.54 146.634 206.258Z" fill="#231F20"/>
<path d="M184.65 231.634H179.207V242.172H184.65V231.634Z" fill="#231F20"/>
<path d="M187.38 240.044H176.492V255H187.38V240.044Z" fill="#132652"/>
<path d="M181.936 173.821C163.968 173.821 149.333 188.366 149.333 206.258C149.333 224.134 163.953 238.694 181.936 238.694C199.904 238.694 214.539 224.149 214.539 206.258C214.524 188.366 199.904 173.821 181.936 173.821ZM181.936 231.84C167.759 231.84 156.223 220.362 156.223 206.258C156.223 192.153 167.759 180.675 181.936 180.675C196.113 180.675 207.649 192.153 207.649 206.258C207.649 220.362 196.113 231.84 181.936 231.84Z" fill="url(#paint11_linear)"/>
<path d="M181.936 173.821C163.968 173.821 149.333 188.366 149.333 206.258C149.333 224.134 163.953 238.694 181.936 238.694C199.904 238.694 214.539 224.149 214.539 206.258C214.524 188.366 199.904 173.821 181.936 173.821ZM181.936 231.84C167.759 231.84 156.223 220.362 156.223 206.258C156.223 192.153 167.759 180.675 181.936 180.675C196.113 180.675 207.649 192.153 207.649 206.258C207.649 220.362 196.113 231.84 181.936 231.84Z" fill="url(#paint12_linear)"/>
<path d="M207.841 206.258C207.841 192.036 196.216 180.47 181.921 180.47C167.626 180.47 156.001 192.036 156.001 206.258C156.001 220.48 167.626 232.045 181.921 232.045C196.216 232.031 207.841 220.465 207.841 206.258ZM181.936 229.565C169.013 229.565 158.509 219.1 158.509 206.258C158.509 193.401 169.028 182.951 181.936 182.936C194.859 182.936 205.363 193.401 205.363 206.258C205.363 219.115 194.859 229.565 181.936 229.565Z" fill="#FFCD39"/>
<path d="M167.051 218.528C166.21 217.691 165.458 216.781 164.794 215.812C164.13 214.829 163.555 213.772 163.097 212.701C162.625 211.6 162.271 210.441 162.02 209.252C161.77 208.048 161.652 206.801 161.652 205.553C161.652 204.306 161.784 203.058 162.02 201.854C162.256 200.666 162.625 199.521 163.097 198.405C163.555 197.319 164.13 196.277 164.794 195.294C165.458 194.325 166.21 193.401 167.051 192.579L168.526 194.046C167.789 194.78 167.11 195.587 166.535 196.453C165.945 197.319 165.443 198.259 165.03 199.213C164.617 200.196 164.292 201.223 164.071 202.265C163.85 203.337 163.732 204.438 163.732 205.553C163.732 206.654 163.85 207.769 164.071 208.841C164.292 209.883 164.602 210.91 165.03 211.894C165.443 212.862 165.945 213.787 166.535 214.653C167.125 215.519 167.789 216.326 168.526 217.06L167.051 218.528Z" fill="white"/>
<path d="M206.425 206.36C206.425 219.907 195.39 230.886 181.774 230.886C168.157 230.886 157.123 219.907 157.123 206.36C157.123 192.813 168.157 181.835 181.774 181.835C195.39 181.835 206.425 192.813 206.425 206.36Z" fill="#FF5722"/>
<path d="M200.76 206.36C200.76 216.795 192.263 225.249 181.774 225.249C171.285 225.249 162.788 216.795 162.788 206.36C162.788 195.925 171.285 187.471 181.774 187.471C192.248 187.471 200.76 195.925 200.76 206.36Z" fill="white"/>
<path d="M193.915 206.36C193.915 213.039 188.471 218.44 181.774 218.44C175.061 218.44 169.633 213.024 169.633 206.36C169.633 199.697 175.076 194.281 181.774 194.281C188.471 194.267 193.915 199.682 193.915 206.36Z" fill="#FF5722"/>
<path d="M188.604 206.36C188.604 210.118 185.55 213.156 181.774 213.156C177.997 213.156 174.943 210.118 174.943 206.36C174.943 202.603 177.997 199.565 181.774 199.565C185.536 199.565 188.604 202.603 188.604 206.36Z" fill="white"/>
<path d="M182.438 188.425H181.198V192.035H182.438V188.425Z" fill="#414042"/>
<path d="M185.719 188.907L184.784 192.396L185.981 192.713L186.916 189.225L185.719 188.907Z" fill="#414042"/>
<path d="M189.955 190.552L188.14 193.678L189.213 194.295L191.028 191.169L189.955 190.552Z" fill="#414042"/>
<path d="M193.614 193.049L191.08 195.633L191.967 196.494L194.501 193.91L193.614 193.049Z" fill="#414042"/>
<path d="M196.484 196.771L193.342 198.577L193.962 199.645L197.104 197.838L196.484 196.771Z" fill="#414042"/>
<path d="M198.283 200.91L194.778 201.848L195.1 203.039L198.605 202.1L198.283 200.91Z" fill="#414042"/>
<path d="M198.99 205.392H195.361V206.624H198.99V205.392Z" fill="#414042"/>
<path d="M194.978 208.957L194.658 210.148L198.164 211.079L198.484 209.888L194.978 208.957Z" fill="#414042"/>
<path d="M193.682 212.304L193.063 213.372L196.208 215.174L196.826 214.106L193.682 212.304Z" fill="#414042"/>
<path d="M191.566 215.218L190.691 216.091L193.26 218.641L194.135 217.768L191.566 215.218Z" fill="#414042"/>
<path d="M188.787 217.467L187.715 218.085L189.535 221.209L190.607 220.591L188.787 217.467Z" fill="#414042"/>
<path d="M185.479 218.924L184.282 219.245L185.227 222.731L186.424 222.41L185.479 218.924Z" fill="#414042"/>
<path d="M181.933 219.48L180.694 219.482L180.7 223.093L181.939 223.091L181.933 219.48Z" fill="#414042"/>
<path d="M177.153 218.787L176.217 222.276L177.414 222.594L178.35 219.105L177.153 218.787Z" fill="#414042"/>
<path d="M173.91 217.218L172.103 220.349L173.178 220.963L174.984 217.831L173.91 217.218Z" fill="#414042"/>
<path d="M171.196 214.849L168.636 217.408L169.515 218.278L172.074 215.718L171.196 214.849Z" fill="#414042"/>
<path d="M169.173 211.869L166.034 213.68L166.655 214.747L169.795 212.935L169.173 211.869Z" fill="#414042"/>
<path d="M164.823 210.616L164.499 209.428L167.995 208.488L168.334 209.677L164.823 210.616Z" fill="#414042"/>
<path d="M167.758 204.903L164.129 204.911L164.132 206.144L167.761 206.136L167.758 204.903Z" fill="#414042"/>
<path d="M164.951 200.454L164.633 201.646L168.141 202.572L168.458 201.38L164.951 200.454Z" fill="#414042"/>
<path d="M166.886 196.371L166.269 197.44L169.417 199.237L170.034 198.167L166.886 196.371Z" fill="#414042"/>
<path d="M169.82 192.917L168.946 193.791L171.519 196.337L172.393 195.463L169.82 192.917Z" fill="#414042"/>
<path d="M173.571 190.319L172.5 190.938L174.323 194.06L175.395 193.441L173.571 190.319Z" fill="#414042"/>
<path d="M177.837 188.796L176.641 189.119L177.592 192.603L178.788 192.28L177.837 188.796Z" fill="#414042"/>
<path d="M183.205 213.963H177.85C176.625 213.963 175.622 212.965 175.622 211.747V210.602H178.794V210.793H183.205C184.046 210.793 184.739 210.103 184.739 209.266C184.739 208.723 184.296 208.268 183.736 208.268H179.797C177.496 208.268 175.622 206.404 175.622 204.115V203.542C175.622 200.959 177.732 198.846 180.343 198.846H185.698C186.922 198.846 187.926 199.844 187.926 201.062V202.354H184.754V202.001H180.343C179.502 202.001 178.809 202.691 178.809 203.528V204.1C178.809 204.643 179.251 205.098 179.812 205.098H183.751C186.052 205.098 187.926 206.962 187.926 209.252C187.911 211.85 185.801 213.963 183.205 213.963Z" fill="#212121"/>
<path d="M183.352 197.319H180.181V215.944H183.352V197.319Z" fill="#212121"/>
<path d="M25.119 115.04L20.2508 110.05C19.9115 109.697 19.9115 109.125 20.2655 108.787C20.6196 108.45 21.1949 108.45 21.5342 108.802L25.1043 112.471L29.3234 108.142L33.5426 112.471L37.7618 108.142L41.9809 112.471L46.2001 108.142L50.4192 112.471L54.6384 108.142L58.8576 112.471L63.0915 108.142L67.9597 113.132C68.299 113.484 68.299 114.056 67.945 114.394C67.5909 114.746 67.0156 114.732 66.6763 114.379L63.0915 110.71L58.8576 115.04L54.6679 110.71L50.4487 115.04L46.2296 110.71L42.0104 115.04L37.7913 110.71L33.5721 115.04L29.3382 110.71L25.119 115.04Z" fill="url(#paint13_linear)"/>
<path d="M205.879 170.974L201.011 165.984C200.671 165.631 200.671 165.059 201.026 164.721C201.38 164.384 201.955 164.384 202.294 164.736L205.864 168.405L210.083 164.076L214.303 168.405L218.522 164.076L222.741 168.405L226.96 164.076L231.179 168.405L235.398 164.076L239.618 168.405L243.851 164.076L248.72 169.066C249.059 169.418 249.059 169.991 248.705 170.328C248.351 170.68 247.776 170.666 247.436 170.313L243.851 166.644L239.618 170.974L235.398 166.644L231.179 170.974L226.96 166.644L222.741 170.974L218.522 166.644L214.303 170.974L210.083 166.644L205.879 170.974Z" fill="url(#paint14_linear)"/>
<path d="M45.3592 138.846C44.2085 138.846 43.2791 137.921 43.2791 136.776C43.2791 135.632 44.2085 134.707 45.3592 134.707C46.5099 134.707 47.4393 135.632 47.4393 136.776C47.4393 137.921 46.5099 138.846 45.3592 138.846ZM45.3592 135.456C44.6216 135.456 44.0315 136.057 44.0315 136.776C44.0315 137.496 44.6363 138.097 45.3592 138.097C46.0821 138.097 46.6869 137.496 46.6869 136.776C46.6869 136.057 46.0968 135.456 45.3592 135.456Z" fill="white"/>
<path d="M76.4275 102.682C74.5097 102.682 72.9608 101.141 72.9608 99.2328C72.9608 97.3248 74.5097 95.7837 76.4275 95.7837C78.3306 95.7837 79.8943 97.3248 79.8943 99.2328C79.8943 101.126 78.3453 102.682 76.4275 102.682ZM76.4275 97.0166C75.2031 97.0166 74.1999 98.0146 74.1999 99.2328C74.1999 100.451 75.2031 101.449 76.4275 101.449C77.652 101.449 78.6551 100.451 78.6551 99.2328C78.6551 98.0146 77.652 97.0166 76.4275 97.0166Z" fill="white"/>
<path d="M189.593 163.914C188.221 163.914 187.114 162.799 187.114 161.449C187.114 160.084 188.221 158.983 189.593 158.983C190.964 158.983 192.071 160.098 192.071 161.449C192.071 162.799 190.95 163.914 189.593 163.914ZM189.593 159.849C188.707 159.849 187.999 160.553 187.999 161.434C187.999 162.315 188.707 163.019 189.593 163.019C190.478 163.019 191.186 162.315 191.186 161.434C191.186 160.553 190.463 159.849 189.593 159.849Z" fill="white"/>
<path d="M52.6026 158.719L47.631 150.147H57.5741L52.6026 158.719ZM52.6026 154.859L54.2106 152.085H50.9798L52.6026 154.859Z" fill="white"/>
<path d="M193.074 101.302L188.103 92.731H198.046L193.074 101.302ZM193.074 97.4423L194.682 94.6683H191.451L193.074 97.4423Z" fill="white"/>
<path d="M49.7554 173.234H43.1169L46.4361 167.51L49.7554 173.234ZM45.3592 171.943H47.5131L46.4361 170.093L45.3592 171.943Z" fill="white"/>
<path d="M117.955 73.724H111.317L114.636 68L117.955 73.724ZM113.559 72.4325H115.713L114.636 70.5832L113.559 72.4325Z" fill="white"/>
<path d="M156.931 80.681L152.712 76.366C152.461 76.1165 152.461 75.7055 152.726 75.456C152.977 75.2065 153.39 75.2212 153.641 75.4707L156.916 78.8317L160.663 74.9863L164.41 78.8317L168.157 74.9863L171.904 78.8317L175.194 75.4707C175.445 75.2212 175.858 75.2065 176.109 75.456C176.36 75.7055 176.374 76.1165 176.124 76.366L171.904 80.6957L168.157 76.8503L164.425 80.681L160.678 76.8356L156.931 80.681Z" fill="white"/>
</g>
<defs>
<linearGradient id="paint0_linear" x1="0.0098029" y1="161.994" x2="270.024" y2="161.994" gradientUnits="userSpaceOnUse">
<stop stop-color="#6081F7"/>
<stop offset="0.9962" stop-color="#1D4EBE"/>
</linearGradient>
<linearGradient id="paint1_linear" x1="108.575" y1="185.21" x2="156.375" y2="185.21" gradientUnits="userSpaceOnUse">
<stop stop-color="#6081F7"/>
<stop offset="0.9962" stop-color="#1D4EBE"/>
</linearGradient>
<linearGradient id="paint2_linear" x1="91.0135" y1="93.0127" x2="109.611" y2="93.0127" gradientUnits="userSpaceOnUse">
<stop offset="0.0001" stop-color="#ED8746"/>
<stop offset="1" stop-color="#FFD600"/>
</linearGradient>
<linearGradient id="paint3_linear" x1="112.183" y1="93.0127" x2="130.781" y2="93.0127" gradientUnits="userSpaceOnUse">
<stop offset="0.0001" stop-color="#ED8746"/>
<stop offset="1" stop-color="#FFD600"/>
</linearGradient>
<linearGradient id="paint4_linear" x1="133.338" y1="93.0127" x2="151.936" y2="93.0127" gradientUnits="userSpaceOnUse">
<stop offset="0.0001" stop-color="#ED8746"/>
<stop offset="1" stop-color="#FFD600"/>
</linearGradient>
<linearGradient id="paint5_linear" x1="154.507" y1="93.0127" x2="173.105" y2="93.0127" gradientUnits="userSpaceOnUse">
<stop offset="0.0001" stop-color="#ED8746"/>
<stop offset="1" stop-color="#FFD600"/>
</linearGradient>
<linearGradient id="paint6_linear" x1="145.961" y1="155.224" x2="218.753" y2="111.528" gradientUnits="userSpaceOnUse">
<stop stop-color="#BE1E2D"/>
<stop offset="0.5865" stop-color="#E74226"/>
<stop offset="1" stop-color="#FF5722"/>
</linearGradient>
<linearGradient id="paint7_linear" x1="52.5882" y1="182.884" x2="62.9301" y2="182.884" gradientUnits="userSpaceOnUse">
<stop stop-color="#6081F7"/>
<stop offset="0.9962" stop-color="#1D4EBE"/>
</linearGradient>
<linearGradient id="paint8_linear" x1="42.3587" y1="233.746" x2="71.6595" y2="233.746" gradientUnits="userSpaceOnUse">
<stop stop-color="#FF9800"/>
<stop offset="0.3011" stop-color="#FFAA03"/>
<stop offset="0.7032" stop-color="#FFBB06"/>
<stop offset="1" stop-color="#FFC107"/>
</linearGradient>
<linearGradient id="paint9_linear" x1="84.7504" y1="234.15" x2="113.454" y2="234.15" gradientUnits="userSpaceOnUse">
<stop stop-color="#FFC107"/>
<stop offset="0.7391" stop-color="#FFA402"/>
<stop offset="1" stop-color="#FF9800"/>
</linearGradient>
<linearGradient id="paint10_linear" x1="58.6872" y1="137.828" x2="114.658" y2="137.828" gradientUnits="userSpaceOnUse">
<stop stop-color="#ED8A42"/>
<stop offset="1" stop-color="#E96966"/>
</linearGradient>
<linearGradient id="paint11_linear" x1="149.335" y1="206.254" x2="214.531" y2="206.254" gradientUnits="userSpaceOnUse">
<stop stop-color="#FF9800"/>
<stop offset="0.296" stop-color="#FFBE00"/>
<stop offset="0.5766" stop-color="#FFDB00"/>
<stop offset="0.8204" stop-color="#FFEC00"/>
<stop offset="1" stop-color="#FFF200"/>
</linearGradient>
<linearGradient id="paint12_linear" x1="149.336" y1="206.237" x2="214.591" y2="206.237" gradientUnits="userSpaceOnUse">
<stop offset="0.0001" stop-color="#ED8746"/>
<stop offset="1" stop-color="#FFD600"/>
</linearGradient>
<linearGradient id="paint13_linear" x1="20" y1="111.588" x2="68.2514" y2="111.588" gradientUnits="userSpaceOnUse">
<stop offset="0.0001" stop-color="#ED8746"/>
<stop offset="1" stop-color="#FFD600"/>
</linearGradient>
<linearGradient id="paint14_linear" x1="200.76" y1="167.523" x2="249.011" y2="167.523" gradientUnits="userSpaceOnUse">
<stop offset="0.0001" stop-color="#ED8746"/>
<stop offset="1" stop-color="#FFD600"/>
</linearGradient>
<clipPath id="clip0">
<rect width="229" height="187" fill="white" transform="translate(20 68)"/>
</clipPath>
</defs>
</svg>
