<svg width="270" height="324" viewBox="0 0 270 324" fill="none" xmlns="http://www.w3.org/2000/svg">
<rect width="270" height="324" fill="url(#paint0_linear)"/>
<path d="M106.259 172.563H51.8307V257H106.259V172.563Z" fill="white"/>
<path d="M78.5322 178.124H55.3167V237.526H78.5322V178.124Z" fill="#E6E7E8"/>
<path d="M102.788 238.448H55.3167V252.874H102.788V238.448Z" fill="#F1F2F2"/>
<path d="M102.773 178.124H79.5576V237.526H102.773V178.124Z" fill="url(#paint1_linear)"/>
<g opacity="0.3">
<path opacity="0.3" d="M103.33 172.563H90.5428V257H103.33V172.563Z" fill="#231F20"/>
</g>
<path d="M168.494 143.711H95.4642V257H168.494V143.711Z" fill="white"/>
<path d="M130.354 157.859H101.001V176.851H130.354V157.859Z" fill="url(#paint2_linear)"/>
<path d="M163.383 157.859H134.03V176.851H163.383V157.859Z" fill="url(#paint3_linear)"/>
<path d="M137.135 178.679H101.001V181.02H137.135V178.679Z" fill="#F1F2F2"/>
<path d="M164.554 228.513H101.001V230.854H164.554V228.513Z" fill="#F1F2F2"/>
<path d="M164.554 236.238H101.001V238.579H164.554V236.238Z" fill="#F1F2F2"/>
<path d="M132.77 243.963H101.001V246.304H132.77V243.963Z" fill="#F1F2F2"/>
<path d="M124.7 183.698H101.001V186.039H124.7V183.698Z" fill="#F1F2F2"/>
<path d="M164.554 191.584H101.001V223.758H164.554V191.584Z" fill="url(#paint4_linear)"/>
<path d="M139.625 207.005L126.824 199.617C126.194 199.251 125.403 199.704 125.403 200.436V215.213C125.403 215.945 126.194 216.399 126.824 216.033L139.625 208.644C140.255 208.278 140.255 207.371 139.625 207.005L126.824 199.617C126.194 199.251 125.403 199.704 125.403 200.436V215.213C125.403 215.945 126.194 216.399 126.824 216.033L139.625 208.644C140.255 208.278 140.255 207.371 139.625 207.005Z" fill="white"/>
<path opacity="0.3" d="M183.742 143.711H149.395V257H183.742V143.711Z" fill="#231F20"/>
<path d="M234.523 257H159.472C157.333 257 155.605 255.273 155.605 253.137V119.54C155.605 117.404 157.333 115.678 159.472 115.678H234.523C236.662 115.678 238.39 117.404 238.39 119.54V253.137C238.39 255.273 236.662 257 234.523 257Z" fill="white"/>
<path d="M230.627 132.635H163.383V234.995H230.627V132.635Z" fill="white"/>
<path d="M209.418 125.934H184.592C184.123 125.934 183.757 125.554 183.757 125.1C183.757 124.632 184.137 124.266 184.592 124.266H209.418C209.887 124.266 210.253 124.647 210.253 125.1C210.253 125.568 209.887 125.934 209.418 125.934Z" fill="#231F20"/>
<path d="M232.268 132.152H161.156V235.068H232.268V132.152Z" fill="#E6E7E8"/>
<path d="M168.404 132.075L168.404 234.677L232.138 234.677L232.138 132.075L168.404 132.075Z" fill="#132652"/>
<path d="M189.835 192.33L189.821 196.5C187.653 196.998 185.617 197.846 183.801 199.002L180.842 196.047C179.787 194.993 178.074 194.978 177.019 196.032L174.807 198.241C173.753 199.295 173.753 201.007 174.793 202.06L177.751 205.015C176.594 206.83 175.745 208.863 175.247 211.029H171.072C169.578 211.029 168.363 212.243 168.363 213.736V216.852C168.363 218.344 169.578 219.559 171.072 219.559H175.247C175.73 221.695 176.565 223.685 177.693 225.484L174.719 228.425C173.665 229.479 173.636 231.191 174.705 232.244L176.902 234.468C177.942 235.521 179.67 235.536 180.725 234.483L183.698 231.542C185.514 232.698 187.55 233.561 189.703 234.058L189.689 238.228C189.674 239.721 190.89 240.935 192.384 240.935L195.504 240.95C196.998 240.964 198.213 239.75 198.213 238.257L198.228 234.088C200.41 233.59 202.432 232.756 204.248 231.6L207.207 234.57C208.247 235.624 209.96 235.624 211.015 234.57L213.227 232.376C214.296 231.322 214.296 229.61 213.241 228.557L210.297 225.587C211.454 223.773 212.318 221.739 212.816 219.573L216.991 219.588C218.485 219.588 219.701 218.388 219.701 216.896L219.715 213.765C219.715 212.272 218.514 211.058 217.035 211.058L212.846 211.043C212.362 208.878 211.498 206.844 210.356 205.015L213.329 202.075C214.384 201.021 214.384 199.309 213.329 198.241L211.117 196.032C210.063 194.978 208.349 194.964 207.309 196.032L204.336 198.958C202.505 197.802 200.484 196.954 198.301 196.456L198.316 192.286C198.316 190.794 197.1 189.594 195.621 189.58H192.486C191.036 189.653 189.835 190.853 189.835 192.33ZM202.637 215.301C202.637 220.042 198.799 223.875 194.054 223.875C189.323 223.875 185.485 220.042 185.485 215.301C185.485 210.575 189.308 206.742 194.054 206.742C198.799 206.742 202.637 210.575 202.637 215.301Z" fill="url(#paint5_linear)"/>
<path d="M227.698 167.018L226.848 169.871C225.266 169.784 223.699 169.959 222.22 170.384L220.784 167.765C220.272 166.828 219.1 166.477 218.163 166.989L216.2 168.057C215.262 168.569 214.926 169.74 215.424 170.676L216.859 173.295C215.702 174.305 214.706 175.534 213.944 176.924L211.073 176.09C210.048 175.797 208.979 176.382 208.671 177.406L208.041 179.543C207.749 180.567 208.334 181.635 209.36 181.942L212.231 182.776C212.128 184.342 212.318 185.863 212.714 187.326L210.092 188.746C209.155 189.258 208.803 190.428 209.316 191.365L210.385 193.325C210.898 194.262 212.069 194.613 213.007 194.101L215.629 192.681C216.639 193.837 217.855 194.832 219.246 195.608L218.397 198.461C218.089 199.485 218.675 200.553 219.701 200.86L221.839 201.504C222.864 201.811 223.934 201.226 224.241 200.202L225.091 197.349C226.687 197.451 228.24 197.276 229.719 196.851L231.155 199.485C231.667 200.421 232.839 200.758 233.776 200.246L235.739 199.178C236.691 198.666 237.028 197.495 236.515 196.559L235.095 193.94C236.252 192.915 237.248 191.716 238.024 190.311L240.88 191.16C241.905 191.467 242.975 190.882 243.282 189.858L243.912 187.721C244.205 186.697 243.634 185.629 242.609 185.322L239.738 184.473C239.84 182.893 239.65 181.328 239.24 179.835L241.862 178.401C242.799 177.889 243.136 176.719 242.623 175.768L241.554 173.822C241.041 172.885 239.87 172.534 238.932 173.061L236.31 174.48C235.285 173.324 234.069 172.329 232.678 171.554L233.527 168.701C233.82 167.677 233.234 166.609 232.224 166.301L230.071 165.672C229.075 165.409 228.005 165.994 227.698 167.018ZM231.887 185.322C230.935 188.57 227.537 190.428 224.285 189.492C221.033 188.541 219.173 185.146 220.125 181.898C221.077 178.65 224.461 176.792 227.712 177.743C230.964 178.679 232.824 182.088 231.887 185.322Z" fill="url(#paint6_linear)"/>
<path d="M186.671 126.417L185.148 131.582C182.277 131.406 179.45 131.728 176.785 132.504L174.192 127.778C173.269 126.081 171.146 125.466 169.461 126.388L165.917 128.319C164.232 129.241 163.602 131.362 164.525 133.045L167.118 137.771C165.038 139.6 163.236 141.809 161.845 144.311L156.674 142.804C154.829 142.263 152.895 143.331 152.353 145.174L151.226 149.037C150.684 150.88 151.753 152.826 153.598 153.353L158.769 154.86C158.593 157.669 158.915 160.449 159.648 163.083L154.917 165.643C153.232 166.565 152.588 168.672 153.51 170.369L155.429 173.91C156.337 175.592 158.461 176.221 160.16 175.314L164.906 172.754C166.737 174.846 168.934 176.646 171.438 178.05L169.901 183.215C169.344 185.059 170.413 187.005 172.259 187.546L176.126 188.702C177.971 189.243 179.904 188.19 180.461 186.346L181.984 181.196C184.855 181.372 187.667 181.064 190.333 180.289L192.926 185.029C193.834 186.712 195.958 187.341 197.642 186.419L201.172 184.503C202.886 183.581 203.501 181.459 202.578 179.777L200 175.051C202.08 173.207 203.896 171.027 205.302 168.511L210.458 170.032C212.304 170.574 214.252 169.52 214.794 167.677L215.936 163.814C216.478 161.971 215.424 160.025 213.593 159.498L208.422 157.976C208.598 155.109 208.276 152.285 207.514 149.622L212.26 147.047C213.944 146.125 214.559 144.004 213.651 142.306L211.718 138.78C210.795 137.083 208.671 136.469 206.987 137.405L202.256 139.965C200.41 137.888 198.213 136.088 195.694 134.684L197.217 129.519C197.759 127.675 196.69 125.744 194.859 125.203L190.978 124.061C189.132 123.535 187.199 124.588 186.671 126.417ZM194.215 159.483C192.501 165.351 186.364 168.716 180.49 167.004C174.632 165.292 171.277 159.162 172.991 153.294C174.705 147.442 180.827 144.077 186.686 145.789C192.56 147.501 195.914 153.631 194.215 159.483Z" fill="#F1514D"/>
<g opacity="0.3">
<path opacity="0.3" d="M202.036 245.734L161.156 235.068V132.153L202.036 122.057V245.734Z" fill="#231F20"/>
</g>
<path d="M192.457 241.184L161.156 235.068V132.152L192.457 126.037V241.184Z" fill="#007380"/>
<path d="M191.651 241.184L161.156 235.068V132.152L191.651 126.037V241.184Z" fill="url(#paint7_linear)"/>
<path d="M145.733 131.523L143.155 117.551C144.634 114.244 145.469 110.601 145.469 106.753C145.469 92.1217 133.59 80.2559 118.943 80.2559C104.296 80.2559 92.4176 92.1217 92.4176 106.753C92.4176 121.384 104.296 133.25 118.943 133.25C124.114 133.25 128.933 131.743 133.005 129.182L145.733 131.523Z" fill="url(#paint8_linear)"/>
<path d="M113.788 118.94L103.315 108.494L109.291 102.524L113.788 107.001L126.238 94.5503L132.214 100.52L113.788 118.94Z" fill="white"/>
<path d="M120.447 71.3751L117.518 71.4282L117.608 76.3726L120.536 76.3195L120.447 71.3751Z" fill="#414042"/>
<path d="M131.506 68.4026L128.117 77.6802L130.868 78.6833L134.258 69.4058L131.506 68.4026Z" fill="#414042"/>
<path d="M140.714 78.7368L137.531 82.5249L139.775 84.4062L142.958 80.6181L140.714 78.7368Z" fill="#414042"/>
<path d="M153.274 85.3701L144.709 90.3032L146.173 92.8382L154.737 87.9051L153.274 85.3701Z" fill="#414042"/>
<path d="M153.667 99.208L148.805 100.06L149.311 102.942L154.173 102.09L153.667 99.208Z" fill="#414042"/>
<path d="M149.304 110.628L148.792 113.509L158.526 115.236L159.039 112.355L149.304 110.628Z" fill="#414042"/>
<path d="M130.8 134.835L128.045 135.83L129.799 140.673L132.554 139.677L130.8 134.835Z" fill="#414042"/>
<path d="M117.535 137.152L117.516 147.028L120.445 147.034L120.465 137.158L117.535 137.152Z" fill="#414042"/>
<path d="M107.206 134.824L105.504 139.717L108.271 140.677L109.973 135.784L107.206 134.824Z" fill="#414042"/>
<path d="M98.3249 129.04L91.9509 136.589L94.1901 138.475L100.564 130.926L98.3249 129.04Z" fill="#414042"/>
<path d="M91.9348 120.599L87.6533 123.053L89.1113 125.591L93.3928 123.137L91.9348 120.599Z" fill="#414042"/>
<path d="M88.8302 110.484L79.0878 112.167L79.587 115.05L89.3294 113.368L88.8302 110.484Z" fill="#414042"/>
<path d="M84.4348 99.1964L84.0083 102.091L88.8915 102.809L89.318 99.9143L84.4348 99.1964Z" fill="#414042"/>
<path d="M84.9665 85.2182L83.4925 87.7471L92.0366 92.7167L93.5107 90.1878L84.9665 85.2182Z" fill="#414042"/>
<path d="M97.3462 78.7017L95.1729 80.6641L98.5124 84.3547L100.686 82.3924L97.3462 78.7017Z" fill="#414042"/>
<path d="M106.817 68.348L104.06 69.3374L107.402 78.6317L110.159 77.6424L106.817 68.348Z" fill="#414042"/>
<path d="M173.343 98.7498L166.268 91.4635C165.77 90.9514 165.785 90.1174 166.297 89.62C166.81 89.1225 167.645 89.1372 168.143 89.6492L173.343 95.0042L179.465 88.6836L185.602 95.0042L191.739 88.6836L197.876 95.0042L204.014 88.6836L210.151 95.0042L216.288 88.6836L222.425 95.0042L228.562 88.6836L235.637 95.9699C236.135 96.482 236.12 97.316 235.607 97.8134C235.095 98.3109 234.26 98.3109 233.762 97.7842L228.562 92.4292L222.425 98.7498L216.288 92.4292L210.151 98.7498L204.014 92.4292L197.876 98.7498L191.739 92.4292L185.602 98.7498L179.465 92.4292L173.343 98.7498Z" fill="url(#paint9_linear)"/>
<path d="M13.4407 162.892L6.36617 155.606C5.86817 155.094 5.88282 154.26 6.39547 153.763C6.90811 153.265 7.743 153.28 8.241 153.792L13.4407 159.147L19.5632 152.826L25.7003 159.147L31.8374 152.826L37.9745 159.147L44.1116 152.826L50.2488 159.147L56.3859 152.826L62.523 159.147L68.6601 152.826L75.7346 160.112C76.2326 160.625 76.2326 161.459 75.7053 161.956C75.1927 162.453 74.3578 162.439 73.8598 161.927L68.6601 156.572L62.523 162.892L56.3859 156.572L50.2488 162.892L44.1116 156.572L37.9745 162.892L31.8374 156.572L25.7003 162.892L19.5632 156.572L13.4407 162.892Z" fill="url(#paint10_linear)"/>
<path d="M166.576 111.113C165.023 111.113 163.763 109.855 163.763 108.304C163.763 106.753 165.023 105.495 166.576 105.495C168.128 105.495 169.388 106.753 169.388 108.304C169.388 109.855 168.128 111.113 166.576 111.113ZM166.576 106.519C165.58 106.519 164.774 107.324 164.774 108.318C164.774 109.313 165.58 110.118 166.576 110.118C167.572 110.118 168.377 109.313 168.377 108.318C168.377 107.324 167.572 106.519 166.576 106.519Z" fill="white"/>
<path d="M70.6521 128.846C69.0995 128.846 67.8398 127.588 67.8398 126.037C67.8398 124.486 69.0995 123.228 70.6521 123.228C72.2047 123.228 73.4643 124.486 73.4643 126.037C73.4643 127.588 72.2047 128.846 70.6521 128.846ZM70.6521 124.237C69.6561 124.237 68.8505 125.042 68.8505 126.037C68.8505 127.032 69.6561 127.836 70.6521 127.836C71.6481 127.836 72.4537 127.032 72.4537 126.037C72.4537 125.042 71.6481 124.237 70.6521 124.237Z" fill="white"/>
<path d="M70.6521 101.647C68.5136 101.647 66.756 99.9055 66.756 97.7547C66.756 95.6185 68.499 93.8628 70.6521 93.8628C72.7906 93.8628 74.5482 95.6039 74.5482 97.7547C74.5482 99.9055 72.8052 101.647 70.6521 101.647ZM70.6521 95.2674C69.2753 95.2674 68.1475 96.394 68.1475 97.7693C68.1475 99.1446 69.2606 100.271 70.6521 100.271C72.0436 100.271 73.1567 99.1593 73.1567 97.7693C73.1567 96.3793 72.0289 95.2674 70.6521 95.2674Z" fill="white"/>
<path d="M176.814 84.4259H170.223L173.518 78.7197L176.814 84.4259ZM172.449 83.1383H174.588L173.518 81.2948L172.449 83.1383Z" fill="white"/>
<path d="M55.2727 137.698H48.6815L51.9771 131.992L55.2727 137.698ZM50.9079 136.41H53.0463L51.9771 134.567L50.9079 136.41Z" fill="white"/>
<path d="M156.323 75.3398L151.504 67H161.142L156.323 75.3398ZM156.323 71.5795L157.89 68.8728H154.755L156.323 71.5795Z" fill="white"/>
<path d="M62.8745 146.681L58.495 142.175C58.2314 141.911 58.246 141.487 58.5097 141.224C58.7733 140.96 59.1981 140.975 59.4617 141.238L62.8745 144.75L66.7559 140.741L70.6521 144.75L74.5482 140.741L78.4443 144.75L81.8571 141.238C82.1207 140.975 82.5455 140.96 82.8091 141.224C83.0728 141.487 83.0874 141.911 82.8238 142.175L78.4443 146.681L74.5482 142.672L70.6521 146.681L66.7559 142.672L62.8745 146.681Z" fill="white"/>
<defs>
<linearGradient id="paint0_linear" x1="0.0098029" y1="161.994" x2="270.024" y2="161.994" gradientUnits="userSpaceOnUse">
<stop stop-color="#6081F7"/>
<stop offset="0.9962" stop-color="#1D4EBE"/>
</linearGradient>
<linearGradient id="paint1_linear" x1="79.5584" y1="207.824" x2="102.775" y2="207.824" gradientUnits="userSpaceOnUse">
<stop stop-color="#6081F7"/>
<stop offset="0.9962" stop-color="#1D4EBE"/>
</linearGradient>
<linearGradient id="paint2_linear" x1="101.002" y1="167.349" x2="130.377" y2="167.349" gradientUnits="userSpaceOnUse">
<stop offset="0.0001" stop-color="#ED8746"/>
<stop offset="1" stop-color="#FFD600"/>
</linearGradient>
<linearGradient id="paint3_linear" x1="134.049" y1="167.348" x2="163.394" y2="167.348" gradientUnits="userSpaceOnUse">
<stop stop-color="#ED8A42"/>
<stop offset="1" stop-color="#E96966"/>
</linearGradient>
<linearGradient id="paint4_linear" x1="101.005" y1="207.674" x2="164.552" y2="207.674" gradientUnits="userSpaceOnUse">
<stop stop-color="#FF5722"/>
<stop offset="0.4135" stop-color="#E74226"/>
<stop offset="1" stop-color="#BE1E2D"/>
</linearGradient>
<linearGradient id="paint5_linear" x1="168.363" y1="215.317" x2="219.754" y2="215.317" gradientUnits="userSpaceOnUse">
<stop offset="0.2205" stop-color="#FF9800"/>
<stop offset="0.4239" stop-color="#FFA402"/>
<stop offset="1" stop-color="#FFC107"/>
</linearGradient>
<linearGradient id="paint6_linear" x1="207.983" y1="183.612" x2="243.998" y2="183.612" gradientUnits="userSpaceOnUse">
<stop stop-color="#4CAF50"/>
<stop offset="0.1766" stop-color="#4FB559"/>
<stop offset="0.4636" stop-color="#56C671"/>
<stop offset="0.8231" stop-color="#62E198"/>
<stop offset="1" stop-color="#69F0AE"/>
</linearGradient>
<linearGradient id="paint7_linear" x1="161.157" y1="183.608" x2="191.654" y2="183.608" gradientUnits="userSpaceOnUse">
<stop stop-color="#1D4EBE"/>
<stop offset="1" stop-color="#6081F7"/>
</linearGradient>
<linearGradient id="paint8_linear" x1="92.4521" y1="106.734" x2="145.754" y2="106.734" gradientUnits="userSpaceOnUse">
<stop stop-color="#ED8A42"/>
<stop offset="1" stop-color="#E96966"/>
</linearGradient>
<linearGradient id="paint9_linear" x1="165.949" y1="93.7131" x2="236.028" y2="93.7131" gradientUnits="userSpaceOnUse">
<stop stop-color="#ED8A42"/>
<stop offset="1" stop-color="#E96966"/>
</linearGradient>
<linearGradient id="paint10_linear" x1="6.04694" y1="157.856" x2="76.1317" y2="157.856" gradientUnits="userSpaceOnUse">
<stop stop-color="#ED8A42"/>
<stop offset="1" stop-color="#E96966"/>
</linearGradient>
</defs>
</svg>
