<svg width="270" height="324" viewBox="0 0 270 324" fill="none" xmlns="http://www.w3.org/2000/svg">
<rect width="270" height="324" fill="url(#paint0_linear)"/>
<g clip-path="url(#clip0)">
<path d="M198.438 252.719H133.428L137.978 224.717H194.221L198.438 252.719Z" fill="#FAFAFA"/>
<path d="M137.978 224.717L134.573 245.715L196.699 241.2L194.221 224.717H137.978Z" fill="#C5C5C5"/>
<path d="M241.363 136.412C241.363 134.892 240.131 133.647 238.595 133.647H93.2562C91.7346 133.647 90.4883 134.878 90.4883 136.412V220.969C90.4883 222.503 91.7201 223.733 93.2562 223.733H238.595C240.117 223.733 241.363 222.503 241.363 220.969V136.412Z" fill="#132652"/>
<path d="M241.363 218.769V230.245C241.363 234.311 238.059 237.611 233.987 237.611H97.8646C93.7924 237.611 90.4883 234.311 90.4883 230.245V218.769H241.363Z" fill="#F1F2F2"/>
<path d="M234.9 140H96.9661V212.503H234.9V140Z" fill="#6081F7"/>
<path d="M203.307 259H128.109C126.37 259 124.964 257.596 124.964 255.86C124.964 254.123 126.37 252.719 128.109 252.719H203.307C205.046 252.719 206.452 254.123 206.452 255.86C206.452 257.596 205.046 259 203.307 259Z" fill="#ECECEC"/>
<path opacity="0.2" d="M221.219 212.894H110.646L107.241 133.647H224.625L221.219 212.894Z" fill="#231F20"/>
<path d="M220.698 212.894H111.704C110.965 212.894 110.371 212.3 110.371 211.562V100.754C110.371 98.7132 112.023 97.0635 114.067 97.0635H218.35C220.393 97.0635 222.045 98.7132 222.045 100.754V211.548C222.031 212.286 221.437 212.894 220.698 212.894Z" fill="white"/>
<path d="M222.031 112.317V100.943C222.031 98.8152 220.292 97.0786 218.161 97.0786H114.24C112.11 97.0786 110.371 98.8152 110.371 100.943V112.317H222.031Z" fill="#D1D3D4"/>
<path d="M122.559 103.518C122.559 104.43 121.82 105.168 120.907 105.168C119.994 105.168 119.255 104.43 119.255 103.518C119.255 102.606 119.994 101.868 120.907 101.868C121.82 101.883 122.559 102.621 122.559 103.518Z" fill="white"/>
<path d="M128.863 103.518C128.863 104.43 128.124 105.168 127.211 105.168C126.298 105.168 125.559 104.43 125.559 103.518C125.559 102.606 126.298 101.868 127.211 101.868C128.124 101.883 128.863 102.621 128.863 103.518Z" fill="white"/>
<path d="M135.167 103.518C135.167 104.43 134.428 105.168 133.515 105.168C132.602 105.168 131.862 104.43 131.862 103.518C131.862 102.606 132.602 101.868 133.515 101.868C134.428 101.883 135.167 102.621 135.167 103.518Z" fill="white"/>
<path d="M127.211 212.894H119.631V166.064L127.211 158.162V212.894ZM139.514 145.876L131.935 153.112V212.879H139.514V145.876ZM151.818 145.876L144.239 139.292V212.879H151.818V145.876ZM164.136 147.859L160.354 151.809L156.571 149.176V212.894H164.15V147.859H164.136ZM176.439 136.006L168.86 143.908V212.894H176.439V136.006ZM188.743 136.658L181.164 130.739V212.894H188.743V136.658ZM201.047 139.957L193.467 142.591V212.894H201.047V139.957ZM213.35 126.788L205.771 134.024V212.879H213.35V126.788Z" fill="url(#paint1_linear)"/>
<path opacity="0.1" d="M198.235 140.927L201.047 139.943V142.779L199.728 144.096C199.873 144.53 200.003 144.979 200.003 145.471C200.003 147.888 198.047 149.841 195.627 149.841C194.83 149.841 194.12 149.566 193.467 149.19V142.562L196.96 141.346C197.163 141.419 197.366 141.477 197.554 141.578L198.235 140.927ZM181.164 137.048C181.309 137.063 181.454 137.092 181.599 137.092C182.468 137.092 183.222 136.773 183.903 136.354L188.743 141.187V136.672L181.164 130.753V137.048ZM159.049 150.898C158.817 150.956 158.586 151.013 158.383 151.1L156.557 149.291V157.815C157.354 158.843 158.557 159.537 159.948 159.537C162.02 159.537 163.672 158.076 164.136 156.151V153.98C164.005 153.618 163.832 153.257 163.643 152.938L164.136 152.446V147.859L160.339 151.809L159.049 150.898ZM205.771 134.024V138.061L213.35 130.493V126.788L205.771 134.024ZM131.935 158.278L139.514 150.681V146.006L131.935 153.575V158.278ZM168.86 147.714L176.439 140.145V136.006L168.86 143.908V147.714ZM119.631 166.064V170.608L127.211 163.01V158.293L124.022 161.476L119.631 166.064ZM144.239 145.963L144.383 145.818C144.978 146.108 145.615 146.31 146.311 146.31C147.05 146.31 147.717 146.079 148.325 145.76L151.803 149.233V145.891L144.224 139.306V145.963H144.239Z" fill="#231F20"/>
<path d="M222.031 115.095L197.554 139.639C196.96 139.35 196.322 139.147 195.612 139.147C194.946 139.147 194.322 139.321 193.757 139.596L185.787 131.636C185.845 131.347 185.961 131.072 185.961 130.753C185.961 128.337 184.004 126.383 181.584 126.383C179.164 126.383 177.208 128.337 177.208 130.753C177.208 131.347 177.338 131.911 177.541 132.418L160.919 149.002C160.6 148.93 160.281 148.799 159.933 148.799C159.368 148.799 158.846 148.93 158.354 149.118L150.441 141.216C150.571 140.811 150.702 140.391 150.702 139.943C150.702 137.526 148.746 135.572 146.325 135.572C143.905 135.572 141.949 137.526 141.949 139.943C141.949 140.435 142.079 140.884 142.224 141.332L110.371 173.155V177.931L144.398 143.85C144.992 144.14 145.63 144.342 146.325 144.342C147.064 144.342 147.731 144.111 148.34 143.778L155.962 151.39C155.716 151.94 155.557 152.548 155.557 153.184C155.557 155.601 157.513 157.555 159.933 157.555C162.353 157.555 164.31 155.601 164.31 153.184C164.31 152.359 164.02 151.621 163.614 150.956L179.845 134.748C180.381 134.979 180.961 135.109 181.584 135.109C182.454 135.109 183.207 134.791 183.888 134.371L191.54 142.012C191.366 142.49 191.236 142.982 191.236 143.517C191.236 145.934 193.192 147.888 195.612 147.888C198.032 147.888 199.989 145.934 199.989 143.517C199.989 143.025 199.858 142.577 199.713 142.143L222.016 119.856V115.095H222.031Z" fill="#D1D3D4"/>
<path d="M171.498 138.395L177.367 132.534C177.15 132.013 177.019 131.448 177.019 130.84C177.019 128.395 179.005 126.412 181.454 126.412C183.903 126.412 185.888 128.395 185.888 130.84C185.888 131.159 185.772 131.434 185.714 131.723L193.772 139.769C194.351 139.494 194.975 139.321 195.641 139.321C196.351 139.321 197.003 139.523 197.598 139.827L213.017 124.372L214.263 127.903L199.786 142.36C199.931 142.808 200.061 143.257 200.061 143.749C200.061 146.195 198.076 148.177 195.627 148.177C193.178 148.177 191.192 146.195 191.192 143.749C191.192 143.214 191.323 142.707 191.497 142.229L183.758 134.502C183.077 134.936 182.309 135.254 181.425 135.254C180.802 135.254 180.207 135.124 179.671 134.892L172.411 142.143L171.498 138.395Z" fill="url(#paint2_linear)"/>
<path opacity="0.3" d="M238.479 198.046C239.262 198.827 240.349 199.131 241.377 198.972V182.084L220.915 161.65L218.756 163.806L217.263 162.315C223.929 154.125 225.523 143.199 222.103 133.662H222.045V133.517C220.611 129.595 218.35 125.919 215.205 122.779C203.67 111.26 184.888 111.26 173.338 122.779C161.803 134.299 161.803 153.054 173.338 164.587C183.874 175.108 200.409 175.991 212.002 167.323L213.626 168.943L211.466 171.1L238.479 198.046ZM208.379 157.757C200.597 165.528 187.946 165.528 180.164 157.757C172.382 149.986 172.382 137.352 180.164 129.581C187.946 121.81 200.597 121.81 208.379 129.581C216.147 137.352 216.147 149.986 208.379 157.757Z" fill="#231F20"/>
<path d="M218.707 159.187L213.573 164.314L219.742 170.474L224.875 165.347L218.707 159.187Z" fill="#231F20"/>
<path d="M177.251 122.099C166.179 133.155 166.179 151.129 177.251 162.185C188.323 173.242 206.322 173.242 217.393 162.185C228.465 151.129 228.465 133.155 217.393 122.099C206.322 111.057 188.308 111.057 177.251 122.099ZM211.423 156.238C203.641 164.009 190.989 164.009 183.207 156.238C175.425 148.466 175.425 135.833 183.207 128.061C190.989 120.29 203.641 120.29 211.423 128.061C219.205 135.818 219.205 148.466 211.423 156.238Z" fill="url(#paint3_linear)"/>
<path d="M177.251 122.099C166.179 133.155 166.179 151.129 177.251 162.185C188.323 173.242 206.322 173.242 217.393 162.185C228.465 151.129 228.465 133.155 217.393 122.099C206.322 111.057 188.308 111.057 177.251 122.099ZM211.423 156.238C203.641 164.009 190.989 164.009 183.207 156.238C175.425 148.466 175.425 135.833 183.207 128.061C190.989 120.29 203.641 120.29 211.423 128.061C219.205 135.818 219.205 148.466 211.423 156.238Z" fill="url(#paint4_linear)"/>
<path d="M218.248 121.245C206.713 109.726 187.931 109.726 176.381 121.245C164.846 132.765 164.846 151.52 176.381 163.054C187.931 174.573 206.713 174.573 218.248 163.054C229.798 151.52 229.798 132.765 218.248 121.245ZM214.785 159.581C205.162 169.19 189.482 169.19 179.86 159.581C170.237 149.957 170.237 134.313 179.86 124.704C189.482 115.081 205.162 115.095 214.785 124.704C224.407 134.328 224.407 149.972 214.785 159.581Z" fill="url(#paint5_linear)"/>
<path d="M218.248 121.245C206.713 109.726 187.931 109.726 176.381 121.245C164.846 132.765 164.846 151.52 176.381 163.054C187.931 174.573 206.713 174.573 218.248 163.054C229.798 151.52 229.798 132.765 218.248 121.245ZM214.785 159.581C205.162 169.19 189.482 169.19 179.86 159.581C170.237 149.957 170.237 134.313 179.86 124.704C189.482 115.081 205.162 115.095 214.785 124.704C224.407 134.328 224.407 149.972 214.785 159.581Z" fill="url(#paint6_linear)"/>
<path d="M251.073 191.678L246.102 196.642C244.87 197.872 242.87 197.872 241.638 196.642L214.51 169.551L223.944 160.13L251.073 187.221C252.319 188.437 252.319 190.434 251.073 191.678Z" fill="url(#paint7_linear)"/>
<path opacity="0.3" d="M140.514 254.731V207.206V203.256H141.442C142.876 203.256 143.717 201.62 142.862 200.463L140.514 197.264H130.486V193.69C130.486 192.214 129.283 191.027 127.819 191.027H122.124C121.182 191.027 120.37 190.419 120.037 189.537C119.834 189.001 119.617 188.48 119.385 187.959C118.994 187.105 119.139 186.092 119.805 185.427L123.834 181.404C124.877 180.362 124.877 178.668 123.834 177.641L117.269 171.085C116.226 170.043 114.53 170.043 113.501 171.085L109.444 175.137C108.806 175.774 107.85 175.962 107.009 175.6C106.429 175.354 105.806 175.108 105.27 174.891C104.429 174.558 103.879 173.748 103.879 172.851V167.106C103.879 165.63 102.69 164.443 101.212 164.443H91.923C91.4157 164.443 90.9375 164.588 90.5317 164.834V186.686C93.7344 185.036 97.6183 184.674 101.314 186.092C105.313 187.626 108.226 191.071 109.284 195.065H109.241C109.429 195.774 109.545 196.512 109.632 197.25H90.5028V218.755V220.94V230.216C90.5028 234.283 93.8069 237.582 97.8791 237.582H135.891L134.573 245.686L133.442 252.676H128.124C126.385 252.676 124.979 254.08 124.979 255.816C124.979 257.553 126.385 258.957 128.124 258.957H136.239C138.601 259 140.514 257.09 140.514 254.731Z" fill="#231F20"/>
<path d="M117.632 205.644H124.906C126.385 205.644 127.573 204.442 127.573 202.981L127.558 193.705C127.558 192.228 126.356 191.042 124.892 191.042H119.197C118.255 191.042 117.443 190.434 117.11 189.551C116.907 189.016 116.69 188.495 116.458 187.974C116.066 187.12 116.211 186.107 116.878 185.441L120.907 181.418C121.95 180.376 121.95 178.683 120.907 177.656L114.342 171.1C113.298 170.058 111.603 170.058 110.574 171.1L106.516 175.152C105.879 175.789 104.922 175.977 104.082 175.615C103.502 175.369 102.879 175.123 102.343 174.906C101.502 174.573 100.951 173.763 100.951 172.865V167.12C100.951 165.644 99.7631 164.458 98.2849 164.458H88.9956C87.5174 164.458 86.3291 165.644 86.3291 167.12V172.808C86.3291 173.748 85.7204 174.559 84.8364 174.892C84.2713 175.109 83.7351 175.326 83.1844 175.586C82.3294 175.977 81.3149 175.847 80.6483 175.181L76.6051 171.172C75.5617 170.13 73.8661 170.145 72.8372 171.187L66.2869 177.757C65.2435 178.799 65.2579 180.492 66.3014 181.519L70.3736 185.557C71.0112 186.194 71.1996 187.149 70.8518 187.988C70.6054 188.567 70.3591 189.189 70.1417 189.725C69.8084 190.564 68.9968 191.114 68.0983 191.129L62.3451 191.143C60.8669 191.143 59.6786 192.344 59.6786 193.82L59.7076 203.097C59.7076 204.573 60.9104 205.759 62.3886 205.759L68.0839 205.745C69.0258 205.745 69.8374 206.353 70.1707 207.235C70.3736 207.771 70.591 208.292 70.8228 208.798C71.2141 209.652 71.0837 210.665 70.417 211.331L66.3883 215.368C65.3449 216.41 65.3449 218.104 66.4028 219.131L72.9821 225.672C74.0255 226.714 75.7211 226.714 76.75 225.658L80.8077 221.591C81.4454 220.954 82.4018 220.766 83.2423 221.128C83.822 221.374 84.4452 221.62 84.9814 221.837C85.8219 222.17 86.3726 222.98 86.3871 223.878L86.4016 229.623C86.4016 231.099 87.6044 232.286 89.0681 232.286L98.3573 232.271C99.8355 232.271 101.024 231.07 101.024 229.608L101.009 223.921C101.009 222.98 101.618 222.17 102.502 221.837C103.038 221.635 103.56 221.418 104.082 221.186C104.937 220.795 105.951 220.94 106.618 221.606L110.646 225.629C111.69 226.671 113.385 226.671 114.414 225.629L120.965 219.059C122.008 218.017 122.008 216.324 120.965 215.296L116.892 211.244C116.255 210.607 116.066 209.652 116.429 208.813C116.994 207.395 117.603 205.745 117.632 205.644ZM80.6918 195.991C82.2424 187.8 90.7346 183.169 98.3863 186.107C104.198 188.336 107.734 194.616 106.574 200.723C105.024 208.914 96.5314 213.545 88.8797 210.607C83.0684 208.379 79.5324 202.098 80.6918 195.991Z" fill="#F1514D"/>
<path opacity="0.3" d="M59.6931 203.082C59.6931 204.558 60.8959 205.745 62.3741 205.745L68.0694 205.731C69.0113 205.731 69.8229 206.338 70.1562 207.221C70.3591 207.757 70.5765 208.278 70.8083 208.784C71.1996 209.638 71.0692 210.651 70.4026 211.317L66.3738 215.354C65.3304 216.396 65.3304 218.089 66.3883 219.117L72.9676 225.658C74.011 226.7 75.7066 226.7 76.7355 225.643L80.7932 221.577C81.4309 220.94 82.3873 220.752 83.2278 221.114C83.8075 221.36 84.4307 221.606 84.9669 221.823C85.8074 222.156 86.3581 222.966 86.3726 223.863L86.3871 229.609C86.3871 231.085 87.5899 232.271 89.0536 232.271L98.3428 232.257C99.821 232.257 101.009 231.056 101.009 229.594L100.995 223.907C100.995 222.966 101.604 222.156 102.488 221.823C103.024 221.62 103.545 221.403 104.067 221.172C104.922 220.781 105.937 220.926 106.603 221.591L110.632 225.614C111.675 226.656 113.371 226.656 114.4 225.614L120.95 219.044C121.994 218.002 121.994 216.309 120.95 215.282L116.878 211.23C116.24 210.593 116.052 209.638 116.414 208.798C117.008 207.409 117.617 205.759 117.646 205.658H124.921C126.399 205.658 127.587 204.457 127.587 202.995V195.108H106.299C106.777 196.917 106.922 198.842 106.574 200.752C105.024 208.943 96.5314 213.574 88.8797 210.636C83.0684 208.408 79.5324 202.127 80.6918 196.02C80.7497 195.702 80.8367 195.412 80.9236 195.108H59.6641L59.6931 203.082Z" fill="#414042"/>
<path d="M133.341 259H57.5338V197.265H137.616V254.717C137.616 257.09 135.703 259 133.341 259Z" fill="url(#paint8_linear)"/>
<path d="M53.6065 259H57.5338V197.265H49.3314V254.717C49.3314 257.09 51.2443 259 53.6065 259Z" fill="#FFA000"/>
<path opacity="0.2" d="M49.3314 207.207H54.5919L57.5338 197.265L49.3314 199.218V207.207Z" fill="#231F20"/>
<path d="M49.2155 203.256H53.5051C54.1717 203.256 54.7948 202.88 55.0847 202.272L57.5338 197.265H49.3314L47.6359 200.723C47.0562 201.896 47.9112 203.256 49.2155 203.256Z" fill="#FFCD39"/>
<path opacity="0.2" d="M137.616 207.207V199.218L57.5338 197.265L61.9393 207.207H137.616Z" fill="#231F20"/>
<path d="M138.543 203.256H62.8233C62.2581 203.256 61.7364 202.995 61.4031 202.532L57.5338 197.265H137.616L139.963 200.463C140.819 201.621 139.978 203.256 138.543 203.256Z" fill="#FFCD39"/>
<path d="M99.4153 121.723H82.2569C81.1265 121.723 80.1991 120.811 80.1991 119.668C80.1991 118.539 81.1121 117.613 82.2569 117.613H99.4153C100.546 117.613 101.473 118.525 101.473 119.668C101.473 120.811 100.546 121.723 99.4153 121.723Z" fill="white"/>
<path d="M99.4153 145.76H59.9974C58.8671 145.76 57.9396 144.848 57.9396 143.705C57.9396 142.576 58.8526 141.65 59.9974 141.65H99.4153C100.546 141.65 101.473 142.562 101.473 143.705C101.473 144.848 100.546 145.76 99.4153 145.76Z" fill="white"/>
<path d="M99.4153 137.743H59.9974C58.8671 137.743 57.9396 136.831 57.9396 135.688C57.9396 134.559 58.8526 133.633 59.9974 133.633H99.4153C100.546 133.633 101.473 134.545 101.473 135.688C101.473 136.831 100.546 137.743 99.4153 137.743Z" fill="white"/>
<path d="M99.4153 129.74H59.9974C58.8671 129.74 57.9396 128.828 57.9396 127.685C57.9396 126.556 58.8526 125.63 59.9974 125.63H99.4153C100.546 125.63 101.473 126.542 101.473 127.685C101.473 128.828 100.546 129.74 99.4153 129.74Z" fill="white"/>
<path d="M67.3738 121.303L66.3449 118.901H61.6785L60.6496 121.303H57.9976L62.8089 110.174H65.2145L70.0258 121.303H67.3738ZM64.0117 113.488L62.606 116.715H65.3884L64.0117 113.488Z" fill="#F1514D"/>
<path d="M78.2862 121.303H76.0399V120.261C75.4168 121.043 74.6632 121.419 73.7502 121.419C72.8372 121.419 72.0837 121.158 71.4605 120.637C70.8519 120.116 70.533 119.407 70.533 118.539C70.533 117.671 70.8519 117.005 71.4895 116.571C72.1271 116.137 72.9966 115.92 74.098 115.92H75.8805V115.876C75.8805 114.964 75.4023 114.501 74.4313 114.501C74.0111 114.501 73.5763 114.588 73.1126 114.747C72.6488 114.907 72.2576 115.109 71.9387 115.355L70.8663 113.807C71.9967 112.982 73.272 112.577 74.7212 112.577C75.7646 112.577 76.6051 112.837 77.2717 113.358C77.9239 113.879 78.2572 114.704 78.2572 115.833V121.303H78.2862ZM75.8805 118.047V117.627H74.3734C73.4169 117.627 72.9387 117.931 72.9387 118.524C72.9387 118.828 73.0546 119.074 73.2865 119.234C73.5184 119.393 73.8372 119.48 74.2719 119.48C74.6922 119.48 75.069 119.349 75.4023 119.089C75.7066 118.828 75.8805 118.481 75.8805 118.047Z" fill="#F1514D"/>
<path d="M192.859 93.489L186.917 87.3675C186.497 86.9334 186.511 86.2387 186.946 85.8191C187.381 85.3994 188.076 85.4139 188.497 85.848L192.859 90.3487L198.003 85.0376L203.162 90.3487L208.322 85.0376L213.481 90.3487L218.64 85.0376L223.799 90.3487L228.958 85.0376L234.117 90.3487L239.276 85.0376L245.232 91.1591C245.653 91.5932 245.638 92.2878 245.203 92.7075C244.769 93.1272 244.073 93.1127 243.653 92.6786L239.276 88.1779L234.117 93.489L228.958 88.1779L223.784 93.489L218.625 88.1779L213.466 93.489L208.307 88.1779L203.148 93.489L197.989 88.1779L192.859 93.489Z" fill="url(#paint9_linear)"/>
<path d="M24.246 165.615L18.3044 159.493C17.8841 159.059 17.8986 158.365 18.3333 157.945C18.7681 157.525 19.4637 157.54 19.884 157.974L24.246 162.475L29.3906 157.164L34.5497 162.475L39.7088 157.164L44.8679 162.475L50.027 157.164L55.1861 162.475L60.3307 157.164L65.4898 162.475L70.6489 157.164L76.5906 163.285C77.0109 163.719 76.9964 164.414 76.5616 164.833C76.1269 165.253 75.4312 165.239 75.011 164.805L70.6344 160.304L65.4753 165.615L60.3162 160.304L55.1571 165.615L49.998 160.304L44.8389 165.615L39.6798 160.304L34.5207 165.615L29.3616 160.304L24.246 165.615Z" fill="url(#paint10_linear)"/>
<path d="M115.588 86.4121C114.052 86.4121 112.806 85.1675 112.806 83.6335C112.806 82.0995 114.052 80.855 115.588 80.855C117.124 80.855 118.371 82.0995 118.371 83.6335C118.371 85.1675 117.124 86.4121 115.588 86.4121ZM115.588 81.868C114.603 81.868 113.806 82.6639 113.806 83.648C113.806 84.6321 114.603 85.428 115.588 85.428C116.574 85.428 117.371 84.6321 117.371 83.648C117.371 82.6639 116.574 81.868 115.588 81.868Z" fill="white"/>
<path d="M89.1261 103.315C87.9087 103.315 86.9088 102.316 86.9088 101.101C86.9088 99.8853 87.9087 98.8867 89.1261 98.8867C90.3434 98.8867 91.3433 99.8853 91.3433 101.101C91.3288 102.316 90.3434 103.315 89.1261 103.315ZM89.1261 99.6827C88.3435 99.6827 87.7058 100.319 87.7058 101.101C87.7058 101.882 88.3435 102.519 89.1261 102.519C89.9086 102.519 90.5463 101.882 90.5463 101.101C90.5463 100.319 89.9086 99.6827 89.1261 99.6827Z" fill="white"/>
<path d="M165.092 92.0848H158.571L161.832 86.4409L165.092 92.0848ZM160.774 90.8113H162.89L161.832 88.9879L160.774 90.8113Z" fill="white"/>
<path d="M82.2424 154.964H75.721L78.9817 149.32L82.2424 154.964ZM77.9238 153.705H80.0396L78.9817 151.882L77.9238 153.705Z" fill="white"/>
<path d="M174.556 80.8698L170.338 73.5762H178.773L174.556 80.8698ZM174.556 77.5848L175.918 75.2115H173.179L174.556 77.5848Z" fill="white"/>
<path d="M142.413 75.5441L139.065 72.0998C138.862 71.8972 138.877 71.5644 139.079 71.3763C139.282 71.1737 139.616 71.1881 139.804 71.3907L142.413 74.068L145.383 71L148.354 74.0535L151.325 71L154.296 74.0535L156.904 71.3763C157.107 71.1737 157.426 71.1737 157.629 71.3618C157.832 71.5644 157.832 71.8828 157.644 72.0854L154.296 75.5296L151.325 72.4761L148.354 75.5296L145.383 72.4761L142.413 75.5441Z" fill="white"/>
</g>
<defs>
<linearGradient id="paint0_linear" x1="0.174435" y1="161.885" x2="270.105" y2="161.885" gradientUnits="userSpaceOnUse">
<stop stop-color="#ED8A42"/>
<stop offset="1" stop-color="#E96966"/>
</linearGradient>
<linearGradient id="paint1_linear" x1="166.492" y1="214.633" x2="166.492" y2="90.5516" gradientUnits="userSpaceOnUse">
<stop stop-color="#0AA4F5"/>
<stop offset="0.1697" stop-color="#27BBDF"/>
<stop offset="0.3816" stop-color="#44D2CA"/>
<stop offset="0.5926" stop-color="#58E3BA"/>
<stop offset="0.8" stop-color="#65EDB1"/>
<stop offset="1" stop-color="#69F0AE"/>
</linearGradient>
<linearGradient id="paint2_linear" x1="171.504" y1="136.285" x2="214.292" y2="136.285" gradientUnits="userSpaceOnUse">
<stop offset="0.2953" stop-color="#BE1E2D"/>
<stop offset="0.7086" stop-color="#E74226"/>
<stop offset="1" stop-color="#FF5722"/>
</linearGradient>
<linearGradient id="paint3_linear" x1="168.947" y1="142.145" x2="225.687" y2="142.145" gradientUnits="userSpaceOnUse">
<stop stop-color="#FFF200"/>
<stop offset="0.1796" stop-color="#FFEC00"/>
<stop offset="0.4234" stop-color="#FFDB00"/>
<stop offset="0.704" stop-color="#FFBE00"/>
<stop offset="1" stop-color="#FF9800"/>
</linearGradient>
<linearGradient id="paint4_linear" x1="168.949" y1="142.13" x2="225.743" y2="142.13" gradientUnits="userSpaceOnUse">
<stop stop-color="#FFD600"/>
<stop offset="1" stop-color="#ED8746"/>
</linearGradient>
<linearGradient id="paint5_linear" x1="167.727" y1="142.145" x2="226.906" y2="142.145" gradientUnits="userSpaceOnUse">
<stop stop-color="#FF9800"/>
<stop offset="0.296" stop-color="#FFBE00"/>
<stop offset="0.5766" stop-color="#FFDB00"/>
<stop offset="0.8204" stop-color="#FFEC00"/>
<stop offset="1" stop-color="#FFF200"/>
</linearGradient>
<linearGradient id="paint6_linear" x1="167.732" y1="142.131" x2="226.959" y2="142.131" gradientUnits="userSpaceOnUse">
<stop offset="0.0001" stop-color="#ED8746"/>
<stop offset="1" stop-color="#FFD600"/>
</linearGradient>
<linearGradient id="paint7_linear" x1="214.534" y1="178.834" x2="252.022" y2="178.834" gradientUnits="userSpaceOnUse">
<stop stop-color="#ED8A42"/>
<stop offset="1" stop-color="#E96966"/>
</linearGradient>
<linearGradient id="paint8_linear" x1="57.5328" y1="228.133" x2="137.613" y2="228.133" gradientUnits="userSpaceOnUse">
<stop offset="0.1811" stop-color="#FFC107"/>
<stop offset="0.7863" stop-color="#FFA402"/>
<stop offset="1" stop-color="#FF9800"/>
</linearGradient>
<linearGradient id="paint9_linear" x1="186.649" y1="89.2603" x2="245.562" y2="89.2603" gradientUnits="userSpaceOnUse">
<stop stop-color="#E96966"/>
<stop offset="1" stop-color="#ED8A42"/>
</linearGradient>
<linearGradient id="paint10_linear" x1="18.0003" y1="161.387" x2="76.9446" y2="161.387" gradientUnits="userSpaceOnUse">
<stop offset="0.0001" stop-color="#ED8746"/>
<stop offset="1" stop-color="#FFD600"/>
</linearGradient>
<clipPath id="clip0">
<rect width="234" height="188" fill="white" transform="translate(18 71)"/>
</clipPath>
</defs>
</svg>
