<svg width="945" height="872" viewBox="0 0 945 872" fill="none" xmlns="http://www.w3.org/2000/svg">
  <g clip-path="url(#clip0)">
    <g opacity="0.1">
      <path d="M788.244 426.469C741.776 455.201 756.298 522.351 756.943 568.517C757.588 619.525 758.234 670.856 758.879 721.865C758.879 725.093 754.039 725.093 754.039 721.865C753.071 660.848 752.425 599.509 751.457 538.493C750.812 495.233 743.39 448.099 785.663 421.949C788.244 420.658 790.826 424.855 788.244 426.469Z" fill="#CFE3FC"/>
      <path d="M762.429 449.714C764.688 445.194 766.624 440.674 769.851 437.123C774.691 431.312 781.468 427.438 787.922 423.887L788.89 424.532C792.762 434.54 794.698 445.194 792.762 455.525C790.826 465.855 784.372 475.863 775.014 480.383C767.915 483.612 759.847 484.257 753.393 488.454C751.457 474.895 756.62 461.981 762.429 449.714Z" fill="#CFE3FC"/>
      <path d="M714.024 368.359C760.17 386.761 750.166 456.493 752.102 495.879C755.329 562.707 756.943 629.211 756.62 696.038C756.62 699.267 751.78 699.267 751.78 696.038C752.102 640.51 751.134 584.982 748.875 529.454C747.907 504.273 746.617 479.415 745.326 454.233C744.035 425.178 745.326 385.792 712.734 372.879C709.829 371.91 711.12 367.39 714.024 368.359Z" fill="#CFE3FC"/>
      <path d="M745.326 448.745C745.326 448.422 745.326 448.422 745.649 448.1C746.294 449.068 746.939 450.359 747.585 451.651L745.326 448.745Z" fill="#CFE3FC"/>
      <path d="M711.443 372.557C711.765 371.912 712.088 371.266 712.734 370.943C713.379 370.62 714.347 370.62 714.992 370.943C729.836 375.463 741.776 388.054 746.939 402.904C752.102 417.432 750.812 433.574 745.971 448.101C740.163 439.062 728.546 434.542 720.478 427.117C705.634 413.881 703.375 390.636 711.443 372.557Z" fill="#CFE3FC"/>
      <path d="M732.095 776.1H773.723C784.049 776.1 792.439 767.706 792.439 757.375V696.036H713.379V757.375C713.379 767.706 721.769 776.1 732.095 776.1Z" fill="#B8D5F8"/>
      <path d="M750.812 601.126C751.457 582.725 752.425 560.772 738.549 546.244C727.9 534.945 700.471 527.197 684.982 526.874C681.755 526.874 681.755 522.031 684.982 522.031C696.599 522.354 708.861 526.874 720.156 530.748C728.223 533.653 735.968 536.559 742.099 543.016C756.943 558.512 756.298 581.433 755.652 601.126C755.652 604.355 750.812 604.355 750.812 601.126Z" fill="#CFE3FC"/>
      <path d="M680.141 520.091C680.464 519.769 680.787 519.769 681.432 519.769C687.241 519.769 693.049 519.769 698.858 519.769C704.021 519.769 708.861 519.769 713.702 521.06C723.382 523.643 731.45 530.745 737.581 538.816L739.517 539.139C730.482 542.044 721.769 545.918 712.088 546.887C702.73 547.855 692.081 545.595 686.272 538.17C682.4 533.328 681.109 527.194 680.141 521.383C679.818 521.06 679.818 520.414 680.141 520.091Z" fill="#CFE3FC"/>
    </g>
    <g opacity="0.1">
      <path d="M50.809 597.894C51.1316 592.406 51.4543 586.595 54.0359 581.43C71.7842 602.737 78.2382 632.761 71.1389 659.233L65.9757 664.076C57.2629 656.005 52.7451 644.383 51.1317 632.761C49.5182 621.461 50.1636 609.516 50.809 597.894Z" fill="#CFE3FC"/>
      <path d="M3.69524 627.919C4.01793 627.596 4.66333 627.273 5.30872 627.273C16.9258 624.691 29.511 627.596 38.5465 635.021C47.9047 642.447 53.3905 654.069 53.3905 666.014L49.8408 670.211C42.4188 672.148 34.6741 668.596 28.5429 663.754C17.2485 655.36 8.53568 643.738 3.69524 630.824C3.37254 629.856 3.04985 628.887 3.69524 627.919Z" fill="#CFE3FC"/>
      <path d="M118.252 627.274C125.997 620.817 135.355 614.683 145.359 615.329C146.327 615.329 147.618 615.652 148.263 616.62C149.231 618.557 145.682 620.172 145.036 622.431C144.713 623.723 145.359 625.014 145.682 626.628C146.327 629.211 145.359 631.794 144.391 634.054C135.033 657.298 109.217 672.471 84.3692 668.92L81.1423 664.077C92.114 650.518 104.699 638.25 118.252 627.274Z" fill="#CFE3FC"/>
      <path d="M89.2097 665.367C71.4615 682.154 69.2027 707.013 72.4296 729.611C73.075 734.454 65.3303 734.454 64.6849 729.611C61.458 704.753 64.6849 677.635 83.724 659.556C87.2736 656.327 92.7594 661.816 89.2097 665.367Z" fill="#CFE3FC"/>
      <path d="M72.1068 657.297C68.2344 679.25 73.0749 701.526 70.816 723.478C70.1706 728.321 62.4259 728.644 63.0713 723.478C65.6529 700.557 60.8124 677.958 64.6848 655.037C65.3302 650.517 72.7521 652.454 72.1068 657.297Z" fill="#CFE3FC"/>
      <path d="M49.1954 656.008C55.6493 665.693 62.1033 676.347 65.3302 687.646C68.5572 699.914 67.5891 713.796 68.2345 726.386C68.5572 731.552 60.4898 731.552 60.4898 726.386C59.8444 714.441 60.8125 701.205 57.9083 689.583C55.3267 678.929 48.8727 668.921 42.7415 659.882C39.5145 655.685 46.2912 651.811 49.1954 656.008Z" fill="#CFE3FC"/>
      <path d="M40.1599 775.778H83.7239C85.6601 775.778 86.9508 774.487 87.5962 772.873L102.763 716.699C103.408 714.116 101.472 711.856 98.8906 711.856H25.3159C22.7343 711.856 20.7981 714.439 21.4435 716.699L36.2875 772.873C36.9329 774.487 38.5464 775.778 40.1599 775.778Z" fill="#CFE3FC"/>
      <path d="M56.2947 589.822C62.1033 611.775 62.1033 634.696 67.5891 656.649C67.9118 657.294 66.6209 657.617 66.6209 656.972C61.4578 635.019 61.1351 612.097 55.3266 590.145C55.0039 589.499 55.972 589.176 56.2947 589.822Z" fill="#C1C6FB"/>
      <path d="M48.8726 663.431C39.5144 648.903 26.2838 638.249 10.149 632.761C9.50361 632.438 9.82633 631.47 10.4717 631.793C26.9293 637.604 40.4826 648.257 49.8408 663.108C50.4862 663.431 49.518 664.076 48.8726 663.431Z" fill="#C1C6FB"/>
      <path d="M142.455 622.432C138.905 631.148 132.774 637.605 125.029 642.77C113.735 650.518 99.536 654.392 89.2097 663.109C88.5643 663.755 87.5963 662.786 88.2417 662.141C95.341 656.007 104.376 653.424 112.444 648.904C124.061 642.448 136.001 634.699 141.164 621.786C141.487 621.14 142.777 621.786 142.455 622.432Z" fill="#C1C6FB"/>
    </g>
    <path d="M125.352 777.712H707.818V246.323C707.818 233.732 697.492 223.401 684.907 223.401H148.263C135.678 223.401 125.352 233.732 125.352 246.323V777.712Z" fill="#FAFAFF"/>
    <path d="M125.352 297.332V243.418C125.352 232.119 134.387 223.079 145.682 223.079H687.811C699.106 223.079 708.141 232.119 708.141 243.418V297.332H125.352Z" fill="url(#paint0_linear)"/>
    <path d="M663.609 266.662C660.045 266.662 657.155 263.772 657.155 260.206C657.155 256.64 660.045 253.749 663.609 253.749C667.173 253.749 670.063 256.64 670.063 260.206C670.063 263.772 667.173 266.662 663.609 266.662Z" fill="white"/>
    <path d="M635.212 266.662C631.647 266.662 628.758 263.772 628.758 260.206C628.758 256.64 631.647 253.749 635.212 253.749C638.776 253.749 641.666 256.64 641.666 260.206C641.666 263.772 638.776 266.662 635.212 266.662Z" fill="white"/>
    <path d="M606.814 266.662C603.25 266.662 600.361 263.772 600.361 260.206C600.361 256.64 603.25 253.749 606.814 253.749C610.379 253.749 613.268 256.64 613.268 260.206C613.268 263.772 610.379 266.662 606.814 266.662Z" fill="white"/>
    <path d="M677.808 340.591C674.956 340.591 672.644 338.278 672.644 335.425C672.644 332.572 674.956 330.26 677.808 330.26C680.659 330.26 682.971 332.572 682.971 335.425C682.971 338.278 680.659 340.591 677.808 340.591Z" fill="#CFE3FC"/>
    <path d="M677.808 370.616C674.956 370.616 672.644 368.303 672.644 365.451C672.644 362.598 674.956 360.285 677.808 360.285C680.659 360.285 682.971 362.598 682.971 365.451C682.971 368.303 680.659 370.616 677.808 370.616Z" fill="#CFE3FC"/>
    <path d="M677.808 400.641C674.956 400.641 672.644 398.329 672.644 395.476C672.644 392.623 674.956 390.311 677.808 390.311C680.659 390.311 682.971 392.623 682.971 395.476C682.971 398.329 680.659 400.641 677.808 400.641Z" fill="#CFE3FC"/>
    <path d="M677.808 430.663C674.956 430.663 672.644 428.35 672.644 425.497C672.644 422.645 674.956 420.332 677.808 420.332C680.659 420.332 682.971 422.645 682.971 425.497C682.971 428.35 680.659 430.663 677.808 430.663Z" fill="#CFE3FC"/>
    <path d="M677.808 460.688C674.956 460.688 672.644 458.376 672.644 455.523C672.644 452.67 674.956 450.357 677.808 450.357C680.659 450.357 682.971 452.67 682.971 455.523C682.971 458.376 680.659 460.688 677.808 460.688Z" fill="#CFE3FC"/>
    <path d="M677.808 490.71C674.956 490.71 672.644 488.397 672.644 485.544C672.644 482.692 674.956 480.379 677.808 480.379C680.659 480.379 682.971 482.692 682.971 485.544C682.971 488.397 680.659 490.71 677.808 490.71Z" fill="#CFE3FC"/>
    <path opacity="0.1" d="M729.439 641.954H543.566C537.435 641.954 532.272 636.789 532.272 630.655V530.576C532.272 524.442 537.435 519.276 543.566 519.276H729.439C735.57 519.276 740.733 524.442 740.733 530.576V630.655C740.733 636.789 735.57 641.954 729.439 641.954Z" fill="#0D1936"/>
    <path d="M722.503 635.019H536.63C530.499 635.019 525.335 629.853 525.335 623.719V523.64C525.335 517.506 530.499 512.341 536.63 512.341H722.503C728.634 512.341 733.797 517.506 733.797 523.64V623.719C733.797 629.853 728.634 635.019 722.503 635.019Z" fill="white"/>
    <path d="M629.566 526.224H545.988V533.649H629.566V526.224Z" fill="#F0F1FE"/>
    <path d="M587.938 542.366H545.988V549.791H587.938V542.366Z" fill="#6081F7"/>
    <path d="M536.63 617.908C543.406 608.546 550.828 596.601 558.573 588.207C561.477 585.302 564.382 582.073 568.577 581.428C574.385 580.459 579.226 584.979 583.421 588.853C588.584 593.695 594.07 598.215 600.524 599.506C608.914 601.121 616.981 596.924 624.403 593.05C630.857 589.498 637.311 585.624 642.151 580.136C646.669 574.648 648.928 567.223 654.737 563.026C655.705 562.38 656.995 561.735 657.964 561.412C660.222 561.089 662.159 562.38 663.772 563.994C667.644 568.191 669.258 574.002 671.194 579.168C673.13 584.333 676.68 589.821 682.166 591.113C689.265 592.727 695.719 586.27 699.591 580.136C703.141 573.679 706.045 566.254 712.499 562.703C714.435 561.412 717.017 560.766 718.953 562.057C721.212 563.349 721.535 566.254 721.857 568.837C722.826 579.168 723.794 589.499 724.762 599.829C725.084 604.026 725.407 614.357 722.826 617.908H536.63Z" fill="#CFE3FC"/>
    <path d="M653.283 763.185H231.519C227.969 763.185 225.065 760.279 225.065 756.728V665.688C225.065 662.137 227.969 659.231 231.519 659.231H653.283C656.832 659.231 659.737 662.137 659.737 665.688V756.728C659.737 760.279 656.832 763.185 653.283 763.185Z" fill="white"/>
    <path d="M345.43 680.859H243.136V744.781H345.43V680.859Z" fill="#CFE3FC"/>
    <path d="M259.271 704.429L243.458 727.35L243.136 744.783H283.795L259.271 704.429Z" fill="#6081F7"/>
    <path d="M261.529 716.374L263.143 718.634L265.402 715.082L259.27 704.429L251.848 715.082L254.107 718.634L255.721 716.374L258.625 720.893L261.529 716.374Z" fill="white"/>
    <path d="M278.31 736.068L290.249 718.312L306.707 744.784H283.795L278.31 736.068Z" fill="#6081F7"/>
    <path d="M315.42 714.113C321.657 714.113 326.714 709.054 326.714 702.814C326.714 696.574 321.657 691.515 315.42 691.515C309.182 691.515 304.125 696.574 304.125 702.814C304.125 709.054 309.182 714.113 315.42 714.113Z" fill="#CFE3FC"/>
    <path d="M292.831 730.256L294.444 732.516L297.026 728.965L290.249 718.312L283.15 728.642L285.409 732.516L287.022 729.934L289.927 734.453L292.831 730.256Z" fill="white"/>
    <path d="M637.148 682.152H351.562V688.286H637.148V682.152Z" fill="#F0F1FE"/>
    <path d="M637.148 696.68H351.562V702.814H637.148V696.68Z" fill="#F0F1FE"/>
    <path d="M637.148 711.529H351.562V717.663H637.148V711.529Z" fill="#F0F1FE"/>
    <path d="M459.988 726.057H351.562V732.19H459.988V726.057Z" fill="#FFDFCC"/>
    <path d="M696.201 760.602H691.361C690.393 760.602 689.747 759.957 689.747 758.988V753.177C689.747 752.209 690.393 751.563 691.361 751.563H694.91C695.556 751.563 695.879 751.24 696.201 750.594C696.201 750.272 696.524 749.949 696.524 749.626C696.847 748.98 696.524 748.334 696.201 748.012L693.62 745.429C692.974 744.783 692.974 743.815 693.62 742.846L697.815 738.649C698.46 738.004 699.428 738.004 700.396 738.649L702.978 741.232C703.301 741.555 703.946 741.878 704.591 741.555C704.914 741.555 705.237 741.232 705.559 741.232C706.205 740.909 706.527 740.586 706.527 739.941V736.39C706.527 735.421 707.173 734.775 708.141 734.775H713.95C714.918 734.775 715.563 735.421 715.563 736.39V739.941C715.563 740.586 715.886 740.909 716.531 741.232C716.854 741.232 717.176 741.555 717.499 741.555C718.145 741.878 718.79 741.878 719.113 741.232L721.694 738.649C722.34 738.004 723.308 738.004 724.276 738.649L728.471 742.846C729.116 743.492 729.116 744.46 728.471 745.429L725.889 748.012C725.567 748.334 725.244 748.98 725.567 749.626C725.567 749.949 725.889 750.272 725.889 750.594C726.212 751.24 726.535 751.563 727.18 751.563H730.73C731.698 751.563 732.343 752.209 732.343 753.177V758.988C732.343 759.957 731.698 760.602 730.73 760.602H727.18C726.535 760.602 726.212 760.925 725.889 761.571C725.889 761.894 725.567 762.216 725.567 762.539C725.244 763.185 725.244 763.831 725.889 764.153L728.471 766.736C729.116 767.382 729.116 768.35 728.471 769.319L724.276 773.516C723.63 774.161 722.662 774.161 721.694 773.516L719.113 770.933C718.79 770.61 718.145 770.287 717.499 770.61C717.176 770.61 716.854 770.933 716.531 770.933C715.886 771.256 715.563 771.579 715.563 772.224V775.776C715.563 776.744 714.918 777.39 713.95 777.39H708.141C707.173 777.39 706.527 776.744 706.527 775.776V772.224C706.527 771.579 706.205 771.256 705.559 770.933C705.237 770.933 704.914 770.61 704.591 770.61C703.946 770.287 703.301 770.287 702.978 770.933L700.396 773.516C699.751 774.161 698.783 774.161 697.815 773.516L693.62 769.319C692.974 768.673 692.974 767.705 693.62 766.736L696.201 764.153C696.524 763.831 696.847 763.185 696.524 762.539C696.524 761.571 696.201 760.602 696.201 760.602ZM719.758 754.468C718.79 749.303 713.304 746.075 708.464 748.012C704.591 749.303 702.332 753.5 703.301 757.374C704.269 762.539 709.754 765.768 714.595 763.831C718.467 762.216 720.726 758.342 719.758 754.468Z" fill="#E96966"/>
    <path d="M135.982 776.1H112.748C108.23 776.1 104.358 772.226 104.358 767.706V744.462C104.358 739.942 108.23 736.068 112.748 736.068H135.982C140.5 736.068 144.372 739.942 144.372 744.462V767.706C144.695 772.549 140.822 776.1 135.982 776.1Z" fill="#6081F7"/>
    <path d="M114.039 757.375L119.525 759.312V762.217L110.812 758.666V756.083L119.525 752.532V755.438L114.039 757.375Z" fill="white"/>
    <path d="M123.72 764.156H120.493L125.333 748.66H128.56L123.72 764.156Z" fill="white"/>
    <path d="M135.014 757.375L129.528 755.438V752.532L138.241 756.083V758.666L129.528 762.217V759.312L135.014 757.375Z" fill="white"/>
    <path d="M556.796 426.146C542.895 426.146 531.626 414.872 531.626 400.964C531.626 387.057 542.895 375.783 556.796 375.783C570.698 375.783 581.967 387.057 581.967 400.964C581.967 414.872 570.698 426.146 556.796 426.146Z" fill="#CFE3FC"/>
    <path d="M560.346 411.294L569.059 402.577L563.896 397.412L560.346 401.286L549.697 390.955L544.857 395.798L560.346 411.294Z" fill="white"/>
    <path opacity="0.1" d="M413.842 314.276H50.8088C43.0641 314.276 36.9329 320.41 36.9329 328.158V467.301C36.9329 475.049 43.0641 481.183 50.8088 481.183H413.842C421.587 481.183 427.718 475.049 427.718 467.301V328.481C427.718 320.733 421.264 314.276 413.842 314.276Z" fill="#191C3C"/>
    <path d="M420.778 307.34H57.745C50.0003 307.34 43.869 313.474 43.869 321.222V460.365C43.869 468.113 50.0003 474.246 57.745 474.246H420.778C428.523 474.246 434.654 468.113 434.654 460.365V321.545C434.654 313.797 428.2 307.34 420.778 307.34Z" fill="white"/>
    <path d="M73.557 330.582H66.4578V451.323H73.557V330.582Z" fill="#F0F1FE"/>
    <path d="M91.628 330.582H84.5287V451.323H91.628V330.582Z" fill="#F0F1FE"/>
    <path d="M110.022 330.582H102.922V451.323H110.022V330.582Z" fill="#F0F1FE"/>
    <path d="M128.093 330.582H120.993V451.323H128.093V330.582Z" fill="#F0F1FE"/>
    <path d="M146.486 330.582H139.387V451.323H146.486V330.582Z" fill="#F0F1FE"/>
    <path d="M164.88 330.582H157.781V451.323H164.88V330.582Z" fill="#F0F1FE"/>
    <path d="M73.557 398.378H66.4578V451.646H73.557V398.378Z" fill="#E96966"/>
    <path d="M91.628 376.105H84.5287V451.326H91.628V376.105Z" fill="#E96966"/>
    <path d="M110.022 364.807H102.922V451.327H110.022V364.807Z" fill="#E96966"/>
    <path d="M128.093 376.105H120.993V451.326H128.093V376.105Z" fill="#E96966"/>
    <path d="M146.486 354.151H139.387V451.325H146.486V354.151Z" fill="#E96966"/>
    <path d="M164.88 342.208H157.781V451.327H164.88V342.208Z" fill="#E96966"/>
    <path d="M226.192 370.939C237.064 370.939 245.877 362.122 245.877 351.246C245.877 340.37 237.064 331.553 226.192 331.553C215.321 331.553 206.508 340.37 206.508 351.246C206.508 362.122 215.321 370.939 226.192 370.939Z" fill="#CFE3FC"/>
    <path d="M415.938 334.46H256.526V339.625H415.938V334.46Z" fill="#F0F1FE"/>
    <path d="M415.938 349.952H256.526V355.118H415.938V349.952Z" fill="#F0F1FE"/>
    <path d="M323.324 365.45H256.526V370.616H323.324V365.45Z" fill="#F4C1C0"/>
    <path d="M226.192 447.127C237.064 447.127 245.877 438.31 245.877 427.434C245.877 416.558 237.064 407.741 226.192 407.741C215.321 407.741 206.508 416.558 206.508 427.434C206.508 438.31 215.321 447.127 226.192 447.127Z" fill="#CFE3FC"/>
    <path d="M415.938 410.97H256.526V416.135H415.938V410.97Z" fill="#F0F1FE"/>
    <path d="M415.938 426.468H256.526V431.633H415.938V426.468Z" fill="#F0F1FE"/>
    <path d="M323.324 441.64H256.526V446.805H323.324V441.64Z" fill="#F4C1C0"/>
    <path d="M246.04 444.546C246.04 444.546 239.586 438.412 239.586 429.373H219.579C219.579 429.373 219.256 441.964 214.416 444.546H246.04Z" fill="#FFCEBD"/>
    <path d="M277.987 467.791L319.292 479.736C320.906 480.059 322.519 480.381 324.133 480.059L367.697 471.342L370.923 462.948L371.569 463.271C373.505 463.917 374.796 465.531 374.796 467.468V470.051L377.377 471.342L386.09 473.279L388.349 474.57H396.416L393.512 477.153C393.19 477.476 392.544 477.799 391.899 477.799L372.214 480.704L363.179 482.318L328.005 496.846C325.746 497.815 323.164 498.137 320.583 497.492L275.405 486.193L277.987 467.791Z" fill="#FFCEBD"/>
    <path d="M185.373 467.791L144.068 479.736C142.455 480.059 140.841 480.381 139.228 480.059L95.6637 471.342L92.4368 462.948L91.7914 463.271C89.8552 463.917 88.5645 465.531 88.5645 467.468V470.051L85.9828 471.342L77.2701 473.279L75.0112 474.57H66.9438L69.848 477.153C70.1707 477.476 70.8161 477.799 71.4615 477.799L91.146 480.704L100.182 482.318L135.355 496.846C137.614 497.815 140.196 498.137 142.777 497.492L187.955 486.193L185.373 467.791Z" fill="#FFCEBD"/>
    <path d="M229.26 400.64C229.905 398.38 231.519 395.797 233.778 394.829L230.551 392.246C231.841 392.246 233.132 392.569 234.423 392.892C235.714 393.215 237.004 393.86 237.973 394.506C239.909 395.474 240.877 395.474 241.522 397.411C242.49 399.349 243.458 401.286 244.426 403.545C244.749 404.514 245.395 405.482 245.395 406.128C245.717 407.419 246.04 409.034 246.04 410.325C246.04 411.616 246.363 412.585 246.363 413.876C246.363 414.845 246.363 416.136 246.363 417.105C246.363 418.396 245.717 419.687 245.395 420.979C244.749 423.238 243.781 426.467 241.845 428.081C239.586 429.695 237.327 430.987 234.746 430.987C234.1 430.987 233.455 430.987 233.132 430.664C232.487 430.341 232.487 429.695 232.164 429.372C228.937 422.916 228.937 415.168 228.614 408.065C228.614 405.805 228.292 403.223 229.26 400.64Z" fill="#FFCEBD"/>
    <path d="M198.266 768.874H184.39V757.252H198.266V768.874Z" fill="#FFCEBD"/>
    <path d="M186.987 765.447H198.281L200.54 771.904V774.809C200.54 776.424 199.249 777.715 197.636 777.715H186.018L173.433 772.872V770.613C173.433 767.061 175.047 763.833 177.951 761.573L184.405 756.73V764.156L186.987 765.447Z" fill="#E96966"/>
    <path d="M197.313 773.519H185.696L173.433 768.999C173.433 769.645 173.111 770.29 173.111 770.936V773.196L185.696 778.039H197.313C198.926 778.039 200.217 776.747 200.217 775.133V771.582V771.259C199.894 772.55 198.926 773.519 197.313 773.519Z" fill="#4D5068"/>
    <path d="M256.366 757.374H270.242V768.996H256.366V757.374Z" fill="#FFCEBD"/>
    <path d="M264.434 572.713C264.434 572.713 267.338 593.052 269.597 612.422C270.242 616.619 270.242 620.816 270.242 625.335V669.564V760.604H256.366C256.366 760.604 245.717 713.47 243.458 682.155C242.813 673.761 241.522 665.69 239.586 657.619L225.065 591.76V575.618L264.434 572.713Z" fill="#132652"/>
    <path d="M190.214 577.88C190.214 577.88 186.987 595.313 184.728 615.006C184.405 617.589 184.405 619.849 184.405 622.431V669.243V760.283L198.281 760.606C198.281 760.606 210.221 715.408 211.511 680.865C211.834 675.377 212.802 669.888 213.77 664.723L229.26 611.778V575.62L190.214 577.88Z" fill="#132652"/>
    <path d="M267.661 765.447H256.366L254.107 771.904V774.809C254.107 776.424 255.398 777.715 257.012 777.715H268.629L281.214 772.872V770.613C281.214 767.061 279.6 763.833 276.696 761.573L270.242 756.73V764.156L267.661 765.447Z" fill="#E96966"/>
    <path d="M257.334 773.519H268.951L281.214 768.999C281.214 769.645 281.537 770.29 281.537 770.936V773.196L268.951 778.039H257.334C255.721 778.039 254.43 776.747 254.43 775.133V771.582V771.259C254.753 772.55 255.721 773.519 257.334 773.519Z" fill="#4D5068"/>
    <path d="M214.416 443.256L198.926 448.098C193.118 449.713 163.753 471.02 163.753 471.02L172.465 492.65L191.182 485.87L187.309 589.824C199.249 579.493 238.941 604.997 270.242 585.95C270.242 585.95 256.044 519.445 265.402 488.13L287.345 492.65L297.671 470.697L283.473 461.658C280.891 460.043 278.632 458.429 276.374 456.815C271.21 452.618 265.402 449.39 258.948 447.453L245.717 443.579H214.416V443.256Z" fill="#6081F7"/>
    <path d="M210.543 412.586C210.866 410.326 210.221 408.066 210.221 406.129C209.898 402.901 210.543 399.996 211.834 397.09C213.125 394.83 214.416 392.57 216.352 390.956C219.902 387.728 225.387 387.082 230.228 387.082C231.841 387.082 233.132 387.082 234.746 387.728C235.714 388.051 236.682 389.019 237.973 389.342C238.618 389.665 239.586 389.665 240.232 389.665C241.2 389.988 242.168 390.31 243.136 390.956C244.104 391.602 245.072 392.247 245.717 392.893C247.331 395.476 247.008 400.318 246.04 402.901C245.717 403.87 245.072 404.838 244.749 405.807C243.136 409.358 244.749 413.555 243.781 417.429C243.136 420.011 241.2 422.271 240.232 424.854C239.586 426.468 239.263 428.082 238.295 429.697C236.359 432.602 232.81 432.925 229.583 433.571C225.71 434.539 222.161 435.508 218.288 435.83C211.189 435.83 212.802 429.696 210.543 425.177C209.898 424.208 209.253 423.24 208.93 421.948C207.962 418.72 210.221 415.492 210.543 412.586Z" fill="#4D5068"/>
    <path d="M490.966 233.734L508.715 247.616L513.878 308.632V321.869C513.878 322.837 513.555 323.806 512.587 324.451C511.942 325.097 511.296 325.42 510.328 325.42H502.261V333.491C502.261 334.782 501.293 335.751 500.002 335.751C498.711 335.751 497.743 334.782 497.743 333.491L498.066 320.255H496.452C495.162 320.255 494.193 318.963 494.516 317.672L494.839 315.089C494.839 313.798 495.484 312.507 496.452 311.861L499.034 309.601L501.938 304.758L495.162 262.467L477.736 250.522L490.966 233.734Z" fill="#FFCEBD"/>
    <path d="M327.037 228.244L262.82 284.418L246.04 292.489H235.714C234.423 292.489 233.455 293.457 233.455 294.749C233.455 296.04 234.423 297.008 235.714 297.008H247.331H265.079C267.661 297.008 269.92 295.717 271.21 293.457L272.501 291.197L323.487 255.362L342.849 244.063L327.037 228.244Z" fill="#FFCEBD"/>
    <path d="M396.739 184.984L369.31 194.669C365.76 195.96 362.533 197.897 359.629 200.157L326.069 226.63L345.108 246C345.108 246 364.47 234.7 365.438 236.315C367.374 240.834 368.987 277.961 368.987 277.961L366.406 297.008H447.725L446.112 277.315L453.856 239.866L477.736 251.165L492.903 231.472L459.02 199.188C456.761 196.929 453.856 194.992 450.952 193.7L430.3 184.338H396.739V184.984Z" fill="#132652"/>
    <g opacity="0.15">
      <path opacity="0.15" d="M446.757 291.52H366.728L366.083 297.331H447.403L446.757 291.52Z" fill="#19103A"/>
    </g>
    <path d="M412.874 214.038C405.452 214.038 399.321 207.904 399.321 200.479V188.211H426.427V200.479C426.427 207.904 420.619 214.038 412.874 214.038Z" fill="#FFCEBD"/>
    <path d="M434.495 158.834C434.172 157.22 434.172 154.314 433.849 153.023C433.204 150.118 431.268 146.889 429.009 144.629C427.395 142.692 428.041 143.015 425.782 141.724C422.232 139.141 416.101 138.173 411.583 138.495C409.647 138.495 408.034 139.141 406.097 139.464C405.775 139.464 401.257 142.37 401.902 142.692C399.966 141.724 397.385 142.692 395.771 143.984C393.19 146.244 391.899 149.795 390.608 153.023C389.963 154.637 389.317 156.251 388.672 157.866C388.026 159.157 387.704 160.771 388.026 162.385C388.349 163.031 388.672 163.677 388.994 164C389.64 165.614 389.317 167.551 388.994 169.165C388.672 171.748 389.64 174.33 390.931 176.267C392.221 178.204 394.48 178.85 395.771 180.464L395.126 180.141C401.257 184.015 408.679 183.37 415.778 183.047C419.005 182.724 422.555 182.401 425.782 182.401C427.718 182.401 429.654 182.078 430.622 180.787C431.913 179.496 431.913 177.236 432.558 175.622C433.204 173.362 435.14 171.425 435.785 169.165C437.722 165.937 434.817 162.385 434.495 158.834Z" fill="#E96966"/>
    <path d="M413.197 200.48C404.161 200.48 396.416 193.055 396.416 183.693V160.448H429.654V183.693C429.977 193.055 422.555 200.48 413.197 200.48Z" fill="#FFCEBD"/>
    <path d="M433.849 161.416C432.236 157.865 429.009 155.605 425.459 154.313C421.909 153.022 418.037 153.022 414.165 152.699C412.229 152.699 410.292 152.699 408.356 153.022C406.097 153.345 403.838 154.313 401.902 155.282C400.289 155.928 398.998 156.573 397.385 157.219C396.094 157.865 394.48 158.51 393.512 159.802C391.899 162.061 392.544 165.29 393.512 167.873L394.158 168.195C398.675 167.55 401.902 163.999 405.129 160.77C405.452 160.447 405.452 160.447 405.775 160.447C406.097 160.447 406.42 160.447 406.743 160.77C411.583 163.353 417.069 163.999 422.555 164.644C426.75 164.967 431.268 165.29 434.172 162.384L434.495 162.061C434.172 161.739 434.172 161.416 433.849 161.416Z" fill="#E96966"/>
    <path d="M396.417 186.277C395.771 183.049 395.771 179.497 396.417 175.946C397.707 177.883 398.03 179.82 399.321 181.757C400.289 183.694 402.225 185.631 404.484 185.309C407.066 184.986 408.356 182.08 410.615 180.789C411.906 180.143 413.519 179.82 415.133 180.143C416.746 180.466 418.037 181.112 419.328 182.08C420.942 183.049 422.878 184.34 424.814 184.017C426.105 183.694 427.073 182.726 427.718 181.435C428.363 180.143 428.686 178.852 429.009 177.883C429.009 177.56 429.332 177.238 429.654 177.238C431.59 180.789 430.945 186.6 429.654 190.151C428.041 194.348 425.137 197.899 421.264 199.836C418.36 201.45 414.81 201.773 411.261 201.45C409.002 201.45 406.42 200.805 404.484 199.513C401.58 197.899 399.321 194.671 398.03 191.442C397.385 190.151 396.739 188.214 396.417 186.277Z" fill="#E96966"/>
    <path d="M840.09 763.018H822.665V743.97H840.09V763.018Z" fill="#FFCEBD"/>
    <path d="M938.694 756.361L921.93 761.12L916.732 742.796L933.496 738.037L938.694 756.361Z" fill="#FFCEBD"/>
    <path d="M854 594.991L821.73 658.913L820.439 752.858H842.06L843.996 674.086L876.911 626.952L854 594.991Z" fill="#6081F7"/>
    <path opacity="0.3" d="M851.418 600.157L859.486 615.33L861.099 649.873L876.911 626.952L854 594.991L851.418 600.157Z" fill="#30334F"/>
    <path d="M854 594.989L853.032 596.604L863.035 615.328L887.883 674.407C889.496 678.281 891.755 681.833 894.659 685.061L918.539 751.888L937.578 749.951L925.638 697.652C923.379 687.967 920.152 678.927 914.667 670.533C913.376 668.596 912.408 666.336 912.408 664.399L903.695 609.84L905.308 604.029C906.599 598.864 906.276 593.375 904.018 588.21L901.759 582.722L854 594.989Z" fill="#6081F7"/>
    <path d="M820.439 509.439L796.882 541.077C796.237 542.046 794.946 542.692 793.978 543.014L756.223 548.18C754.287 548.503 752.673 547.534 752.028 545.92L745.251 532.038V522.999C745.251 520.416 743.315 518.479 740.733 518.156V544.952L747.187 554.314C747.833 555.282 748.801 555.928 750.092 555.928L796.56 559.479C798.819 559.802 801.078 558.834 802.368 557.219L842.383 512.022L820.439 509.439Z" fill="#FFBBA1"/>
    <path d="M832.309 495.609L817.806 504.679L808.397 489.622L822.901 480.551L832.309 495.609Z" fill="#FFCEBD"/>
    <path d="M800.432 456.819V463.598C800.432 463.598 800.755 471.669 796.882 474.897L799.464 475.543V478.126C799.464 484.583 804.627 489.748 811.081 489.748H818.826C822.698 489.748 825.925 487.488 827.216 483.937L833.67 465.212L831.088 454.236C831.088 454.236 808.822 446.811 800.432 456.819Z" fill="#FFCEBD"/>
    <path d="M814.631 520.091L819.794 507.5L817.858 504.595L836.251 492.327L851.095 497.815C853.354 498.784 855.29 500.398 856.581 502.658L877.234 543.658C877.556 543.981 877.556 544.304 877.879 544.627L903.695 582.076L848.837 598.54L844.641 570.454C844.319 569.162 843.673 567.871 842.705 566.902L816.89 535.91L814.631 520.091Z" fill="#132652"/>
    <path d="M788.492 774.49L789.46 772.553C791.074 769.002 793.656 765.773 797.205 764.159L811.726 758.671L821.73 752.537V757.702L833.024 757.38L837.542 754.797H840.769V774.167H788.492V774.49Z" fill="#132652"/>
    <path d="M843.599 777.746H787.127V774.518H843.599V777.746Z" fill="#191C3C"/>
    <path d="M895.627 775.458L896.273 772.552C897.886 769.001 897.886 769.001 900.468 766.741L912.408 758.993L919.83 751.245L920.798 756.088L930.801 753.505L934.351 750.277L937.255 749.631L941.773 766.741L900.791 776.426L895.627 775.458Z" fill="#132652"/>
    <path d="M945 769L910.149 777.394L905.954 775.457L944.355 766.095L945 769Z" fill="#191C3C"/>
    <path d="M894.659 777.393L910.149 777.716V774.487H894.659V777.393Z" fill="#191C3C"/>
    <path d="M824.312 441.967C821.73 441.321 818.826 441.644 816.244 442.612C814.631 443.258 813.34 444.227 811.726 444.549C809.79 444.872 807.531 444.549 805.595 444.549C804.304 444.549 803.014 444.549 801.723 444.872C800.432 445.195 799.141 445.841 798.819 447.132C798.173 448.101 798.496 449.392 798.496 450.683C798.819 452.62 798.496 454.88 799.787 456.817C800.755 458.431 802.368 458.754 803.982 459.077C804.627 459.4 805.595 459.723 806.241 460.046C808.5 461.66 808.5 465.211 810.758 466.825C812.372 467.794 814.631 467.794 815.599 469.085C816.567 470.376 816.244 471.991 816.567 473.282C816.89 475.219 818.18 476.833 820.117 477.479C820.762 477.802 821.085 477.802 821.407 478.125C821.73 478.447 822.053 478.77 822.053 479.416C822.698 481.999 821.73 484.904 823.344 486.841C824.312 488.133 826.248 488.455 827.539 489.424C829.475 490.715 828.829 491.684 828.829 493.944C828.829 495.558 828.829 497.172 828.184 498.786C827.539 500.723 825.925 502.014 824.312 503.306C825.925 502.66 827.216 502.014 828.829 501.692C828.507 505.243 828.184 508.794 827.539 512.345C829.475 511.054 830.766 509.117 832.056 506.857C833.024 505.566 833.993 503.952 835.606 504.274C836.251 505.566 836.897 506.534 837.542 507.503C838.188 505.243 839.478 502.983 841.092 501.369C842.06 502.66 843.028 504.274 844.319 505.566C845.287 506.857 846.255 508.471 845.932 510.408C846.255 508.794 846.9 506.857 847.868 505.566C851.741 509.44 855.936 513.314 861.422 514.282C861.744 510.731 859.486 507.503 857.872 504.597C856.904 502.983 855.613 500.723 855.613 498.786C855.613 497.172 856.581 495.558 856.259 493.944C855.29 490.715 851.095 489.101 850.45 485.873C850.127 484.258 850.773 482.644 850.45 481.353C850.127 479.739 848.514 478.77 847.546 477.479C846.255 475.542 845.932 473.605 845.61 471.345C845.287 469.408 844.319 468.762 843.673 467.148C842.383 463.597 846.255 459.723 842.06 457.14C841.415 456.817 840.769 456.494 840.124 455.849C839.478 455.203 839.156 454.235 838.51 453.266C837.542 451.006 836.251 449.069 834.961 447.132C834.638 446.487 833.993 445.841 833.347 445.195C832.702 444.872 831.734 444.872 831.088 444.549C829.797 444.227 828.507 443.581 827.539 442.935C826.248 442.612 825.28 442.29 824.312 441.967Z" fill="url(#paint1_linear)"/>
    <path opacity="0.1" d="M841.737 518.157C838.51 519.771 835.283 522.354 836.251 525.582C832.379 526.551 831.734 530.425 827.861 532.362C827.216 532.685 826.893 533.653 827.216 534.299C826.571 534.622 825.602 534.945 824.957 535.267C824.312 535.59 824.312 536.236 824.312 536.882C823.021 537.85 821.73 538.819 820.762 540.11L822.698 542.37C823.989 540.756 824.957 537.85 827.216 536.882C827.539 536.559 829.475 534.622 829.475 533.976C830.766 533.33 831.088 535.913 831.088 534.299C831.088 533.976 831.088 533.33 830.766 533.008C833.024 530.748 834.315 528.811 836.897 528.811C837.865 528.811 837.865 527.842 837.219 527.196C835.283 524.291 840.124 519.126 841.737 518.157C843.351 517.511 843.673 518.157 841.737 518.157Z" fill="#A7A9AC"/>
    <path d="M814.631 520.095L796.882 545.922C796.237 546.89 794.946 547.536 793.978 547.859L756.223 553.024C754.287 553.347 752.673 552.378 752.028 550.764L745.251 536.882V527.843C745.251 525.26 743.315 523.323 740.733 523V549.796L747.187 559.158C747.833 560.127 748.801 560.772 750.092 560.772L796.56 564.323C798.819 564.646 801.078 563.678 802.368 562.064L832.379 529.457L814.631 520.095Z" fill="#FFCEBD"/>
    <path opacity="0.1" d="M853.354 566.261C854 565.293 853.032 566.261 851.741 566.584C851.095 566.907 850.127 566.907 849.159 567.23C847.546 567.552 845.61 566.907 844.964 565.293C845.932 564.97 849.159 562.387 850.127 562.387C852.063 562.064 852.063 561.418 850.127 561.741C846.9 562.387 843.673 563.033 840.446 564.001L843.028 567.23C843.673 568.198 844.319 569.167 844.641 570.135H844.964C844.964 570.135 844.964 570.458 844.641 570.458V570.781L845.932 579.175C846.255 579.175 846.578 578.852 846.578 578.206C846.9 576.592 847.546 575.3 847.868 573.686C848.191 572.718 847.546 572.072 846.9 572.072C848.514 569.489 851.418 568.844 853.354 566.261Z" fill="#A7A9AC"/>
    <path opacity="0.1" d="M869.489 546.888C873.684 543.66 872.071 547.211 873.684 546.242C873.361 546.565 871.425 549.148 871.103 549.471C870.457 550.439 873.361 550.116 874.652 549.794H874.975C874.652 549.794 874.975 551.085 874.652 551.408C873.361 552.376 874.33 553.022 875.62 552.699C878.525 552.376 880.461 552.376 883.365 553.668L878.202 546.242C877.879 546.242 877.234 545.597 877.557 545.274L877.234 544.951C876.911 544.628 876.911 544.305 876.588 543.983L875.62 542.368C874.975 542.691 874.652 541.723 874.975 541.077L870.78 532.36C870.457 532.683 870.457 533.329 870.78 533.975C872.071 536.557 873.039 538.494 871.748 541.4C870.457 543.66 868.844 545.597 867.23 547.211C866.585 548.179 868.198 548.179 869.489 546.888Z" fill="#A7A9AC"/>
    <path d="M829.475 769.97C827.336 769.97 825.602 768.235 825.602 766.096C825.602 763.956 827.336 762.222 829.475 762.222C831.613 762.222 833.347 763.956 833.347 766.096C833.347 768.235 831.613 769.97 829.475 769.97Z" fill="white"/>
    <path d="M932.415 766.416C930.276 766.416 928.542 764.682 928.542 762.542C928.542 760.402 930.276 758.668 932.415 758.668C934.553 758.668 936.287 760.402 936.287 762.542C936.287 764.682 934.553 766.416 932.415 766.416Z" fill="white"/>
    <path d="M504.842 762.862L515.169 767.382L531.949 771.579C534.208 772.225 535.499 773.839 535.499 776.099L486.771 775.776L488.062 767.059L495.161 762.217H504.842V762.862Z" fill="#FFCEBD"/>
    <path d="M509.36 771.577L514.846 767.703L531.303 770.609C533.562 771.254 535.176 774.483 535.176 776.743L486.449 776.42L487.739 767.703L491.612 771.254H498.711C502.261 771.9 506.779 772.869 509.36 771.577Z" fill="#0D1936"/>
    <path d="M489.998 767.707L504.842 764.156V743.817H489.998V767.707Z" fill="#FFCEBD"/>
    <path d="M386.09 707.012C386.09 707.012 479.349 673.437 489.998 677.634C489.998 677.634 503.874 677.634 506.779 699.909L506.133 747.689H487.74L482.899 711.209C482.254 708.949 479.349 707.98 477.413 708.949L420.941 740.264L386.09 707.012Z" fill="#132652"/>
    <path d="M436.108 715.728L492.58 750.594C495.807 752.531 498.066 756.405 498.066 760.279V763.507C498.066 770.933 492.257 776.744 484.835 776.744L408.356 772.87V750.594C408.356 750.594 384.799 741.555 386.09 721.861L436.108 715.728Z" fill="#132652"/>
    <path d="M403.839 748.333L365.438 776.42L408.034 772.869V750.593L403.839 748.333Z" fill="#FFCEBD"/>
    <path d="M403.839 748.333L408.034 750.27V759.955C405.452 758.664 402.548 758.987 399.966 760.278L380.927 774.806C379.314 776.097 377.7 776.42 375.764 776.42H365.438L403.839 748.333Z" fill="#0D1936"/>
    <path d="M441.917 586.592C441.917 586.592 432.881 604.025 439.98 614.356L415.133 612.096L425.136 580.458L441.917 586.592Z" fill="#FFCEBD"/>
    <path d="M422.232 578.198C422.555 576.261 423.523 574.324 424.491 572.387C427.073 566.899 429.977 561.087 435.14 557.536C437.399 555.922 439.98 554.954 441.917 553.017C442.562 553.339 442.885 553.662 443.53 553.985L446.112 554.308C448.693 554.631 451.275 556.568 452.243 559.15C453.211 561.733 452.566 564.639 450.629 566.576C449.339 567.544 447.725 568.19 446.434 569.158C443.53 570.773 440.949 573.355 439.335 576.584C438.69 577.552 438.367 578.844 437.399 579.812C435.14 583.04 430.945 584.009 427.073 584.655C426.427 584.655 425.459 584.977 424.814 584.655C424.168 584.332 423.846 584.009 423.523 583.686C422.232 582.395 421.909 580.135 422.232 578.198Z" fill="#0D1936"/>
    <path d="M422.878 571.42C424.814 567.869 427.073 563.995 429.654 560.767C430.3 559.798 431.268 558.83 432.236 558.184C433.204 557.538 434.495 557.538 435.785 557.215C438.69 556.893 441.917 556.893 444.821 556.893L445.144 557.538C446.112 559.798 446.434 561.735 447.08 563.995C447.725 566.255 450.952 572.066 451.275 574.326C451.275 574.649 448.048 574.971 448.048 575.294C448.048 576.586 448.371 577.877 448.371 579.168C448.693 581.428 448.693 580.783 448.371 583.042C448.048 585.302 446.434 587.562 444.498 588.853C442.239 590.145 439.012 589.822 436.431 588.853C432.881 587.885 429.331 586.271 426.104 584.011C423.523 582.074 420.941 579.491 420.941 576.263C420.941 574.971 421.909 573.034 422.878 571.42Z" fill="#FFCEBD"/>
    <path d="M404.161 620.17C409.324 635.989 380.282 721.863 380.282 721.863C392.544 738.328 422.555 715.406 441.594 719.603C441.594 719.603 441.271 683.446 448.693 667.304L458.374 651.485C460.633 647.934 460.31 643.414 458.051 639.863L439.658 614.681L413.197 604.673C410.938 603.705 408.356 604.351 407.066 606.288C403.839 609.839 402.548 615.327 404.161 620.17Z" fill="white"/>
    <path d="M399.321 617.909C398.998 605.964 403.193 594.342 403.516 582.719C403.838 573.357 401.902 563.349 407.388 555.924C411.906 549.79 419.973 547.53 427.718 547.53C431.59 547.53 435.14 547.853 438.69 549.144C440.949 550.113 442.885 551.404 444.498 553.018C445.466 553.987 446.434 554.633 445.789 555.924C445.466 556.893 443.53 557.861 442.562 558.184C441.271 558.83 439.658 558.83 438.367 559.152C435.14 560.121 434.817 562.704 434.495 565.609C433.849 569.16 433.527 572.712 433.527 576.263C433.527 577.554 433.526 579.168 433.204 580.46C433.204 581.105 432.881 581.751 432.558 582.397C431.59 584.656 429.331 586.271 427.073 588.208C425.459 589.499 423.523 591.436 422.878 593.696C422.232 596.279 423.2 598.861 422.555 601.767C421.587 605.964 417.714 608.869 414.81 612.42C410.615 617.586 408.679 624.043 408.034 630.499C407.388 636.956 402.225 645.027 400.934 650.192C396.416 639.861 399.643 629.208 399.321 617.909Z" fill="#132652"/>
    <path d="M524.85 636.634L481.608 670.209C479.672 671.5 477.413 671.823 475.154 671.177L421.587 649.87C416.101 647.61 413.842 641.153 416.746 635.988C419.328 631.791 424.491 630.177 428.686 632.114L478.704 653.744L519.041 629.531L522.591 624.366L530.981 618.877L532.272 618.555V622.429L531.626 622.752L530.658 625.011L539.694 623.397L551.956 621.137C552.279 621.46 552.279 623.074 551.956 623.72L541.952 626.948V627.917L553.892 625.011C554.538 625.334 554.215 626.948 553.892 627.594L541.952 631.145L542.275 632.437L552.924 629.854C553.247 630.177 553.247 631.145 552.924 631.468L542.598 634.697C542.598 635.019 542.598 635.342 542.598 635.665L551.956 634.051C553.247 635.019 551.956 636.311 551.956 636.311L534.53 638.893C532.594 639.216 530.658 638.893 529.045 638.248L524.85 636.634Z" fill="#FFCEBD"/>
    <path d="M413.842 634.373C416.424 629.854 421.909 627.917 426.75 630.176L454.179 639.539C456.761 645.35 443.853 653.743 444.821 662.783L418.682 649.224C413.197 646.964 410.615 639.861 413.842 634.373Z" fill="white"/>
    <path d="M328.973 776.745C321.31 776.745 315.097 770.53 315.097 762.863C315.097 755.197 321.31 748.981 328.973 748.981C336.636 748.981 342.849 755.197 342.849 762.863C342.849 770.53 336.636 776.745 328.973 776.745Z" fill="#536DFE"/>
    <path d="M324.133 770.936L328.973 768.353H329.296L334.136 770.936C334.459 770.936 334.782 770.936 334.459 770.613L333.491 765.125V764.802L337.363 760.928C337.686 760.605 337.363 760.282 337.04 760.282L331.555 759.314C331.555 759.314 331.232 759.314 331.232 758.991L328.973 754.148C328.973 753.826 328.65 753.826 328.328 754.148L325.746 758.991C325.746 758.991 325.746 758.991 325.423 759.314L319.938 759.959C319.615 759.959 319.615 760.282 319.615 760.605L323.487 764.479V764.802L322.519 769.967C323.487 770.936 323.81 770.936 324.133 770.936Z" fill="white"/>
  </g>
  <defs>
    <linearGradient id="paint0_linear" x1="708.12" y1="260.204" x2="125.299" y2="260.204" gradientUnits="userSpaceOnUse">
      <stop stop-color="#6081F7"/>
      <stop offset="0.9962" stop-color="#1D4EBE"/>
    </linearGradient>
    <linearGradient id="paint1_linear" x1="861.412" y1="477.931" x2="798.391" y2="477.931" gradientUnits="userSpaceOnUse">
      <stop stop-color="#ED8A42"/>
      <stop offset="1" stop-color="#E96966"/>
    </linearGradient>
    <clipPath id="clip0">
      <rect width="945" height="872" fill="white"/>
    </clipPath>
  </defs>
</svg>
